{
DisplayStrings = (
"abcdefghijklmno/het-hb pq/qof-hb rstuvwxyz",
"/lamed-hb/qof-hb/het-hb  /het-hb/lamed-hb/he-hb  /lamed-hb/yod-hb/resh-hb/finalkaf-hb/vav-hb/finalnun-hb/qof-hb/dalet-hb/het-hb/finalmem-hb/he-hb/kaf-hb/nun-hb/bet-hb \012/he-hb/kaf-hb/yod-hb/finalnun-hb  /het-hb/lamed-hb/he-hb  ",
ABCDEFGHIJKLMNOPQRSTUVWXYZ,
"/nun-hb/yod-hb/finalmem-hb  /nun-hb/yod-hb/finalmem-hb  /nun-hb/yod-hb/finalmem-hb  /nun-hb/yod-hb/finalmem-hb \012/resh-hb/vav-hb/het-hb  /resh-hb/vav-hb/het-hb  /resh-hb/vav-hb/het-hb  /resh-hb/vav-hb/het-hb"
);
customParameters = (
{
name = glyphOrder;
value = (
    ".notdef",
    eth,
    Lslash,
    lslash,
    Thorn,
    thorn,
    onehalf,
    onequarter,
    onesuperior,
    threequarters,
    threesuperior,
    twosuperior,
    brokenbar,
    minus,
    multiply,
    space,
    exclam,
    quotedbl,
    numbersign,
    dollar,
    percent,
    ampersand,
    quotesingle,
    parenleft,
    parenright,
    asterisk,
    plus,
    comma,
    hyphen,
    period,
    slash,
    zero,
    one,
    two,
    three,
    four,
    five,
    six,
    seven,
    eight,
    nine,
    colon,
    semicolon,
    less,
    equal,
    greater,
    question,
    at,
    A,
    B,
    C,
    D,
    E,
    F,
    G,
    H,
    I,
    J,
    K,
    L,
    M,
    N,
    O,
    P,
    Q,
    R,
    S,
    T,
    U,
    V,
    W,
    X,
    Y,
    Z,
    bracketleft,
    backslash,
    bracketright,
    asciicircum,
    underscore,
    grave,
    a,
    b,
    c,
    d,
    e,
    f,
    g,
    h,
    i,
    j,
    k,
    l,
    m,
    n,
    o,
    p,
    q,
    r,
    s,
    t,
    u,
    v,
    w,
    x,
    y,
    z,
    braceleft,
    bar,
    braceright,
    asciitilde,
    dagger,
    degree,
    cent,
    sterling,
    section,
    bullet,
    paragraph,
    germandbls,
    registered,
    copyright,
    trademark,
    acute,
    dieresis,
    notequal,
    AE,
    Oslash,
    infinity,
    plusminus,
    yen,
    mu,
    ordfeminine,

glyphs = (
{
glyphname = .notdef;
layers = (
{
hints = (
{
horizontal = 1;
origin = "{0, 0}";
type = Tag;
name = hr00;
}
);
layerId = "9E0117ED-02C0-4C46-91DE-7DE1029A8F9A";
name = Regular;
paths = (
{
closed = 1;
nodes = (
"80 0 LINE",
"456 0 LINE",
"456 727 LINE",
"80 727 LINE"
);
},
{
closed = 1;
nodes = (
"144 63 LINE",
"144 665 LINE",
"391 665 LINE",
"391 63 LINE"
);
}
);
width = 536;
}
);
userData = {
com.adobe.type.autohint = "ICA8aGludFNldExpc3Q+CiAgICA8aGludHNldCBw\012b2ludFRhZz0iaHIwMCI+CiAgICAgIDxoc3RlbSBw\012b3M9IjAiIHdpZHRoPSI2MyIgLz4KICAgICAgPGhz\012dGVtIHBvcz0iNjY1IiB3aWR0aD0iNjIiIC8+CiAg\012ICAgIDx2c3RlbSBwb3M9IjM3NSIgd2lkdGg9IjYz\012IiAvPgogICAgPC9oaW50c2V0PgogIDwvaGludFNl\012dExpc3Q+Cg==";
};
},
{
glyphname = eth;
layers = (
{
hints = (
{
horizontal = 1;
origin = "{0, 0}";
type = Tag;
name = hr00;
}
);
layerId = "9E0117ED-02C0-4C46-91DE-7DE1029A8F9A";
name = Regular;
paths = (
{
closed = 1;
nodes = (
"418 248 CURVE SMOOTH",
"418 406 OFFCURVE",
"349 551 OFFCURVE",
"250 643 CURVE",
"315 673 LINE",
"299 703 LINE",
"227 667 LINE",
"211 682 OFFCURVE",
"194 693 OFFCURVE",
"176 701 CURVE",
"80 685 LINE",
"106 671 OFFCURVE",
"127 658 OFFCURVE",
"162 631 CURVE",
"106 603 LINE",
"121 575 LINE",
"189 609 LINE",
"253 551 OFFCURVE",
"330 428 OFFCURVE",
"346 302 CURVE",
"341 299 LINE",
"316 347 OFFCURVE",
"270 369 OFFCURVE",
"233 369 CURVE SMOOTH",
"119 369 OFFCURVE",
"40 280 OFFCURVE",
"40 171 CURVE SMOOTH",
"40 71 OFFCURVE",
"116 -11 OFFCURVE",
"225 -11 CURVE SMOOTH",
"342 -11 OFFCURVE",
"418 79 OFFCURVE"
);
},
{
closed = 1;
nodes = (
"343 169 CURVE SMOOTH",
"343 99 OFFCURVE",
"311 24 OFFCURVE",
"239 24 CURVE SMOOTH",
"159 24 OFFCURVE",
"112 118 OFFCURVE",
"112 200 CURVE SMOOTH",
"112 269 OFFCURVE",
"147 333 OFFCURVE",
"221 333 CURVE SMOOTH",
"301 333 OFFCURVE",
"343 250 OFFCURVE"
);
}
);
width = 464;
}
);
leftKerningGroup = c;
unicode = 00F0;
userData = {
com.adobe.type.autohint = "ICA8aGludFNldExpc3Q+CiAgICA8aGludHNldCBw\012b2ludFRhZz0iaHIwMCI+CiAgICAgIDxoc3RlbSBw\012b3M9Ii0xMSIgd2lkdGg9IjQwIiAvPgogICAgICA8\012aHN0ZW0gcG9zPSIzMzMiIHdpZHRoPSIzNiIgLz4K\012ICAgICAgPGhzdGVtIHBvcz0iNzAzIiB3aWR0aD0i\012LTIwIiAvPgogICAgICA8dnN0ZW0gcG9zPSI1MiIg\012d2lkdGg9Ijc1IiAvPgogICAgICA8dnN0ZW0gcG9z\012PSIzNTUiIHdpZHRoPSI3NiIgLz4KICAgIDwvaGlu\012dHNldD4KICA8L2hpbnRTZXRMaXN0Pgo=";
};
},
{
glyphname = Lslash;
layers = (
{
hints = (
{
horizontal = 1;
origin = "{0, 2}";
type = Tag;
name = hr01;
},
{
horizontal = 1;
origin = "{0, 11}";
type = Tag;
name = hr02;
},
{
horizontal = 1;
origin = "{0, 12}";
type = Tag;
name = hr03;
},
{
horizontal = 1;
origin = "{0, 20}";
type = Tag;
name = hr04;
},
{
horizontal = 1;
origin = "{0, 24}";
type = Tag;
name = hr05;
}
);
layerId = "9E0117ED-02C0-4C46-91DE-7DE1029A8F9A";
name = Regular;
paths = (
{
closed = 1;
nodes = (
"60 267 LINE",
"60 218 LINE",
"128 271 LINE",
"128 100 LINE SMOOTH",
"128 10 OFFCURVE",
"91 1 OFFCURVE",
"86 0 CURVE",
"470 0 LINE",
"488 106 LINE",
"470 69 OFFCURVE",
"426 40 OFFCURVE",
"364 40 CURVE SMOOTH",
"200 40 LINE",
"200 328 LINE",
"346 442 LINE",
"346 492 LINE",
"200 377 LINE",
"200 595 LINE SMOOTH",
"200 677 OFFCURVE",
"237 687 OFFCURVE",
"243 688 CURVE",
"86 688 LINE",
"93 686 OFFCURVE",
"128 675 OFFCURVE",
"128 595 CURVE SMOOTH",
"128 320 LINE"
);
}
);
width = 506;
}
);
leftKerningGroup = B;
rightKerningGroup = L;
unicode = 0141;
userData = {
com.adobe.type.autohint = "ICA8aGludFNldExpc3Q+CiAgICA8aGludHNldCBw\012b2ludFRhZz0iaHIwMSI+CiAgICAgIDxoc3RlbSBw\012b3M9IjAiIHdpZHRoPSIzOSIgLz4KICAgICAgPGhz\012dGVtIHBvcz0iNjkyIiB3aWR0aD0iLTIwIiAvPgog\012ICAgICA8dnN0ZW0gcG9zPSIxMjgiIHdpZHRoPSI3\012MiIgLz4KICAgIDwvaGludHNldD4KICAgIDxoaW50\012c2V0IHBvaW50VGFnPSJocjAyIj4KICAgICAgPGhz\012dGVtIHBvcz0iMCIgd2lkdGg9IjQwIiAvPgogICAg\012ICA8aHN0ZW0gcG9zPSI2OTIiIHdpZHRoPSItMjAi\012IC8+CiAgICAgIDx2c3RlbSBwb3M9IjExMSIgd2lk\012dGg9Ijc2IiAvPgogICAgPC9oaW50c2V0PgogICAg\012PGhpbnRzZXQgcG9pbnRUYWc9ImhyMDMiPgogICAg\012ICA8aHN0ZW0gcG9zPSIwIiB3aWR0aD0iNDAiIC8+\012CiAgICAgIDxoc3RlbSBwb3M9IjY5MiIgd2lkdGg9\012Ii0yMCIgLz4KICAgICAgPHZzdGVtIHBvcz0iMTI4\012IiB3aWR0aD0iNzIiIC8+CiAgICA8L2hpbnRzZXQ+\012CiAgICA8aGludHNldCBwb2ludFRhZz0iaHIwNCI+\012CiAgICAgIDxoc3RlbSBwb3M9IjAiIHdpZHRoPSIz\012OSIgLz4KICAgICAgPGhzdGVtIHBvcz0iNjg4IiB3\012aWR0aD0iLTIwIiAvPgogICAgICA8dnN0ZW0gcG9z\012PSIxMTEiIHdpZHRoPSI3NiIgLz4KICAgIDwvaGlu\012dHNldD4KICAgIDxoaW50c2V0IHBvaW50VGFnPSJo\012cjA1Ij4KICAgICAgPGhzdGVtIHBvcz0iMCIgd2lk\012dGg9IjM5IiAvPgogICAgICA8aHN0ZW0gcG9zPSI2\012OTIiIHdpZHRoPSItMjAiIC8+CiAgICAgIDx2c3Rl\012bSBwb3M9IjEyOCIgd2lkdGg9IjcyIiAvPgogICAg\012PC9oaW50c2V0PgogIDwvaGludFNldExpc3Q+Cg==";
};
},
{
glyphname = lslash;
layers = (
{
hints = (
{
horizontal = 1;
origin = "{0, 13}";
type = Tag;
name = hr01;
},
{
horizontal = 1;
origin = "{0, 17}";
type = Tag;
name = hr02;
}
);
layerId = "9E0117ED-02C0-4C46-91DE-7DE1029A8F9A";
name = Regular;
paths = (
{
closed = 1;
nodes = (
"80 100 LINE SMOOTH",
"80 10 OFFCURVE",
"46 1 OFFCURVE",
"41 0 CURVE",
"183 0 LINE",
"176 1 OFFCURVE",
"144 12 OFFCURVE",
"144 100 CURVE SMOOTH",
"144 352 LINE",
"213 406 LINE",
"213 456 LINE",
"144 402 LINE",
"144 740 LINE",
"30 688 LINE",
"36 688 LINE SMOOTH",
"52 688 OFFCURVE",
"80 678 OFFCURVE",
"80 615 CURVE SMOOTH",
"80 352 LINE",
"7 296 LINE",
"7 246 LINE",
"80 302 LINE"
);
}
);
width = 224;
}
);
leftKerningGroup = h;
unicode = 0142;
userData = {
com.adobe.type.autohint = "ICA8aGludFNldExpc3Q+CiAgICA8aGludHNldCBw\012b2ludFRhZz0iaHIwMSI+CiAgICAgIDxoc3RlbSBw\012b3M9IjIxIiB3aWR0aD0iLTIxIiAvPgogICAgICA8\012aHN0ZW0gcG9zPSI2ODgiIHdpZHRoPSItMjAiIC8+\012CiAgICAgIDxoc3RlbSBwb3M9Ijc0MCIgd2lkdGg9\012Ii0yMCIgLz4KICAgICAgPHZzdGVtIHBvcz0iODIi\012IHdpZHRoPSI2NSIgLz4KICAgIDwvaGludHNldD4K\012ICAgIDxoaW50c2V0IHBvaW50VGFnPSJocjAyIj4K\012ICAgICAgPGhzdGVtIHBvcz0iMjEiIHdpZHRoPSIt\012MjEiIC8+CiAgICAgIDxoc3RlbSBwb3M9IjY4OSIg\012d2lkdGg9Ii0yMCIgLz4KICAgICAgPGhzdGVtIHBv\012cz0iNzQwIiB3aWR0aD0iLTIwIiAvPgogICAgICA8\012dnN0ZW0gcG9zPSI4MCIgd2lkdGg9IjY0IiAvPgog\012ICAgPC9oaW50c2V0PgogIDwvaGludFNldExpc3Q+\012Cg==";
};
},
{
glyphname = Thorn;
layers = (
{
hints = (
{
horizontal = 1;
origin = "{0, 3}";
type = Tag;
name = hr01;
},
{
horizontal = 1;
origin = "{0, 7}";
type = Tag;
name = hr02;
}
);
layerId = "9E0117ED-02C0-4C46-91DE-7DE1029A8F9A";
name = Regular;
paths = (
{
closed = 1;
nodes = (
"128 92 LINE SMOOTH",
"128 10 OFFCURVE",
"91 1 OFFCURVE",
"86 0 CURVE",
"243 0 LINE",
"236 1 OFFCURVE",
"200 13 OFFCURVE",
"200 92 CURVE SMOOTH",
"200 166 LINE",
"260 166 LINE SMOOTH",
"325 166 OFFCURVE",
"356 171 OFFCURVE",
"384 181 CURVE SMOOTH",
"468 210 OFFCURVE",
"516 281 OFFCURVE",
"516 367 CURVE SMOOTH",
"516 431 OFFCURVE",
"485 495 OFFCURVE",
"423 527 CURVE SMOOTH",
"392 543 OFFCURVE",
"353 553 OFFCURVE",
"281 553 CURVE SMOOTH",
"200 553 LINE",
"200 596 LINE SMOOTH",
"200 678 OFFCURVE",
"236 687 OFFCURVE",
"242 688 CURVE",
"86 688 LINE",
"93 686 OFFCURVE",
"128 675 OFFCURVE",
"128 596 CURVE SMOOTH"
);
},
{
closed = 1;
nodes = (
"439 354 CURVE SMOOTH",
"439 293 OFFCURVE",
"413 245 OFFCURVE",
"365 222 CURVE SMOOTH",
"344 212 OFFCURVE",
"319 206 OFFCURVE",
"260 206 CURVE SMOOTH",
"200 206 LINE",
"200 513 LINE",
"278 513 LINE SMOOTH",
"376 513 OFFCURVE",
"439 448 OFFCURVE"
);
}
);
width = 548;
}
);
leftKerningGroup = B;
unicode = 00DE;
userData = {
com.adobe.type.autohint = "ICA8aGludFNldExpc3Q+CiAgICA8aGludHNldCBw\012b2ludFRhZz0iaHIwMSI+CiAgICAgIDxoc3RlbSBw\012b3M9IjAiIHdpZHRoPSIxODkiIC8+CiAgICAgIDxo\012c3RlbSBwb3M9IjMwMSIgd2lkdGg9IjQwIiAvPgog\012ICAgICA8aHN0ZW0gcG9zPSI0MDYiIHdpZHRoPSI0\012MSIgLz4KICAgICAgPGhzdGVtIHBvcz0iNjQ4IiB3\012aWR0aD0iNDAiIC8+CiAgICAgIDx2c3RlbSBwb3M9\012IjExMSIgd2lkdGg9IjcyIiAvPgogICAgICA8dnN0\012ZW0gcG9zPSIzNTciIHdpZHRoPSI3NiIgLz4KICAg\012ICAgPHZzdGVtIHBvcz0iNDM5IiB3aWR0aD0iNzci\012IC8+CiAgICA8L2hpbnRzZXQ+CiAgICA8aGludHNl\012dCBwb2ludFRhZz0iaHIwMiI+CiAgICAgIDxoc3Rl\012bSBwb3M9IjIxIiB3aWR0aD0iLTIxIiAvPgogICAg\012ICA8aHN0ZW0gcG9zPSIxNDkiIHdpZHRoPSI0MCIg\012Lz4KICAgICAgPGhzdGVtIHBvcz0iMzAxIiB3aWR0\012aD0iNDAiIC8+CiAgICAgIDxoc3RlbSBwb3M9IjQw\012NiIgd2lkdGg9IjQxIiAvPgogICAgICA8aHN0ZW0g\012cG9zPSI2NDgiIHdpZHRoPSI0MCIgLz4KICAgICAg\012PHZzdGVtIHBvcz0iMTI4IiB3aWR0aD0iNzIiIC8+\012CiAgICAgIDx2c3RlbSBwb3M9IjM1NyIgd2lkdGg9\012Ijc2IiAvPgogICAgICA8dnN0ZW0gcG9zPSI0Mzki\012IHdpZHRoPSI3NyIgLz4KICAgIDwvaGludHNldD4K\012ICA8L2hpbnRTZXRMaXN0Pgo=";
};
},
{
glyphname = thorn;
layers = (
{
hints = (
{
horizontal = 1;
origin = "{0, 6}";
type = Tag;
name = hr01;
},
{
horizontal = 1;
origin = "{0, 10}";
type = Tag;
name = hr02;
},
{
horizontal = 1;
origin = "{0, 13}";
type = Tag;
name = hr03;
},
{
horizontal = 1;
origin = "{1, 0}";
type = Tag;
name = hr05;
},
{
horizontal = 1;
origin = "{1, 11}";
type = Tag;
name = hr06;
},
{
horizontal = 1;
origin = "{1, 17}";
type = Tag;
name = hr07;
},
{
horizontal = 1;
origin = "{1, 20}";
type = Tag;
name = hr08;
},
{
horizontal = 1;
origin = "{1, 23}";
type = Tag;
name = hr09;
}
);
layerId = "9E0117ED-02C0-4C46-91DE-7DE1029A8F9A";
name = Regular;
paths = (
{
closed = 1;
nodes = (
"236 24 CURVE SMOOTH",
"210 24 OFFCURVE",
"189 31 OFFCURVE",
"175 40 CURVE SMOOTH",
"153 54 OFFCURVE",
"144 80 OFFCURVE",
"144 122 CURVE SMOOTH",
"144 240 LINE SMOOTH",
"144 292 OFFCURVE",
"195 328 OFFCURVE",
"237 328 CURVE SMOOTH",
"317 328 OFFCURVE",
"352 247 OFFCURVE",
"352 172 CURVE SMOOTH",
"352 80 OFFCURVE",
"301 24 OFFCURVE"
);
},
{
closed = 1;
nodes = (
"80 -132 LINE",
"80 -229 OFFCURVE",
"40 -232 OFFCURVE",
"40 -232 CURVE",
"184 -232 LINE",
"184 -232 OFFCURVE",
"144 -230 OFFCURVE",
"144 -132 CURVE SMOOTH",
"144 15 LINE",
"148 12 OFFCURVE",
"180 -12 OFFCURVE",
"236 -12 CURVE SMOOTH",
"274 -12 OFFCURVE",
"305 -1 OFFCURVE",
"334 19 CURVE SMOOTH",
"384 54 OFFCURVE",
"424 117 OFFCURVE",
"424 202 CURVE SMOOTH",
"424 299 OFFCURVE",
"359 372 OFFCURVE",
"270 372 CURVE SMOOTH",
"190 372 OFFCURVE",
"151 319 OFFCURVE",
"144 307 CURVE",
"144 740 LINE",
"30 688 LINE",
"36 688 LINE SMOOTH",
"52 688 OFFCURVE",
"80 678 OFFCURVE",
"80 615 CURVE SMOOTH"
);
}
);
width = 464;
}
);
leftKerningGroup = h;
rightKerningGroup = b;
unicode = 00FE;
userData = {
com.adobe.type.autohint = "ICA8aGludFNldExpc3Q+CiAgICA8aGludHNldCBw\012b2ludFRhZz0iaHIwMSI+CiAgICAgIDxoc3RlbSBw\012b3M9Ii0yMTEiIHdpZHRoPSItMjEiIC8+CiAgICAg\012IDxoc3RlbSBwb3M9IjIxIiB3aWR0aD0iLTIxIiAv\012PgogICAgICA8aHN0ZW0gcG9zPSIzMjMiIHdpZHRo\012PSI0NiIgLz4KICAgICAgPGhzdGVtIHBvcz0iNjMx\012IiB3aWR0aD0iLTIwIiAvPgogICAgICA8aHN0ZW0g\012cG9zPSI2ODgiIHdpZHRoPSItMjAiIC8+CiAgICAg\012IDxoc3RlbSBwb3M9Ijc0MCIgd2lkdGg9Ii0yMCIg\012Lz4KICAgICAgPHZzdGVtIHBvcz0iODAiIHdpZHRo\012PSI2NCIgLz4KICAgICAgPHZzdGVtIHBvcz0iMzMx\012IiB3aWR0aD0iNjYiIC8+CiAgICA8L2hpbnRzZXQ+\012CiAgICA8aGludHNldCBwb2ludFRhZz0iaHIwMiI+\012CiAgICAgIDxoc3RlbSBwb3M9Ii0yMTEiIHdpZHRo\012PSItMjEiIC8+CiAgICAgIDxoc3RlbSBwb3M9IjIx\012IiB3aWR0aD0iLTIxIiAvPgogICAgICA8aHN0ZW0g\012cG9zPSIzMjgiIHdpZHRoPSI0NCIgLz4KICAgICAg\012PGhzdGVtIHBvcz0iNjMxIiB3aWR0aD0iLTIwIiAv\012PgogICAgICA8aHN0ZW0gcG9zPSI2ODgiIHdpZHRo\012PSItMjAiIC8+CiAgICAgIDxoc3RlbSBwb3M9Ijc0\012MCIgd2lkdGg9Ii0yMCIgLz4KICAgICAgPHZzdGVt\012IHBvcz0iOTEiIHdpZHRoPSI2NSIgLz4KICAgICAg\012PHZzdGVtIHBvcz0iMzMxIiB3aWR0aD0iNjYiIC8+\012CiAgICA8L2hpbnRzZXQ+CiAgICA8aGludHNldCBw\012b2ludFRhZz0iaHIwMyI+CiAgICAgIDxoc3RlbSBw\012b3M9Ii0yMTEiIHdpZHRoPSItMjEiIC8+CiAgICAg\012IDxoc3RlbSBwb3M9IjIxIiB3aWR0aD0iLTIxIiAv\012PgogICAgICA8aHN0ZW0gcG9zPSIzMjMiIHdpZHRo\012PSI0NiIgLz4KICAgICAgPGhzdGVtIHBvcz0iNjMx\012IiB3aWR0aD0iLTIwIiAvPgogICAgICA8aHN0ZW0g\012cG9zPSI2ODgiIHdpZHRoPSItMjAiIC8+CiAgICAg\012IDxoc3RlbSBwb3M9Ijc0MCIgd2lkdGg9Ii0yMCIg\012Lz4KICAgICAgPHZzdGVtIHBvcz0iOTEiIHdpZHRo\012PSI2NSIgLz4KICAgICAgPHZzdGVtIHBvcz0iMzUy\012IiB3aWR0aD0iNzIiIC8+CiAgICA8L2hpbnRzZXQ+\012CiAgICA8aGludHNldCBwb2ludFRhZz0iaHIwNCI+\012CiAgICAgIDxoc3RlbSBwb3M9Ii0yMTEiIHdpZHRo\012PSItMjEiIC8+CiAgICAgIDxoc3RlbSBwb3M9Ii0x\012MzgiIHdpZHRoPSIxNjIiIC8+CiAgICAgIDxoc3Rl\012bSBwb3M9IjMyMyIgd2lkdGg9IjQ2IiAvPgogICAg\012ICA8aHN0ZW0gcG9zPSI2MzEiIHdpZHRoPSItMjAi\012IC8+CiAgICAgIDxoc3RlbSBwb3M9IjY4OCIgd2lk\012dGg9Ii0yMCIgLz4KICAgICAgPGhzdGVtIHBvcz0i\012NzQwIiB3aWR0aD0iLTIwIiAvPgogICAgICA8dnN0\012ZW0gcG9zPSI5MSIgd2lkdGg9IjY1IiAvPgogICAg\012ICA8dnN0ZW0gcG9zPSIzMzEiIHdpZHRoPSI2NiIg\012Lz4KICAgIDwvaGludHNldD4KICAgIDxoaW50c2V0\012IHBvaW50VGFnPSJocjA1Ij4KICAgICAgPGhzdGVt\012IHBvcz0iLTIxMSIgd2lkdGg9Ii0yMSIgLz4KICAg\012ICAgPGhzdGVtIHBvcz0iMjEiIHdpZHRoPSItMjEi\012IC8+CiAgICAgIDxoc3RlbSBwb3M9IjMyMyIgd2lk\012dGg9IjQ2IiAvPgogICAgICA8aHN0ZW0gcG9zPSI2\012MzEiIHdpZHRoPSItMjAiIC8+CiAgICAgIDxoc3Rl\012bSBwb3M9IjY4OCIgd2lkdGg9Ii0yMCIgLz4KICAg\012ICAgPGhzdGVtIHBvcz0iNzQwIiB3aWR0aD0iLTIw\012IiAvPgogICAgICA8dnN0ZW0gcG9zPSI4MCIgd2lk\012dGg9IjY0IiAvPgogICAgICA8dnN0ZW0gcG9zPSIz\012MzEiIHdpZHRoPSI2NiIgLz4KICAgIDwvaGludHNl\012dD4KICAgIDxoaW50c2V0IHBvaW50VGFnPSJocjA2\012Ij4KICAgICAgPGhzdGVtIHBvcz0iLTIxMSIgd2lk\012dGg9Ii0yMSIgLz4KICAgICAgPGhzdGVtIHBvcz0i\012LTEyIiB3aWR0aD0iMzYiIC8+CiAgICAgIDxoc3Rl\012bSBwb3M9IjMyMyIgd2lkdGg9IjQ2IiAvPgogICAg\012ICA8aHN0ZW0gcG9zPSI2MzEiIHdpZHRoPSItMjAi\012IC8+CiAgICAgIDxoc3RlbSBwb3M9IjY4OCIgd2lk\012dGg9Ii0yMCIgLz4KICAgICAgPGhzdGVtIHBvcz0i\012NzQwIiB3aWR0aD0iLTIwIiAvPgogICAgICA8dnN0\012ZW0gcG9zPSI5MSIgd2lkdGg9IjY1IiAvPgogICAg\012ICA8dnN0ZW0gcG9zPSIzMzEiIHdpZHRoPSI2NiIg\012Lz4KICAgIDwvaGludHNldD4KICAgIDxoaW50c2V0\012IHBvaW50VGFnPSJocjA3Ij4KICAgICAgPGhzdGVt\012IHBvcz0iLTIxMSIgd2lkdGg9Ii0yMSIgLz4KICAg\012ICAgPGhzdGVtIHBvcz0iMjEiIHdpZHRoPSItMjEi\012IC8+CiAgICAgIDxoc3RlbSBwb3M9IjMyMyIgd2lk\012dGg9IjQ2IiAvPgogICAgICA8aHN0ZW0gcG9zPSI2\012MzEiIHdpZHRoPSItMjAiIC8+CiAgICAgIDxoc3Rl\012bSBwb3M9IjY4OCIgd2lkdGg9Ii0yMCIgLz4KICAg\012ICAgPGhzdGVtIHBvcz0iNzQwIiB3aWR0aD0iLTIw\012IiAvPgogICAgICA8dnN0ZW0gcG9zPSI5MSIgd2lk\012dGg9IjY1IiAvPgogICAgICA8dnN0ZW0gcG9zPSIz\012NTIiIHdpZHRoPSI3MiIgLz4KICAgIDwvaGludHNl\012dD4KICAgIDxoaW50c2V0IHBvaW50VGFnPSJocjA4\012Ij4KICAgICAgPGhzdGVtIHBvcz0iLTIxMSIgd2lk\012dGg9Ii0yMSIgLz4KICAgICAgPGhzdGVtIHBvcz0i\012MjEiIHdpZHRoPSItMjEiIC8+CiAgICAgIDxoc3Rl\012bSBwb3M9IjMyOCIgd2lkdGg9IjQ0IiAvPgogICAg\012ICA8aHN0ZW0gcG9zPSI2MzEiIHdpZHRoPSItMjAi\012IC8+CiAgICAgIDxoc3RlbSBwb3M9IjY4OCIgd2lk\012dGg9Ii0yMCIgLz4KICAgICAgPGhzdGVtIHBvcz0i\012NzQwIiB3aWR0aD0iLTIwIiAvPgogICAgICA8dnN0\012ZW0gcG9zPSI5MSIgd2lkdGg9IjY1IiAvPgogICAg\012ICA8dnN0ZW0gcG9zPSIzMzEiIHdpZHRoPSI2NiIg\012Lz4KICAgIDwvaGludHNldD4KICAgIDxoaW50c2V0\012IHBvaW50VGFnPSJocjA5Ij4KICAgICAgPGhzdGVt\012IHBvcz0iLTIxMSIgd2lkdGg9Ii0yMSIgLz4KICAg\012ICAgPGhzdGVtIHBvcz0iMjEiIHdpZHRoPSItMjEi\012IC8+CiAgICAgIDxoc3RlbSBwb3M9IjMyMyIgd2lk\012dGg9IjQ2IiAvPgogICAgICA8aHN0ZW0gcG9zPSI2\012MzEiIHdpZHRoPSItMjAiIC8+CiAgICAgIDxoc3Rl\012bSBwb3M9IjY4OCIgd2lkdGg9Ii0yMCIgLz4KICAg\012ICAgPGhzdGVtIHBvcz0iNzQwIiB3aWR0aD0iLTIw\012IiAvPgogICAgICA8dnN0ZW0gcG9zPSI4MCIgd2lk\012dGg9IjY0IiAvPgogICAgICA8dnN0ZW0gcG9zPSIz\012MzEiIHdpZHRoPSI2NiIgLz4KICAgIDwvaGludHNl\012dD4KICA8L2hpbnRTZXRMaXN0Pgo=";
};
},
{
glyphname = onequarter;
layers = (
{
components = (
{
name = fraction;
transform = "{1, 0, 0, 1, 272, 0}";
},
{
name = onesuperior;
transform = "{1, 0, 0, 1, 48, 0}";
}
);
hints = (
{
horizontal = 1;
origin = "{0, 0}";
type = Tag;
name = hr00;
}
);
layerId = "9E0117ED-02C0-4C46-91DE-7DE1029A8F9A";
name = Regular;
paths = (
{
closed = 1;
nodes = (
"402 136 LINE",
"504 280 LINE",
"504 136 LINE"
);
},
{
closed = 1;
nodes = (
"504 56 LINE",
"504 16 OFFCURVE",
"482 4 OFFCURVE",
"474 0 CURVE",
"582 0 LINE",
"574 4 OFFCURVE",
"552 16 OFFCURVE",
"552 56 CURVE",
"552 103 LINE",
"605 103 LINE",
"605 136 LINE",
"552 136 LINE",
"552 401 LINE",
"338 103 LINE",
"504 103 LINE"
);
}
);
width = 672;
}
);
unicode = 00BC;
userData = {
com.adobe.type.autohint = "ICA8aGludFNldExpc3Q+CiAgICA8aGludHNldCBw\012b2ludFRhZz0iaHIwMCI+CiAgICAgIDxoc3RlbSBw\012b3M9Ii0xMDQiIHdpZHRoPSItMjEiIC8+CiAgICAg\012IDxoc3RlbSBwb3M9Ii00IiB3aWR0aD0iNDIiIC8+\012CiAgICAgIDxoc3RlbSBwb3M9Ii00IiB3aWR0aD0i\012MTkiIC8+CiAgICAgIDxoc3RlbSBwb3M9IjkzIiB3\012aWR0aD0iMzMiIC8+CiAgICAgIDxoc3RlbSBwb3M9\012IjM0MiIgd2lkdGg9IjI2IiAvPgogICAgICA8aHN0\012ZW0gcG9zPSIzNTQiIHdpZHRoPSIxOCIgLz4KICAg\012ICAgPGhzdGVtIHBvcz0iNDE4IiB3aWR0aD0iLTIx\012IiAvPgogICAgICA8aHN0ZW0gcG9zPSI1MjIiIHdp\012ZHRoPSItMjAiIC8+CiAgICAgIDxoc3RlbSBwb3M9\012IjY5OSIgd2lkdGg9Ii0yMCIgLz4KICAgICAgPGhz\012dGVtIHBvcz0iNjgxIiB3aWR0aD0iMjYiIC8+CiAg\012ICAgIDx2c3RlbSBwb3M9IjExNyIgd2lkdGg9IjY2\012IiAvPgogICAgICA8dnN0ZW0gcG9zPSIxMzkiIHdp\012ZHRoPSI2MCIgLz4KICAgICAgPHZzdGVtIHBvcz0i\012MTgwIiB3aWR0aD0iODAiIC8+CiAgICAgIDx2c3Rl\012bSBwb3M9IjQ2OCIgd2lkdGg9IjY0IiAvPgogICAg\012ICA8dnN0ZW0gcG9zPSI1MjkiIHdpZHRoPSI0OCIg\012Lz4KICAgIDwvaGludHNldD4KICA8L2hpbnRTZXRM\012aXN0Pgo=";
};
},
{
glyphname = onesuperior;
layers = (
{
hints = (
{
horizontal = 1;
origin = "{0, 0}";
type = Tag;
name = hr00;
}
);
layerId = "9E0117ED-02C0-4C46-91DE-7DE1029A8F9A";
name = Regular;
paths = (
{
closed = 1;
nodes = (
"156 350 LINE",
"148 354 OFFCURVE",
"126 366 OFFCURVE",
"126 406 CURVE",
"126 709 LINE",
"28 662 LINE",
"28 653 LINE",
"41 653 OFFCURVE",
"66 655 OFFCURVE",
"80 655 CURVE",
"80 406 LINE",
"80 366 OFFCURVE",
"58 354 OFFCURVE",
"50 350 CURVE"
);
}
);
width = 312;
}
);
unicode = 00B9;
userData = {
com.adobe.type.autohint = "ICA8aGludFNldExpc3Q+CiAgICA8aGludHNldCBw\012b2ludFRhZz0iaHIwMCI+CiAgICAgIDxoc3RlbSBw\012b3M9IjM0NiIgd2lkdGg9IjE4IiAvPgogICAgICA8\012aHN0ZW0gcG9zPSI0MjIiIHdpZHRoPSItMjEiIC8+\012CiAgICAgIDxoc3RlbSBwb3M9IjY5NSIgd2lkdGg9\012Ii0yMCIgLz4KICAgICAgPGhzdGVtIHBvcz0iNjg1\012IiB3aWR0aD0iMTgiIC8+CiAgICAgIDx2c3RlbSBw\012b3M9Ijc2IiB3aWR0aD0iNDYiIC8+CiAgICAgIDx2\012c3RlbSBwb3M9IjExNyIgd2lkdGg9IjY2IiAvPgog\012ICAgPC9oaW50c2V0PgogIDwvaGludFNldExpc3Q+\012Cg==";
};
},
{
glyphname = threequarters;
layers = (
{
components = (
{
name = threesuperior;
},
{
name = fraction;
transform = "{1, 0, 0, 1, 272, 0}";
}
);
hints = (
{
horizontal = 1;
origin = "{0, 0}";
type = Tag;
name = hr00;
}
);
layerId = "9E0117ED-02C0-4C46-91DE-7DE1029A8F9A";
name = Regular;
paths = (
{
closed = 1;
nodes = (
"402 136 LINE",
"504 278 LINE",
"504 136 LINE"
);
},
{
closed = 1;
nodes = (
"504 56 LINE",
"504 16 OFFCURVE",
"482 4 OFFCURVE",
"474 0 CURVE",
"582 0 LINE",
"574 4 OFFCURVE",
"552 16 OFFCURVE",
"552 56 CURVE",
"552 103 LINE",
"605 103 LINE",
"605 136 LINE",
"552 136 LINE",
"552 399 LINE",
"345 103 LINE",
"504 103 LINE"
);
}
);
width = 672;
}
);
unicode = 00BE;
userData = {
com.adobe.type.autohint = "ICA8aGludFNldExpc3Q+CiAgICA8aGludHNldCBw\012b2ludFRhZz0iaHIwMCI+CiAgICAgIDxoc3RlbSBw\012b3M9Ii0xMDQiIHdpZHRoPSItMjEiIC8+CiAgICAg\012IDxoc3RlbSBwb3M9Ii00IiB3aWR0aD0iNDIiIC8+\012CiAgICAgIDxoc3RlbSBwb3M9Ii00IiB3aWR0aD0i\012MTkiIC8+CiAgICAgIDxoc3RlbSBwb3M9IjkzIiB3\012aWR0aD0iMzMiIC8+CiAgICAgIDxoc3RlbSBwb3M9\012IjM0MiIgd2lkdGg9IjI2IiAvPgogICAgICA8aHN0\012ZW0gcG9zPSIzNTQiIHdpZHRoPSIxOCIgLz4KICAg\012ICAgPGhzdGVtIHBvcz0iNDE4IiB3aWR0aD0iLTIx\012IiAvPgogICAgICA8aHN0ZW0gcG9zPSI1MjIiIHdp\012ZHRoPSItMjAiIC8+CiAgICAgIDxoc3RlbSBwb3M9\012IjY5OSIgd2lkdGg9Ii0yMCIgLz4KICAgICAgPGhz\012dGVtIHBvcz0iNjgxIiB3aWR0aD0iMjYiIC8+CiAg\012ICAgIDx2c3RlbSBwb3M9IjExNyIgd2lkdGg9IjY2\012IiAvPgogICAgICA8dnN0ZW0gcG9zPSIxMzkiIHdp\012ZHRoPSI2MCIgLz4KICAgICAgPHZzdGVtIHBvcz0i\012MTgwIiB3aWR0aD0iODAiIC8+CiAgICAgIDx2c3Rl\012bSBwb3M9IjQ2OCIgd2lkdGg9IjY0IiAvPgogICAg\012ICA8dnN0ZW0gcG9zPSI1MjkiIHdpZHRoPSI0OCIg\012Lz4KICAgIDwvaGludHNldD4KICA8L2hpbnRTZXRM\012aXN0Pgo=";
};
},
{
glyphname = threesuperior;
layers = (
{
hints = (
{
horizontal = 1;
origin = "{0, 5}";
type = Tag;
name = hr01;
}
);
layerId = "9E0117ED-02C0-4C46-91DE-7DE1029A8F9A";
name = Regular;
paths = (
{
closed = 1;
nodes = (
"114 529 CURVE",
"114 516 LINE",
"127 516 LINE SMOOTH",
"168 516 OFFCURVE",
"206 493 OFFCURVE",
"206 444 CURVE SMOOTH",
"206 403 OFFCURVE",
"180 374 OFFCURVE",
"134 374 CURVE SMOOTH",
"100 374 OFFCURVE",
"65 390 OFFCURVE",
"44 422 CURVE",
"44 371 LINE",
"62 359 OFFCURVE",
"94 345 OFFCURVE",
"135 345 CURVE SMOOTH",
"208 345 OFFCURVE",
"256 390 OFFCURVE",
"256 454 CURVE SMOOTH",
"256 493 OFFCURVE",
"230 530 OFFCURVE",
"179 543 CURVE",
"215 562 OFFCURVE",
"233 595 OFFCURVE",
"233 621 CURVE SMOOTH",
"233 670 OFFCURVE",
"188 700 OFFCURVE",
"141 700 CURVE SMOOTH",
"94 700 OFFCURVE",
"58 668 OFFCURVE",
"58 629 CURVE SMOOTH",
"58 614 OFFCURVE",
"63 598 OFFCURVE",
"74 583 CURVE",
"74 630 OFFCURVE",
"99 663 OFFCURVE",
"136 663 CURVE SMOOTH",
"166 663 OFFCURVE",
"190 638 OFFCURVE",
"190 607 CURVE SMOOTH",
"190 567 OFFCURVE",
"153 539 OFFCURVE"
);
}
);
width = 304;
}
);
unicode = 00B3;
userData = {
com.adobe.type.autohint = "ICA8aGludFNldExpc3Q+CiAgICA8aGludHNldCBw\012b2ludFRhZz0iaHIwMSI+CiAgICAgIDxoc3RlbSBw\012b3M9IjM1MyIgd2lkdGg9IjM3IiAvPgogICAgICA8\012aHN0ZW0gcG9zPSI1MDgiIHdpZHRoPSI0MCIgLz4K\012ICAgICAgPGhzdGVtIHBvcz0iNjcyIiB3aWR0aD0i\012MzUiIC8+CiAgICAgIDx2c3RlbSBwb3M9IjIwNiIg\012d2lkdGg9IjUwIiAvPgogICAgPC9oaW50c2V0Pgog\012IDwvaGludFNldExpc3Q+Cg==";
};
},
{
glyphname = twosuperior;
layers = (
{
hints = (
{
horizontal = 1;
origin = "{0, 0}";
type = Tag;
name = hr00;
}
);
layerId = "9E0117ED-02C0-4C46-91DE-7DE1029A8F9A";
name = Regular;
paths = (
{
closed = 1;
nodes = (
"253 350 LINE",
"267 415 LINE",
"254 407 OFFCURVE",
"233 387 OFFCURVE",
"198 387 CURVE",
"103 387 LINE",
"111 397 LINE",
"154 445 OFFCURVE",
"185 476 OFFCURVE",
"205 505 CURVE SMOOTH",
"230 539 OFFCURVE",
"243 573 OFFCURVE",
"243 603 CURVE SMOOTH",
"243 663 OFFCURVE",
"197 700 OFFCURVE",
"144 700 CURVE SMOOTH",
"80 700 OFFCURVE",
"53 658 OFFCURVE",
"53 620 CURVE SMOOTH",
"53 602 OFFCURVE",
"59 585 OFFCURVE",
"70 573 CURVE",
"70 629 OFFCURVE",
"97 663 OFFCURVE",
"137 663 CURVE SMOOTH",
"165 663 OFFCURVE",
"194 641 OFFCURVE",
"194 594 CURVE SMOOTH",
"194 566 OFFCURVE",
"185 543 OFFCURVE",
"170 516 CURVE SMOOTH",
"152 488 OFFCURVE",
"124 453 OFFCURVE",
"81 403 CURVE",
"37 350 LINE"
);
}
);
width = 304;
}
);
unicode = 00B2;
userData = {
com.adobe.type.autohint = "ICA8aGludFNldExpc3Q+CiAgICA8aGludHNldCBw\012b2ludFRhZz0iaHIwMCI+CiAgICAgIDxoc3RlbSBw\012b3M9IjM0MyIgd2lkdGg9IjM4IiAvPgogICAgICA8\012aHN0ZW0gcG9zPSI0MDEiIHdpZHRoPSI1MCIgLz4K\012ICAgICAgPGhzdGVtIHBvcz0iNjY2IiB3aWR0aD0i\012MzgiIC8+CiAgICAgIDxoc3RlbSBwb3M9IjY2OSIg\012d2lkdGg9IjM4IiAvPgogICAgICA8dnN0ZW0gcG9z\012PSI1NiIgd2lkdGg9IjU0IiAvPgogICAgICA8dnN0\012ZW0gcG9zPSIxOTAiIHdpZHRoPSI1MCIgLz4KICAg\012ICAgPHZzdGVtIHBvcz0iMjE0IiB3aWR0aD0iNzEi\012IC8+CiAgICA8L2hpbnRzZXQ+CiAgPC9oaW50U2V0\012TGlzdD4K";
};
},
{
glyphname = brokenbar;
layers = (
{
hints = (
{
horizontal = 1;
origin = "{0, 0}";
type = Tag;
name = hr00;
}
);
layerId = "9E0117ED-02C0-4C46-91DE-7DE1029A8F9A";
name = Regular;
paths = (
{
closed = 1;
nodes = (
"128 381 LINE",
"128 727 LINE",
"80 727 LINE",
"80 381 LINE"
);
},
{
closed = 1;
nodes = (
"128 -232 LINE",
"128 114 LINE",
"80 114 LINE",
"80 -232 LINE"
);
}
);
width = 208;
}
);
unicode = 00A6;
userData = {
com.adobe.type.autohint = "ICA8aGludFNldExpc3Q+CiAgICA8aGludHNldCBw\012b2ludFRhZz0iaHIwMCI+CiAgICAgIDxoc3RlbSBw\012b3M9Ii0xOTMiIHdpZHRoPSItMjEiIC8+CiAgICAg\012IDxoc3RlbSBwb3M9IjcyNiIgd2lkdGg9Ii0yMCIg\012Lz4KICAgICAgPHZzdGVtIHBvcz0iODkiIHdpZHRo\012PSI0MSIgLz4KICAgIDwvaGludHNldD4KICA8L2hp\012bnRTZXRMaXN0Pgo=";
};
},
{
color = (153,155,255,1);
glyphname = multiply;
layers = (
{
hints = (
{
horizontal = 1;
origin = "{0, 0}";
type = Tag;
name = hr00;
}
);
layerId = "9E0117ED-02C0-4C46-91DE-7DE1029A8F9A";
name = Regular;
paths = (
{
closed = 1;
nodes = (
"491 40 LINE",
"318 213 LINE",
"491 388 LINE",
"453 426 LINE",
"280 251 LINE",
"106 426 LINE",
"69 389 LINE",
"242 214 LINE",
"69 41 LINE",
"107 2 LINE",
"280 176 LINE",
"453 2 LINE"
);
}
);
width = 560;
}
);
unicode = 00D7;
userData = {
com.adobe.type.autohint = "ICA8aGludFNldExpc3Q+CiAgICA8aGludHNldCBw\012b2ludFRhZz0iaHIwMCI+CiAgICAgIDxoc3RlbSBw\012b3M9IjIzIiB3aWR0aD0iLTIxIiAvPgogICAgICA8\012aHN0ZW0gcG9zPSI0MjYiIHdpZHRoPSItMjAiIC8+\012CiAgICA8L2hpbnRzZXQ+CiAgPC9oaW50U2V0TGlz\012dD4K";
com.typemytype.robofont.mark = (
0.6,
0.609,
1,
1
);
};
},
{
glyphname = exclam;
layers = (
{
hints = (
{
horizontal = 1;
origin = "{0, 0}";
type = Tag;
name = hr00;
}
);
layerId = "9E0117ED-02C0-4C46-91DE-7DE1029A8F9A";
name = Regular;
paths = (
{
closed = 1;
nodes = (
"209 688 CURVE",
"109 688 LINE",
"109 688 OFFCURVE",
"128 688 OFFCURVE",
"128 592 CURVE SMOOTH",
"128 355 LINE SMOOTH",
"128 294 OFFCURVE",
"131 271 OFFCURVE",
"136 248 CURVE SMOOTH",
"145 200 OFFCURVE",
"160 153 OFFCURVE",
"160 153 CURVE",
"160 153 OFFCURVE",
"176 200 OFFCURVE",
"185 249 CURVE SMOOTH",
"189 271 OFFCURVE",
"192 293 OFFCURVE",
"192 354 CURVE SMOOTH",
"192 592 LINE SMOOTH",
"192 689 OFFCURVE",
"209 688 OFFCURVE"
);
},
{
closed = 1;
nodes = (
"210 40 CURVE SMOOTH",
"210 65 OFFCURVE",
"194 90 OFFCURVE",
"161 90 CURVE SMOOTH",
"128 90 OFFCURVE",
"113 65 OFFCURVE",
"113 40 CURVE SMOOTH",
"113 15 OFFCURVE",
"128 -11 OFFCURVE",
"161 -11 CURVE SMOOTH",
"194 -11 OFFCURVE",
"210 15 OFFCURVE"
);
}
);
width = 304;
}
);
unicode = 0021;
userData = {
com.adobe.type.autohint = "ICA8aGludFNldExpc3Q+CiAgICA8aGludHNldCBw\012b2ludFRhZz0iaHIwMCI+CiAgICAgIDxoc3RlbSBw\012b3M9Ii0xMSIgd2lkdGg9IjEwMSIgLz4KICAgICAg\012PGhzdGVtIHBvcz0iNjkyIiB3aWR0aD0iLTIwIiAv\012PgogICAgICA8dnN0ZW0gcG9zPSI5NyIgd2lkdGg9\012IjcwIiAvPgogICAgICA8dnN0ZW0gcG9zPSI5NyIg\012d2lkdGg9Ijg2IiAvPgogICAgPC9oaW50c2V0Pgog\012IDwvaGludFNldExpc3Q+Cg==";
};
},
{
glyphname = quotedbl;
layers = (
{
hints = (
{
horizontal = 1;
origin = "{0, 0}";
type = Tag;
name = hr00;
}
);
layerId = "9E0117ED-02C0-4C46-91DE-7DE1029A8F9A";
name = Regular;
paths = (
{
closed = 1;
nodes = (
"348 554 CURVE",
"348 688 LINE",
"283 688 LINE",
"283 554 LINE SMOOTH",
"283 457 OFFCURVE",
"315 378 OFFCURVE",
"315 378 CURVE",
"315 378 OFFCURVE",
"348 457 OFFCURVE"
);
},
{
closed = 1;
nodes = (
"164 554 CURVE",
"164 688 LINE",
"100 688 LINE",
"100 554 LINE SMOOTH",
"100 457 OFFCURVE",
"132 377 OFFCURVE",
"132 377 CURVE",
"132 377 OFFCURVE",
"164 457 OFFCURVE"
);
}
);
width = 448;
}
);
leftKerningGroup = quotesingle;
rightKerningGroup = quotesingle;
unicode = 0022;
userData = {
com.adobe.type.autohint = "ICA8aGludFNldExpc3Q+CiAgICA8aGludHNldCBw\012b2ludFRhZz0iaHIwMCI+CiAgICAgIDxoc3RlbSBw\012b3M9IjM5OCIgd2lkdGg9Ii0yMSIgLz4KICAgICAg\012PGhzdGVtIHBvcz0iNjkyIiB3aWR0aD0iLTIwIiAv\012PgogICAgICA8dnN0ZW0gcG9zPSIxMjIiIHdpZHRo\012PSI2MCIgLz4KICAgICAgPHZzdGVtIHBvcz0iMjM5\012IiB3aWR0aD0iNjEiIC8+CiAgICA8L2hpbnRzZXQ+\012CiAgPC9oaW50U2V0TGlzdD4K";
};
},
{
glyphname = numbersign;
layers = (
{
hints = (
{
horizontal = 1;
origin = "{0, 17}";
type = Tag;
name = hr01;
},
{
horizontal = 1;
origin = "{0, 19}";
type = Tag;
name = hr02;
},
{
horizontal = 1;
origin = "{0, 21}";
type = Tag;
name = hr03;
},
{
horizontal = 1;
origin = "{0, 23}";
type = Tag;
name = hr04;
}
);
layerId = "9E0117ED-02C0-4C46-91DE-7DE1029A8F9A";
name = Regular;
paths = (
{
closed = 1;
nodes = (
"456 324 LINE",
"456 364 LINE",
"385 364 LINE",
"413 506 LINE",
"368 506 LINE",
"339 364 LINE",
"208 364 LINE",
"236 506 LINE",
"190 506 LINE",
"162 364 LINE",
"74 364 LINE",
"74 324 LINE",
"154 324 LINE",
"128 194 LINE",
"46 194 LINE",
"46 154 LINE",
"120 154 LINE",
"89 0 LINE",
"135 0 LINE",
"166 154 LINE",
"297 154 LINE",
"266 0 LINE",
"312 0 LINE",
"343 154 LINE",
"430 154 LINE",
"430 194 LINE",
"351 194 LINE",
"377 324 LINE"
);
},
{
closed = 1;
nodes = (
"331 324 LINE",
"305 194 LINE",
"174 194 LINE",
"200 324 LINE"
);
}
);
width = 484;
}
);
unicode = 0023;
userData = {
com.adobe.type.autohint = "ICA8aGludFNldExpc3Q+CiAgICA8aGludHNldCBw\012b2ludFRhZz0iaHIwMSI+CiAgICAgIDxoc3RlbSBw\012b3M9IjAiIHdpZHRoPSIxOTUiIC8+CiAgICAgIDxo\012c3RlbSBwb3M9IjMyMyIgd2lkdGg9IjQyIiAvPgog\012ICAgPC9oaW50c2V0PgogICAgPGhpbnRzZXQgcG9p\012bnRUYWc9ImhyMDIiPgogICAgICA8aHN0ZW0gcG9z\012PSIxNTQiIHdpZHRoPSI0MSIgLz4KICAgICAgPGhz\012dGVtIHBvcz0iMzIzIiB3aWR0aD0iNDIiIC8+CiAg\012ICA8L2hpbnRzZXQ+CiAgICA8aGludHNldCBwb2lu\012dFRhZz0iaHIwMyI+CiAgICAgIDxoc3RlbSBwb3M9\012IjAiIHdpZHRoPSIxOTUiIC8+CiAgICAgIDxoc3Rl\012bSBwb3M9IjMyMyIgd2lkdGg9IjQyIiAvPgogICAg\012PC9oaW50c2V0PgogICAgPGhpbnRzZXQgcG9pbnRU\012YWc9ImhyMDQiPgogICAgICA8aHN0ZW0gcG9zPSIx\012NTQiIHdpZHRoPSI0MSIgLz4KICAgICAgPGhzdGVt\012IHBvcz0iMzIzIiB3aWR0aD0iNDIiIC8+CiAgICA8\012L2hpbnRzZXQ+CiAgPC9oaW50U2V0TGlzdD4K";
};
},
{
glyphname = dollar;
layers = (
{
hints = (
{
horizontal = 1;
origin = "{0, 0}";
type = Tag;
name = hr00;
}
);
layerId = "9E0117ED-02C0-4C46-91DE-7DE1029A8F9A";
name = Regular;
paths = (
{
closed = 1;
nodes = (
"435 177 CURVE SMOOTH",
"435 297 OFFCURVE",
"346 342 OFFCURVE",
"264 383 CURVE",
"264 652 LINE",
"313 645 OFFCURVE",
"365 610 OFFCURVE",
"397 531 CURVE",
"397 649 LINE",
"362 676 OFFCURVE",
"314 691 OFFCURVE",
"264 693 CURVE",
"264 714 OFFCURVE",
"268 791 OFFCURVE",
"268 791 CURVE",
"222 791 LINE",
"222 791 OFFCURVE",
"225 718 OFFCURVE",
"225 692 CURVE",
"142 683 OFFCURVE",
"72 621 OFFCURVE",
"72 514 CURVE SMOOTH",
"72 405 OFFCURVE",
"148 365 OFFCURVE",
"225 327 CURVE",
"225 35 LINE",
"164 42 OFFCURVE",
"101 85 OFFCURVE",
"69 180 CURVE",
"69 49 LINE",
"110 16 OFFCURVE",
"165 -3 OFFCURVE",
"225 -6 CURVE",
"225 -32 OFFCURVE",
"222 -106 OFFCURVE",
"222 -106 CURVE",
"268 -106 LINE",
"268 -106 OFFCURVE",
"264 -33 OFFCURVE",
"264 -4 CURVE",
"353 5 OFFCURVE",
"435 65 OFFCURVE"
);
},
{
closed = 1;
nodes = (
"376 158 CURVE SMOOTH",
"376 90 OFFCURVE",
"324 44 OFFCURVE",
"264 35 CURVE",
"264 308 LINE",
"324 276 OFFCURVE",
"376 238 OFFCURVE"
);
},
{
closed = 1;
nodes = (
"123 530 CURVE SMOOTH",
"123 600 OFFCURVE",
"168 645 OFFCURVE",
"225 652 CURVE",
"225 402 LINE",
"168 432 OFFCURVE",
"123 466 OFFCURVE"
);
}
);
width = 504;
}
);
unicode = 0024;
userData = {
com.adobe.type.autohint = "ICA8aGludFNldExpc3Q+CiAgICA8aGludHNldCBw\012b2ludFRhZz0iaHIwMCI+CiAgICAgIDxoc3RlbSBw\012b3M9Ii04OCIgd2lkdGg9Ii0yMSIgLz4KICAgICAg\012PGhzdGVtIHBvcz0iLTEyIiB3aWR0aD0iNDAiIC8+\012CiAgICAgIDxoc3RlbSBwb3M9IjU4MyIgd2lkdGg9\012Ii0yMCIgLz4KICAgICAgPGhzdGVtIHBvcz0iNjYw\012IiB3aWR0aD0iNDAiIC8+CiAgICAgIDx2c3RlbSBw\012b3M9IjY0IiB3aWR0aD0iNDciIC8+CiAgICAgIDx2\012c3RlbSBwb3M9IjgwIiB3aWR0aD0iNjEiIC8+CiAg\012ICAgIDx2c3RlbSBwb3M9IjE4NyIgd2lkdGg9IjM5\012IiAvPgogICAgICA8dnN0ZW0gcG9zPSIxODciIHdp\012ZHRoPSIxNDciIC8+CiAgICAgIDx2c3RlbSBwb3M9\012IjMwOCIgd2lkdGg9IjQ5IiAvPgogICAgICA8dnN0\012ZW0gcG9zPSI0MDkiIHdpZHRoPSIyNiIgLz4KICAg\012ICAgPHZzdGVtIHBvcz0iNDA5IiB3aWR0aD0iNzAi\012IC8+CiAgICA8L2hpbnRzZXQ+CiAgPC9oaW50U2V0\012TGlzdD4K";
};
},
{
glyphname = percent;
layers = (
{
hints = (
{
horizontal = 1;
origin = "{2, 9}";
type = Tag;
name = hr01;
}
);
layerId = "9E0117ED-02C0-4C46-91DE-7DE1029A8F9A";
name = Regular;
paths = (
{
closed = 1;
nodes = (
"460 688 LINE",
"415 688 LINE",
"59 0 LINE",
"106 0 LINE"
);
},
{
closed = 1;
nodes = (
"261 588 CURVE SMOOTH",
"261 662 OFFCURVE",
"209 699 OFFCURVE",
"155 699 CURVE SMOOTH",
"99 699 OFFCURVE",
"44 654 OFFCURVE",
"44 588 CURVE SMOOTH",
"44 513 OFFCURVE",
"95 476 OFFCURVE",
"149 476 CURVE SMOOTH",
"209 476 OFFCURVE",
"261 532 OFFCURVE"
);
},
{
closed = 1;
nodes = (
"476 100 CURVE SMOOTH",
"476 175 OFFCURVE",
"425 212 OFFCURVE",
"371 212 CURVE SMOOTH",
"311 212 OFFCURVE",
"260 157 OFFCURVE",
"260 100 CURVE SMOOTH",
"260 26 OFFCURVE",
"311 -11 OFFCURVE",
"365 -11 CURVE SMOOTH",
"427 -11 OFFCURVE",
"476 46 OFFCURVE"
);
},
{
closed = 1;
nodes = (
"218 588 CURVE SMOOTH",
"218 545 OFFCURVE",
"196 511 OFFCURVE",
"152 511 CURVE SMOOTH",
"119 511 OFFCURVE",
"86 537 OFFCURVE",
"86 588 CURVE SMOOTH",
"86 637 OFFCURVE",
"114 664 OFFCURVE",
"152 664 CURVE SMOOTH",
"185 664 OFFCURVE",
"218 639 OFFCURVE"
);
},
{
closed = 1;
nodes = (
"435 100 CURVE SMOOTH",
"435 58 OFFCURVE",
"407 24 OFFCURVE",
"368 24 CURVE SMOOTH",
"335 24 OFFCURVE",
"302 49 OFFCURVE",
"302 100 CURVE SMOOTH",
"302 139 OFFCURVE",
"326 177 OFFCURVE",
"368 177 CURVE SMOOTH",
"401 177 OFFCURVE",
"435 151 OFFCURVE"
);
}
);
width = 520;
}
);
unicode = 0025;
userData = {
com.adobe.type.autohint = "ICA8aGludFNldExpc3Q+CiAgICA8aGludHNldCBw\012b2ludFRhZz0iaHIwMSI+CiAgICAgIDxoc3RlbSBw\012b3M9Ii0xMSIgd2lkdGg9IjM1IiAvPgogICAgICA8\012aHN0ZW0gcG9zPSIxNzciIHdpZHRoPSIzNSIgLz4K\012ICAgICAgPGhzdGVtIHBvcz0iMjk1IiB3aWR0aD0i\012MzUiIC8+CiAgICAgIDxoc3RlbSBwb3M9IjQ4MyIg\012d2lkdGg9IjM1IiAvPgogICAgICA8aHN0ZW0gcG9z\012PSI2OTIiIHdpZHRoPSItMjAiIC8+CiAgICAgIDx2\012c3RlbSBwb3M9IjkzIiB3aWR0aD0iNDIiIC8+CiAg\012ICAgIDx2c3RlbSBwb3M9IjI2NyIgd2lkdGg9IjQz\012IiAvPgogICAgICA8dnN0ZW0gcG9zPSIzMjkiIHdp\012ZHRoPSI0MiIgLz4KICAgICAgPHZzdGVtIHBvcz0i\012NTA0IiB3aWR0aD0iNDEiIC8+CiAgICA8L2hpbnRz\012ZXQ+CiAgPC9oaW50U2V0TGlzdD4K";
};
},
{
glyphname = ampersand;
layers = (
{
hints = (
{
horizontal = 1;
origin = "{0, 37}";
type = Tag;
name = hr01;
},
{
horizontal = 1;
origin = "{1, 6}";
type = Tag;
name = hr02;
}
);
layerId = "9E0117ED-02C0-4C46-91DE-7DE1029A8F9A";
name = Regular;
paths = (
{
closed = 1;
nodes = (
"704 63 CURVE",
"693 56 OFFCURVE",
"679 48 OFFCURVE",
"670 48 CURVE SMOOTH",
"611 48 OFFCURVE",
"538 113 OFFCURVE",
"493 148 CURVE",
"532 202 OFFCURVE",
"562 249 OFFCURVE",
"587 306 CURVE SMOOTH",
"619 378 OFFCURVE",
"639 414 OFFCURVE",
"655 430 CURVE",
"525 430 LINE",
"542 414 OFFCURVE",
"549 393 OFFCURVE",
"549 370 CURVE SMOOTH",
"549 313 OFFCURVE",
"506 240 OFFCURVE",
"463 173 CURVE",
"396 235 OFFCURVE",
"331 309 OFFCURVE",
"282 370 CURVE",
"364 424 OFFCURVE",
"440 481 OFFCURVE",
"440 567 CURVE SMOOTH",
"440 652 OFFCURVE",
"365 700 OFFCURVE",
"286 700 CURVE SMOOTH",
"203 700 OFFCURVE",
"120 648 OFFCURVE",
"120 540 CURVE SMOOTH",
"120 488 OFFCURVE",
"148 427 OFFCURVE",
"201 360 CURVE",
"121 309 OFFCURVE",
"56 258 OFFCURVE",
"56 165 CURVE SMOOTH",
"56 63 OFFCURVE",
"124 -12 OFFCURVE",
"250 -12 CURVE SMOOTH",
"320 -12 OFFCURVE",
"386 28 OFFCURVE",
"448 91 CURVE",
"525 26 OFFCURVE",
"583 -12 OFFCURVE",
"623 -12 CURVE SMOOTH",
"646 -12 OFFCURVE",
"669 0 OFFCURVE",
"688 31 CURVE SMOOTH",
"693 39 OFFCURVE",
"699 50 OFFCURVE"
);
},
{
closed = 1;
nodes = (
"377 557 CURVE SMOOTH",
"377 493 OFFCURVE",
"346 447 OFFCURVE",
"262 396 CURVE",
"230 438 OFFCURVE",
"181 513 OFFCURVE",
"181 568 CURVE SMOOTH",
"181 616 OFFCURVE",
"207 669 OFFCURVE",
"279 669 CURVE SMOOTH",
"328 669 OFFCURVE",
"377 635 OFFCURVE"
);
},
{
closed = 1;
nodes = (
"419 117 CURVE",
"374 73 OFFCURVE",
"335 36 OFFCURVE",
"271 36 CURVE SMOOTH",
"189 36 OFFCURVE",
"120 108 OFFCURVE",
"120 187 CURVE SMOOTH",
"120 250 OFFCURVE",
"159 292 OFFCURVE",
"222 332 CURVE",
"274 265 OFFCURVE",
"348 182 OFFCURVE"
);
}
);
width = 723;
}
);
unicode = 0026;
userData = {
com.adobe.type.autohint = "ICA8aGludFNldExpc3Q+CiAgICA8aGludHNldCBw\012b2ludFRhZz0iaHIwMSI+CiAgICAgIDxoc3RlbSBw\012b3M9Ii0xMSIgd2lkdGg9IjYwIiAvPgogICAgICA8\012aHN0ZW0gcG9zPSI2NzEiIHdpZHRoPSIzMSIgLz4K\012ICAgICAgPHZzdGVtIHBvcz0iNTYiIHdpZHRoPSI3\012OCIgLz4KICAgICAgPHZzdGVtIHBvcz0iMzc3IiB3\012aWR0aD0iNjMiIC8+CiAgICA8L2hpbnRzZXQ+CiAg\012ICA8aGludHNldCBwb2ludFRhZz0iaHIwMiI+CiAg\012ICAgIDxoc3RlbSBwb3M9Ii0xMSIgd2lkdGg9IjYw\012IiAvPgogICAgICA8aHN0ZW0gcG9zPSI2NzEiIHdp\012ZHRoPSIzMSIgLz4KICAgICAgPHZzdGVtIHBvcz0i\012MTIwIiB3aWR0aD0iNjEiIC8+CiAgICAgIDx2c3Rl\012bSBwb3M9IjM3NyIgd2lkdGg9IjYzIiAvPgogICAg\012PC9oaW50c2V0PgogIDwvaGludFNldExpc3Q+Cg==";
};
},
{
glyphname = quotesingle;
layers = (
{
hints = (
{
horizontal = 1;
origin = "{0, 0}";
type = Tag;
name = hr00;
}
);
layerId = "9E0117ED-02C0-4C46-91DE-7DE1029A8F9A";
name = Regular;
paths = (
{
closed = 1;
nodes = (
"108 470 LINE",
"179 688 LINE",
"115 688 LINE",
"44 470 LINE"
);
}
);
width = 224;
}
);
leftKerningGroup = quotesingle;
rightKerningGroup = quotesingle;
unicode = 0027;
userData = {
com.adobe.type.autohint = "ICA8aGludFNldExpc3Q+CiAgICA8aGludHNldCBw\012b2ludFRhZz0iaHIwMCI+CiAgICAgIDxoc3RlbSBw\012b3M9IjM5OCIgd2lkdGg9Ii0yMSIgLz4KICAgICAg\012PGhzdGVtIHBvcz0iNjkyIiB3aWR0aD0iLTIwIiAv\012PgogICAgICA8dnN0ZW0gcG9zPSI5MCIgd2lkdGg9\012IjYxIiAvPgogICAgPC9oaW50c2V0PgogIDwvaGlu\012dFNldExpc3Q+Cg==";
};
},
{
glyphname = parenleft;
layers = (
{
hints = (
{
horizontal = 1;
origin = "{0, 0}";
type = Tag;
name = hr00;
}
);
layerId = "9E0117ED-02C0-4C46-91DE-7DE1029A8F9A";
name = Regular;
paths = (
{
closed = 1;
nodes = (
"61 248 CURVE SMOOTH",
"61 65 OFFCURVE",
"149 -127 OFFCURVE",
"326 -243 CURVE",
"341 -235 LINE",
"208 -114 OFFCURVE",
"141 65 OFFCURVE",
"141 248 CURVE",
"141 431 OFFCURVE",
"208 610 OFFCURVE",
"341 731 CURVE",
"326 739 LINE",
"149 623 OFFCURVE",
"61 431 OFFCURVE"
);
}
);
width = 368;
}
);
rightKerningGroup = parenleft;
unicode = 0028;
userData = {
com.adobe.type.autohint = "ICA8aGludFNldExpc3Q+CiAgICA8aGludHNldCBw\012b2ludFRhZz0iaHIwMCI+CiAgICAgIDxoc3RlbSBw\012b3M9Ii0yMTYiIHdpZHRoPSItMjEiIC8+CiAgICAg\012IDxoc3RlbSBwb3M9IjczNSIgd2lkdGg9Ii0yMCIg\012Lz4KICAgICAgPHZzdGVtIHBvcz0iNTciIHdpZHRo\012PSI4NiIgLz4KICAgIDwvaGludHNldD4KICA8L2hp\012bnRTZXRMaXN0Pgo=";
};
},
{
glyphname = parenright;
layers = (
{
hints = (
{
horizontal = 1;
origin = "{0, 0}";
type = Tag;
name = hr00;
}
);
layerId = "9E0117ED-02C0-4C46-91DE-7DE1029A8F9A";
name = Regular;
paths = (
{
closed = 1;
nodes = (
"307 248 CURVE SMOOTH",
"307 431 OFFCURVE",
"219 623 OFFCURVE",
"42 739 CURVE",
"27 731 LINE",
"160 610 OFFCURVE",
"227 431 OFFCURVE",
"227 248 CURVE",
"227 65 OFFCURVE",
"160 -114 OFFCURVE",
"27 -235 CURVE",
"42 -243 LINE",
"219 -127 OFFCURVE",
"307 65 OFFCURVE"
);
}
);
width = 368;
}
);
leftKerningGroup = parenright;
unicode = 0029;
userData = {
com.adobe.type.autohint = "ICA8aGludFNldExpc3Q+CiAgICA8aGludHNldCBw\012b2ludFRhZz0iaHIwMCI+CiAgICAgIDxoc3RlbSBw\012b3M9Ii0yMzkiIHdpZHRoPSIyMCIgLz4KICAgICAg\012PGhzdGVtIHBvcz0iLTIxNiIgd2lkdGg9Ii0yMSIg\012Lz4KICAgICAgPGhzdGVtIHBvcz0iLTIxNiIgd2lk\012dGg9Ii0yMSIgLz4KICAgICAgPGhzdGVtIHBvcz0i\012NzEyIiB3aWR0aD0iMjEiIC8+CiAgICAgIDxoc3Rl\012bSBwb3M9IjczNSIgd2lkdGg9Ii0yMCIgLz4KICAg\012ICAgPGhzdGVtIHBvcz0iNzM1IiB3aWR0aD0iLTIw\012IiAvPgogICAgICA8dnN0ZW0gcG9zPSI1MSIgd2lk\012dGg9Ijg2IiAvPgogICAgICA8dnN0ZW0gcG9zPSIz\012MTEiIHdpZHRoPSItODYiIC8+CiAgICAgIDx2c3Rl\012bSBwb3M9IjIyOSIgd2lkdGg9Ijg2IiAvPgogICAg\012PC9oaW50c2V0PgogIDwvaGludFNldExpc3Q+Cg==";
};
},
{
glyphname = asterisk;
layers = (
{
hints = (
{
horizontal = 1;
origin = "{0, 0}";
type = Tag;
name = hr00;
}
);
layerId = "9E0117ED-02C0-4C46-91DE-7DE1029A8F9A";
name = Regular;
paths = (
{
closed = 1;
nodes = (
"303 613 CURVE",
"254 681 LINE",
"254 681 OFFCURVE",
"218 616 OFFCURVE",
"188 589 CURVE",
"185 603 OFFCURVE",
"181 634 OFFCURVE",
"181 663 CURVE SMOOTH",
"181 679 OFFCURVE",
"182 693 OFFCURVE",
"185 704 CURVE",
"107 678 LINE",
"107 678 OFFCURVE",
"156 623 OFFCURVE",
"172 586 CURVE",
"131 589 OFFCURVE",
"63 620 OFFCURVE",
"63 620 CURVE",
"63 538 LINE",
"63 538 OFFCURVE",
"131 566 OFFCURVE",
"171 570 CURVE",
"155 533 OFFCURVE",
"104 478 OFFCURVE",
"104 478 CURVE",
"184 453 LINE",
"180 464 OFFCURVE",
"178 478 OFFCURVE",
"178 494 CURVE SMOOTH",
"178 523 OFFCURVE",
"183 554 OFFCURVE",
"186 564 CURVE",
"217 538 OFFCURVE",
"253 474 OFFCURVE",
"253 474 CURVE",
"302 541 LINE",
"272 541 OFFCURVE",
"210 569 OFFCURVE",
"196 577 CURVE",
"209 584 OFFCURVE",
"276 613 OFFCURVE"
);
}
);
width = 340;
}
);
unicode = 002A;
userData = {
com.adobe.type.autohint = "ICA8aGludFNldExpc3Q+CiAgICA8aGludHNldCBw\012b2ludFRhZz0iaHIwMCI+CiAgICAgIDxoc3RlbSBw\012b3M9IjQ3NCIgd2lkdGg9Ii0yMSIgLz4KICAgICAg\012PGhzdGVtIHBvcz0iNzA0IiB3aWR0aD0iLTIwIiAv\012PgogICAgPC9oaW50c2V0PgogIDwvaGludFNldExp\012c3Q+Cg==";
};
},
{
color = (153,155,255,1);
glyphname = plus;
layers = (
{
hints = (
{
horizontal = 1;
origin = "{0, 0}";
type = Tag;
name = hr00;
}
);
layerId = "9E0117ED-02C0-4C46-91DE-7DE1029A8F9A";
name = Regular;
paths = (
{
closed = 1;
nodes = (
"252 0 LINE",
"308 0 LINE",
"308 188 LINE",
"488 188 LINE",
"488 242 LINE",
"308 242 LINE",
"308 430 LINE",
"252 430 LINE",
"252 242 LINE",
"72 242 LINE",
"72 188 LINE",
"252 188 LINE"
);
}
);
width = 560;
}
);
unicode = 002B;
userData = {
com.adobe.type.autohint = "ICA8aGludFNldExpc3Q+CiAgICA8aGludHNldCBw\012b2ludFRhZz0iaHIwMCI+CiAgICAgIDxoc3RlbSBw\012b3M9IjIxIiB3aWR0aD0iLTIxIiAvPgogICAgICA8\012aHN0ZW0gcG9zPSIxODkiIHdpZHRoPSI1MyIgLz4K\012ICAgICAgPGhzdGVtIHBvcz0iNDI4IiB3aWR0aD0i\012LTIwIiAvPgogICAgICA8dnN0ZW0gcG9zPSIyNTIi\012IHdpZHRoPSI1NSIgLz4KICAgIDwvaGludHNldD4K\012ICA8L2hpbnRTZXRMaXN0Pgo=";
com.typemytype.robofont.mark = (
0.6,
0.609,
1,
1
);
};
},
{
glyphname = comma;
layers = (
{
hints = (
{
horizontal = 1;
origin = "{0, 0}";
type = Tag;
name = hr00;
}
);
layerId = "9E0117ED-02C0-4C46-91DE-7DE1029A8F9A";
name = Regular;
paths = (
{
closed = 1;
nodes = (
"188 11 CURVE SMOOTH",
"188 66 OFFCURVE",
"156 91 OFFCURVE",
"126 91 CURVE SMOOTH",
"94 91 OFFCURVE",
"76 67 OFFCURVE",
"76 42 CURVE SMOOTH",
"76 19 OFFCURVE",
"91 -4 OFFCURVE",
"127 -4 CURVE SMOOTH",
"134 -4 LINE",
"135 -8 OFFCURVE",
"135 -13 OFFCURVE",
"135 -17 CURVE SMOOTH",
"135 -61 OFFCURVE",
"108 -119 OFFCURVE",
"71 -133 CURVE",
"151 -129 OFFCURVE",
"188 -46 OFFCURVE"
);
}
);
width = 256;
}
);
leftKerningGroup = period;
rightKerningGroup = period;
unicode = 002C;
userData = {
com.adobe.type.autohint = "ICA8aGludFNldExpc3Q+CiAgICA8aGludHNldCBw\012b2ludFRhZz0iaHIwMCI+CiAgICAgIDxoc3RlbSBw\012b3M9Ii0xMTIiIHdpZHRoPSItMjEiIC8+CiAgICAg\012IDxoc3RlbSBwb3M9Ii00IiB3aWR0aD0iOTUiIC8+\012CiAgICAgIDx2c3RlbSBwb3M9IjY4IiB3aWR0aD0i\012MTEyIiAvPgogICAgPC9oaW50c2V0PgogIDwvaGlu\012dFNldExpc3Q+Cg==";
};
},
{
glyphname = hyphen;
layers = (
{
hints = (
{
horizontal = 1;
origin = "{0, 0}";
type = Tag;
name = hr00;
}
);
layerId = "9E0117ED-02C0-4C46-91DE-7DE1029A8F9A";
name = Regular;
paths = (
{
closed = 1;
nodes = (
"240 184 LINE",
"240 242 LINE",
"64 242 LINE",
"64 184 LINE"
);
}
);
width = 304;
}
);
leftKerningGroup = hyphen;
rightKerningGroup = hyphen;
unicode = 002D;
userData = {
com.adobe.type.autohint = "ICA8aGludFNldExpc3Q+CiAgICA8aGludHNldCBw\012b2ludFRhZz0iaHIwMCI+CiAgICAgIDxoc3RlbSBw\012b3M9IjE4MCIgd2lkdGg9IjU4IiAvPgogICAgPC9o\012aW50c2V0PgogIDwvaGludFNldExpc3Q+Cg==";
};
},
{
glyphname = period;
layers = (
{
hints = (
{
horizontal = 1;
origin = "{0, 0}";
type = Tag;
name = hr00;
}
);
layerId = "9E0117ED-02C0-4C46-91DE-7DE1029A8F9A";
name = Regular;
paths = (
{
closed = 1;
nodes = (
"179 41 CURVE SMOOTH",
"179 75 OFFCURVE",
"153 91 OFFCURVE",
"128 91 CURVE SMOOTH",
"103 91 OFFCURVE",
"77 75 OFFCURVE",
"77 41 CURVE SMOOTH",
"77 7 OFFCURVE",
"103 -10 OFFCURVE",
"128 -10 CURVE SMOOTH",
"153 -10 OFFCURVE",
"179 7 OFFCURVE"
);
}
);
width = 256;
}
);
leftKerningGroup = period;
rightKerningGroup = period;
unicode = 002E;
userData = {
com.adobe.type.autohint = "ICA8aGludFNldExpc3Q+CiAgICA8aGludHNldCBw\012b2ludFRhZz0iaHIwMCI+CiAgICAgIDxoc3RlbSBw\012b3M9Ii0xMCIgd2lkdGg9IjEwMSIgLz4KICAgICAg\012PHZzdGVtIHBvcz0iODEiIHdpZHRoPSIxMDEiIC8+\012CiAgICA8L2hpbnRzZXQ+CiAgPC9oaW50U2V0TGlz\012dD4K";
};
},
{
glyphname = slash;
layers = (
{
hints = (
{
horizontal = 1;
origin = "{0, 0}";
type = Tag;
name = hr00;
}
);
layerId = "9E0117ED-02C0-4C46-91DE-7DE1029A8F9A";
name = Regular;
paths = (
{
closed = 1;
nodes = (
"412 727 LINE",
"367 727 LINE",
"52 -29 LINE",
"100 -29 LINE"
);
}
);
width = 464;
}
);
unicode = 002F;
userData = {
com.adobe.type.autohint = "ICA8aGludFNldExpc3Q+CiAgICA8aGludHNldCBw\012b2ludFRhZz0iaHIwMCI+CiAgICAgIDxoc3RlbSBw\012b3M9IjIxIiB3aWR0aD0iLTIxIiAvPgogICAgICA8\012aHN0ZW0gcG9zPSI2OTIiIHdpZHRoPSItMjAiIC8+\012CiAgICA8L2hpbnRzZXQ+CiAgPC9oaW50U2V0TGlz\012dD4K";
};
},
{
glyphname = zero;
layers = (
{
guideLines = (
{
position = "{0, 664}";
}
);
hints = (
{
horizontal = 1;
origin = "{0, 0}";
type = Tag;
name = hr00;
}
);
layerId = "9E0117ED-02C0-4C46-91DE-7DE1029A8F9A";
name = Regular;
paths = (
{
closed = 1;
nodes = (
"265 24 CURVE",
"184 24 OFFCURVE",
"120 148 OFFCURVE",
"120 374 CURVE SMOOTH",
"120 550 OFFCURVE",
"172 664 OFFCURVE",
"247 664 CURVE SMOOTH",
"328 663 OFFCURVE",
"392 540 OFFCURVE",
"392 314 CURVE SMOOTH",
"392 138 OFFCURVE",
"340 24 OFFCURVE"
);
},
{
closed = 1;
nodes = (
"255 -12 CURVE SMOOTH",
"376 -12 OFFCURVE",
"464 134 OFFCURVE",
"464 363 CURVE SMOOTH",
"464 578 OFFCURVE",
"374 700 OFFCURVE",
"257 700 CURVE SMOOTH",
"136 700 OFFCURVE",
"48 554 OFFCURVE",
"48 325 CURVE SMOOTH",
"48 110 OFFCURVE",
"138 -12 OFFCURVE"
);
}
);
width = 512;
}
);
unicode = 0030;
userData = {
com.adobe.type.autohint = "ICA8aGludFNldExpc3Q+CiAgICA8aGludHNldCBw\012b2ludFRhZz0iaHIwMCI+CiAgICAgIDxoc3RlbSBw\012b3M9Ii0xMiIgd2lkdGg9IjM2IiAvPgogICAgICA8\012aHN0ZW0gcG9zPSI2NjQiIHdpZHRoPSIzNiIgLz4K\012ICAgICAgPHZzdGVtIHBvcz0iNDgiIHdpZHRoPSI3\012MiIgLz4KICAgICAgPHZzdGVtIHBvcz0iMzkyIiB3\012aWR0aD0iNzIiIC8+CiAgICA8L2hpbnRzZXQ+CiAg\012PC9oaW50U2V0TGlzdD4K";
com.typemytype.robofont.guides = (
{
angle = 0;
isGlobal = 0;
magnetic = 5;
x = 0;
y = 664;
}
);
};
},
{
glyphname = one;
layers = (
{
hints = (
{
horizontal = 1;
origin = "{0, 0}";
type = Tag;
name = hr00;
}
);
layerId = "9E0117ED-02C0-4C46-91DE-7DE1029A8F9A";
name = Regular;
paths = (
{
closed = 1;
nodes = (
"232 0 LINE",
"226 2 OFFCURVE",
"188 13 OFFCURVE",
"188 105 CURVE SMOOTH",
"188 700 LINE",
"35 629 LINE",
"35 615 LINE",
"124 619 LINE",
"124 105 LINE SMOOTH",
"124 13 OFFCURVE",
"87 2 OFFCURVE",
"81 0 CURVE"
);
}
);
width = 312;
}
);
unicode = 0031;
userData = {
com.adobe.type.autohint = "ICA8aGludFNldExpc3Q+CiAgICA8aGludHNldCBw\012b2ludFRhZz0iaHIwMCI+CiAgICAgIDxoc3RlbSBw\012b3M9IjIxIiB3aWR0aD0iLTIxIiAvPgogICAgICA8\012aHN0ZW0gcG9zPSI2OTgiIHdpZHRoPSItMjAiIC8+\012CiAgICAgIDx2c3RlbSBwb3M9IjEyNCIgd2lkdGg9\012IjY0IiAvPgogICAgPC9oaW50c2V0PgogIDwvaGlu\012dFNldExpc3Q+Cg==";
};
},
{
glyphname = two;
layers = (
{
hints = (
{
horizontal = 1;
origin = "{0, 0}";
type = Tag;
name = hr00;
}
);
layerId = "9E0117ED-02C0-4C46-91DE-7DE1029A8F9A";
name = Regular;
paths = (
{
closed = 1;
nodes = (
"422 0 LINE",
"441 106 LINE",
"436 98 OFFCURVE",
"410 60 OFFCURVE",
"328 60 CURVE SMOOTH",
"125 60 LINE",
"155 94 LINE SMOOTH",
"243 193 OFFCURVE",
"289 251 OFFCURVE",
"333 311 CURVE SMOOTH",
"385 381 OFFCURVE",
"408 447 OFFCURVE",
"408 506 CURVE SMOOTH",
"408 625 OFFCURVE",
"322 700 OFFCURVE",
"221 700 CURVE SMOOTH",
"105 700 OFFCURVE",
"49 618 OFFCURVE",
"49 545 CURVE SMOOTH",
"49 520 OFFCURVE",
"55 496 OFFCURVE",
"67 479 CURVE",
"67 571 OFFCURVE",
"122 641 OFFCURVE",
"207 641 CURVE SMOOTH",
"273 641 OFFCURVE",
"336 590 OFFCURVE",
"336 497 CURVE SMOOTH",
"336 442 OFFCURVE",
"322 390 OFFCURVE",
"287 330 CURVE SMOOTH",
"251 270 OFFCURVE",
"196 205 OFFCURVE",
"102 93 CURVE SMOOTH",
"24 0 LINE"
);
}
);
width = 480;
}
);
unicode = 0032;
userData = {
com.adobe.type.autohint = "ICA8aGludFNldExpc3Q+CiAgICA8aGludHNldCBw\012b2ludFRhZz0iaHIwMCI+CiAgICAgIDxoc3RlbSBw\012b3M9IjAiIHdpZHRoPSI2MCIgLz4KICAgICAgPGhz\012dGVtIHBvcz0iNjQxIiB3aWR0aD0iNTkiIC8+CiAg\012ICAgIDx2c3RlbSBwb3M9IjMzNiIgd2lkdGg9Ijcy\012IiAvPgogICAgPC9oaW50c2V0PgogIDwvaGludFNl\012dExpc3Q+Cg==";
};
},
{
glyphname = three;
layers = (
{
hints = (
{
horizontal = 1;
origin = "{0, 23}";
type = Tag;
name = hr01;
}
);
layerId = "9E0117ED-02C0-4C46-91DE-7DE1029A8F9A";
name = Regular;
paths = (
{
closed = 1;
nodes = (
"376 552 CURVE SMOOTH",
"376 646 OFFCURVE",
"301 700 OFFCURVE",
"213 700 CURVE SMOOTH",
"132 700 OFFCURVE",
"60 650 OFFCURVE",
"60 566 CURVE SMOOTH",
"60 543 OFFCURVE",
"66 521 OFFCURVE",
"78 505 CURVE",
"78 593 OFFCURVE",
"139 640 OFFCURVE",
"201 640 CURVE SMOOTH",
"272 640 OFFCURVE",
"312 590 OFFCURVE",
"312 524 CURVE SMOOTH",
"312 446 OFFCURVE",
"247 389 OFFCURVE",
"164 360 CURVE",
"164 344 LINE",
"183 344 LINE SMOOTH",
"276 344 OFFCURVE",
"352 290 OFFCURVE",
"352 182 CURVE SMOOTH",
"352 100 OFFCURVE",
"303 27 OFFCURVE",
"200 27 CURVE SMOOTH",
"123 27 OFFCURVE",
"59 74 OFFCURVE",
"38 120 CURVE",
"38 40 LINE",
"72 19 OFFCURVE",
"122 -12 OFFCURVE",
"202 -12 CURVE SMOOTH",
"343 -12 OFFCURVE",
"424 93 OFFCURVE",
"424 204 CURVE SMOOTH",
"424 284 OFFCURVE",
"373 364 OFFCURVE",
"266 390 CURVE",
"335 428 OFFCURVE",
"376 495 OFFCURVE"
);
}
);
width = 480;
}
);
unicode = 0033;
userData = {
com.adobe.type.autohint = "ICA8aGludFNldExpc3Q+CiAgICA8aGludHNldCBw\012b2ludFRhZz0iaHIwMSI+CiAgICAgIDxoc3RlbSBw\012b3M9Ii0xMSIgd2lkdGg9IjM5IiAvPgogICAgICA8\012aHN0ZW0gcG9zPSI2NDAiIHdpZHRoPSI2MCIgLz4K\012ICAgICAgPHZzdGVtIHBvcz0iMzUyIiB3aWR0aD0i\012NzIiIC8+CiAgICA8L2hpbnRzZXQ+CiAgICA8aGlu\012dHNldCBwb2ludFRhZz0iaHIwMiI+CiAgICAgIDxo\012c3RlbSBwb3M9Ii0xMSIgd2lkdGg9IjM5IiAvPgog\012ICAgICA8aHN0ZW0gcG9zPSI2NDAiIHdpZHRoPSI2\012MCIgLz4KICAgICAgPHZzdGVtIHBvcz0iMzEyIiB3\012aWR0aD0iNjQiIC8+CiAgICA8L2hpbnRzZXQ+CiAg\012PC9oaW50U2V0TGlzdD4K";
};
},
{
glyphname = four;
layers = (
{
hints = (
{
horizontal = 1;
origin = "{0, 0}";
type = Tag;
name = hr00;
}
);
layerId = "9E0117ED-02C0-4C46-91DE-7DE1029A8F9A";
name = Regular;
paths = (
{
closed = 1;
nodes = (
"368 710 LINE",
"2 188 LINE",
"304 188 LINE",
"304 94 LINE SMOOTH",
"304 14 OFFCURVE",
"279 1 OFFCURVE",
"275 0 CURVE",
"398 0 LINE",
"395 2 OFFCURVE",
"368 15 OFFCURVE",
"368 93 CURVE SMOOTH",
"368 188 LINE",
"452 188 LINE",
"452 236 LINE",
"368 236 LINE"
);
},
{
closed = 1;
nodes = (
"84 236 LINE",
"304 551 LINE",
"304 236 LINE"
);
}
);
width = 504;
}
);
unicode = 0034;
userData = {
com.adobe.type.autohint = "ICA8aGludFNldExpc3Q+CiAgICA8aGludHNldCBw\012b2ludFRhZz0iaHIwMCI+CiAgICAgIDxoc3RlbSBw\012b3M9IjIxIiB3aWR0aD0iLTIxIiAvPgogICAgICA8\012aHN0ZW0gcG9zPSIxODgiIHdpZHRoPSI0OCIgLz4K\012ICAgICAgPGhzdGVtIHBvcz0iNzEwIiB3aWR0aD0i\012LTIwIiAvPgogICAgICA8dnN0ZW0gcG9zPSIzMDQi\012IHdpZHRoPSI2NCIgLz4KICAgIDwvaGludHNldD4K\012ICA8L2hpbnRTZXRMaXN0Pgo=";
};
},
{
glyphname = five;
layers = (
{
hints = (
{
horizontal = 1;
origin = "{0, 1}";
type = Tag;
name = hr01;
},
{
horizontal = 1;
origin = "{0, 4}";
type = Tag;
name = hr02;
}
);
layerId = "9E0117ED-02C0-4C46-91DE-7DE1029A8F9A";
name = Regular;
paths = (
{
closed = 1;
nodes = (
"372 624 LINE",
"392 705 LINE",
"390 703 OFFCURVE",
"376 688 OFFCURVE",
"293 688 CURVE SMOOTH",
"120 688 LINE",
"52 411 LINE",
"98 411 LINE SMOOTH",
"268 411 OFFCURVE",
"332 335 OFFCURVE",
"332 237 CURVE SMOOTH",
"332 103 OFFCURVE",
"218 33 OFFCURVE",
"51 33 CURVE SMOOTH",
"41 33 LINE",
"59 -7 LINE",
"70 -7 LINE SMOOTH",
"249 -7 OFFCURVE",
"397 101 OFFCURVE",
"397 259 CURVE SMOOTH",
"397 346 OFFCURVE",
"346 422 OFFCURVE",
"246 453 CURVE SMOOTH",
"201 467 OFFCURVE",
"151 471 OFFCURVE",
"109 472 CURVE",
"145 624 LINE"
);
}
);
width = 448;
}
);
unicode = 0035;
userData = {
com.adobe.type.autohint = "ICA8aGludFNldExpc3Q+CiAgICA8aGludHNldCBw\012b2ludFRhZz0iaHIwMSI+CiAgICAgIDxoc3RlbSBw\012b3M9Ii03IiB3aWR0aD0iNDAiIC8+CiAgICAgIDxo\012c3RlbSBwb3M9IjcwNSIgd2lkdGg9Ii0yMCIgLz4K\012ICAgICAgPHZzdGVtIHBvcz0iMzMzIiB3aWR0aD0i\012NjQiIC8+CiAgICA8L2hpbnRzZXQ+CiAgICA8aGlu\012dHNldCBwb2ludFRhZz0iaHIwMiI+CiAgICAgIDxo\012c3RlbSBwb3M9Ii03IiB3aWR0aD0iNDAiIC8+CiAg\012ICAgIDxoc3RlbSBwb3M9IjYyNCIgd2lkdGg9IjY0\012IiAvPgogICAgICA8dnN0ZW0gcG9zPSIzMzMiIHdp\012ZHRoPSI2NCIgLz4KICAgIDwvaGludHNldD4KICA8\012L2hpbnRTZXRMaXN0Pgo=";
};
},
{
glyphname = six;
layers = (
{
hints = (
{
horizontal = 1;
origin = "{0, 0}";
type = Tag;
name = hr00;
}
);
layerId = "9E0117ED-02C0-4C46-91DE-7DE1029A8F9A";
name = Regular;
paths = (
{
closed = 1;
nodes = (
"277 25 CURVE SMOOTH",
"202 25 OFFCURVE",
"136 106 OFFCURVE",
"136 245 CURVE SMOOTH",
"136 401 OFFCURVE",
"236 604 OFFCURVE",
"434 683 CURVE",
"395 701 LINE",
"203 639 OFFCURVE",
"64 434 OFFCURVE",
"64 260 CURVE SMOOTH",
"64 121 OFFCURVE",
"137 -12 OFFCURVE",
"274 -12 CURVE SMOOTH",
"404 -12 OFFCURVE",
"474 91 OFFCURVE",
"474 191 CURVE SMOOTH",
"474 278 OFFCURVE",
"421 361 OFFCURVE",
"312 361 CURVE SMOOTH",
"223 361 OFFCURVE",
"181 294 OFFCURVE",
"181 267 CURVE",
"213 300 OFFCURVE",
"245 313 OFFCURVE",
"282 313 CURVE SMOOTH",
"360 313 OFFCURVE",
"402 239 OFFCURVE",
"402 167 CURVE SMOOTH",
"402 90 OFFCURVE",
"363 25 OFFCURVE"
);
}
);
width = 522;
}
);
unicode = 0036;
userData = {
com.adobe.type.autohint = "ICA8aGludFNldExpc3Q+CiAgICA8aGludHNldCBw\012b2ludFRhZz0iaHIwMCI+CiAgICAgIDxoc3RlbSBw\012b3M9Ii05IiB3aWR0aD0iMzciIC8+CiAgICAgIDxo\012c3RlbSBwb3M9IjMxNiIgd2lkdGg9IjQ4IiAvPgog\012ICAgICA8aHN0ZW0gcG9zPSI3MDEiIHdpZHRoPSIt\012MjAiIC8+CiAgICAgIDx2c3RlbSBwb3M9IjY0IiB3\012aWR0aD0iNzIiIC8+CiAgICAgIDx2c3RlbSBwb3M9\012IjQwMiIgd2lkdGg9IjcyIiAvPgogICAgPC9oaW50\012c2V0PgogIDwvaGludFNldExpc3Q+Cg==";
};
},
{
glyphname = seven;
layers = (
{
hints = (
{
horizontal = 1;
origin = "{0, 0}";
type = Tag;
name = hr00;
}
);
layerId = "9E0117ED-02C0-4C46-91DE-7DE1029A8F9A";
name = Regular;
paths = (
{
closed = 1;
nodes = (
"456 688 LINE",
"61 688 LINE",
"31 575 LINE",
"40 590 OFFCURVE",
"64 624 OFFCURVE",
"139 624 CURVE SMOOTH",
"373 624 LINE",
"325 519 OFFCURVE",
"125 165 OFFCURVE",
"52 0 CURVE",
"120 0 LINE",
"139 66 OFFCURVE",
"187 171 OFFCURVE",
"228 250 CURVE SMOOTH"
);
}
);
width = 456;
}
);
unicode = 0037;
userData = {
com.adobe.type.autohint = "ICA8aGludFNldExpc3Q+CiAgICA8aGludHNldCBw\012b2ludFRhZz0iaHIwMCI+CiAgICAgIDxoc3RlbSBw\012b3M9IjIxIiB3aWR0aD0iLTIxIiAvPgogICAgICA8\012aHN0ZW0gcG9zPSI2MjQiIHdpZHRoPSI2NCIgLz4K\012ICAgIDwvaGludHNldD4KICA8L2hpbnRTZXRMaXN0\012Pgo=";
};
},
{
glyphname = eight;
layers = (
{
guideLines = (
{
angle = 90;
position = "{40, 0}";
},
{
angle = 90;
position = "{104, 0}";
},
{
angle = 90;
position = "{416, 0}";
},
{
angle = 90;
position = "{352, 0}";
}
);
hints = (
{
horizontal = 1;
origin = "{0, 12}";
type = Tag;
name = hr01;
},
{
horizontal = 1;
origin = "{0, 18}";
type = Tag;
name = hr02;
}
);
layerId = "9E0117ED-02C0-4C46-91DE-7DE1029A8F9A";
name = Regular;
paths = (
{
closed = 1;
nodes = (
"77 535 CURVE SMOOTH",
"77 625 OFFCURVE",
"149 700 OFFCURVE",
"252 700 CURVE SMOOTH",
"354 700 OFFCURVE",
"428 628 OFFCURVE",
"428 541 CURVE SMOOTH",
"428 466 OFFCURVE",
"377 406 OFFCURVE",
"307 370 CURVE",
"420 302 OFFCURVE",
"456 255 OFFCURVE",
"456 172 CURVE SMOOTH",
"456 79 OFFCURVE",
"378 -12 OFFCURVE",
"252 -12 CURVE SMOOTH",
"119 -12 OFFCURVE",
"48 77 OFFCURVE",
"48 168 CURVE SMOOTH",
"48 252 OFFCURVE",
"101 302 OFFCURVE",
"202 355 CURVE",
"131 399 OFFCURVE",
"77 456 OFFCURVE"
);
},
{
closed = 1;
nodes = (
"107 172 CURVE SMOOTH",
"107 94 OFFCURVE",
"162 24 OFFCURVE",
"252 24 CURVE SMOOTH",
"328 24 OFFCURVE",
"391 77 OFFCURVE",
"391 160 CURVE SMOOTH",
"391 242 OFFCURVE",
"320 284 OFFCURVE",
"256 323 CURVE SMOOTH",
"235 335 LINE",
"176 306 OFFCURVE",
"107 271 OFFCURVE"
);
},
{
closed = 1;
nodes = (
"370 540 CURVE SMOOTH",
"370 609 OFFCURVE",
"320 664 OFFCURVE",
"252 664 CURVE SMOOTH",
"186 664 OFFCURVE",
"132 618 OFFCURVE",
"132 550 CURVE SMOOTH",
"132 485 OFFCURVE",
"195 436 OFFCURVE",
"253 401 CURVE SMOOTH",
"273 389 LINE",
"322 413 OFFCURVE",
"370 459 OFFCURVE"
);
}
);
width = 504;
}
);
unicode = 0038;
userData = {
com.adobe.type.autohint = "ICA8aGludFNldExpc3Q+CiAgICA8aGludHNldCBw\012b2ludFRhZz0iaHIwMSI+CiAgICAgIDxoc3RlbSBw\012b3M9Ii0xMiIgd2lkdGg9IjM4IiAvPgogICAgICA8\012aHN0ZW0gcG9zPSI2NjMiIHdpZHRoPSIzNyIgLz4K\012ICAgICAgPHZzdGVtIHBvcz0iODAiIHdpZHRoPSIy\012OCIgLz4KICAgICAgPHZzdGVtIHBvcz0iMzg0IiB3\012aWR0aD0iNzIiIC8+CiAgICA8L2hpbnRzZXQ+CiAg\012ICA8aGludHNldCBwb2ludFRhZz0iaHIwMiI+CiAg\012ICAgIDxoc3RlbSBwb3M9Ii0xMiIgd2lkdGg9IjM4\012IiAvPgogICAgICA8aHN0ZW0gcG9zPSI2NjMiIHdp\012ZHRoPSIzNyIgLz4KICAgICAgPHZzdGVtIHBvcz0i\012NDgiIHdpZHRoPSI2MCIgLz4KICAgICAgPHZzdGVt\012IHBvcz0iMzY3IiB3aWR0aD0iNTciIC8+CiAgICA8\012L2hpbnRzZXQ+CiAgPC9oaW50U2V0TGlzdD4K";
com.typemytype.robofont.guides = (
{
angle = 90;
isGlobal = 0;
magnetic = 5;
x = 40;
y = 0;
},
{
angle = 90;
isGlobal = 0;
magnetic = 5;
x = 104;
y = 0;
},
{
angle = 90;
isGlobal = 0;
magnetic = 5;
x = 416;
y = 0;
},
{
angle = 90;
isGlobal = 0;
magnetic = 5;
x = 352;
y = 0;
}
);
};
},
{
glyphname = nine;
layers = (
{
guideLines = (
{
angle = 90;
position = "{72, 0}";
},
{
angle = 90;
position = "{466, 0}";
}
);
hints = (
{
horizontal = 1;
origin = "{0, 3}";
type = Tag;
name = hr01;
},
{
horizontal = 1;
origin = "{0, 7}";
type = Tag;
name = hr02;
},
{
horizontal = 1;
origin = "{0, 10}";
type = Tag;
name = hr03;
},
{
horizontal = 1;
origin = "{0, 16}";
type = Tag;
name = hr04;
}
);
layerId = "9E0117ED-02C0-4C46-91DE-7DE1029A8F9A";
name = Regular;
paths = (
{
closed = 1;
nodes = (
"244 663 CURVE SMOOTH",
"319 663 OFFCURVE",
"385 582 OFFCURVE",
"385 444 CURVE SMOOTH",
"385 289 OFFCURVE",
"285 87 OFFCURVE",
"88 8 CURVE",
"127 -10 LINE",
"318 52 OFFCURVE",
"456 256 OFFCURVE",
"456 429 CURVE SMOOTH",
"456 568 OFFCURVE",
"384 700 OFFCURVE",
"247 700 CURVE SMOOTH",
"118 700 OFFCURVE",
"48 597 OFFCURVE",
"48 498 CURVE SMOOTH",
"48 411 OFFCURVE",
"101 329 OFFCURVE",
"210 329 CURVE SMOOTH",
"298 329 OFFCURVE",
"340 395 OFFCURVE",
"340 422 CURVE",
"308 389 OFFCURVE",
"276 376 OFFCURVE",
"239 376 CURVE SMOOTH",
"162 376 OFFCURVE",
"120 450 OFFCURVE",
"120 522 CURVE SMOOTH",
"120 598 OFFCURVE",
"159 663 OFFCURVE"
);
}
);
width = 522;
}
);
unicode = 0039;
userData = {
com.adobe.type.autohint = "ICA8aGludFNldExpc3Q+CiAgICA8aGludHNldCBw\012b2ludFRhZz0iaHIwMSI+CiAgICAgIDxoc3RlbSBw\012b3M9Ii0xNCIgd2lkdGg9IjQ2IiAvPgogICAgICA8\012aHN0ZW0gcG9zPSIyMDciIHdpZHRoPSI1MSIgLz4K\012ICAgICAgPGhzdGVtIHBvcz0iMzQwIiB3aWR0aD0i\012NTIiIC8+CiAgICAgIDxoc3RlbSBwb3M9IjU2NyIg\012d2lkdGg9IjQ2IiAvPgogICAgICA8aHN0ZW0gcG9z\012PSI2OTciIHdpZHRoPSItMzciIC8+CiAgICAgIDx2\012c3RlbSBwb3M9IjcxIiB3aWR0aD0iNjMiIC8+CiAg\012ICAgIDx2c3RlbSBwb3M9IjQ1NiIgd2lkdGg9Ii03\012MSIgLz4KICAgIDwvaGludHNldD4KICAgIDxoaW50\012c2V0IHBvaW50VGFnPSJocjAyIj4KICAgICAgPGhz\012dGVtIHBvcz0iMTEiIHdpZHRoPSItMjEiIC8+CiAg\012ICAgIDxoc3RlbSBwb3M9IjIwNyIgd2lkdGg9IjUx\012IiAvPgogICAgICA8aHN0ZW0gcG9zPSIzNDAiIHdp\012ZHRoPSI1MiIgLz4KICAgICAgPGhzdGVtIHBvcz0i\012NTY3IiB3aWR0aD0iNDYiIC8+CiAgICAgIDxoc3Rl\012bSBwb3M9IjY5NyIgd2lkdGg9Ii0zNyIgLz4KICAg\012ICAgPHZzdGVtIHBvcz0iNzEiIHdpZHRoPSI2MyIg\012Lz4KICAgICAgPHZzdGVtIHBvcz0iMzkyIiB3aWR0\012aD0iNzAiIC8+CiAgICA8L2hpbnRzZXQ+CiAgICA8\012aGludHNldCBwb2ludFRhZz0iaHIwMyI+CiAgICAg\012IDxoc3RlbSBwb3M9Ii0xNCIgd2lkdGg9IjQ2IiAv\012PgogICAgICA8aHN0ZW0gcG9zPSIyMDciIHdpZHRo\012PSI1MSIgLz4KICAgICAgPGhzdGVtIHBvcz0iMzQw\012IiB3aWR0aD0iNTIiIC8+CiAgICAgIDxoc3RlbSBw\012b3M9IjU2NyIgd2lkdGg9IjQ2IiAvPgogICAgICA8\012aHN0ZW0gcG9zPSI2OTciIHdpZHRoPSItMzciIC8+\012CiAgICAgIDx2c3RlbSBwb3M9IjcxIiB3aWR0aD0i\012NjMiIC8+CiAgICAgIDx2c3RlbSBwb3M9IjQ1NiIg\012d2lkdGg9Ii03MSIgLz4KICAgIDwvaGludHNldD4K\012ICAgIDxoaW50c2V0IHBvaW50VGFnPSJocjA0Ij4K\012ICAgICAgPGhzdGVtIHBvcz0iLTE0IiB3aWR0aD0i\012NDYiIC8+CiAgICAgIDxoc3RlbSBwb3M9IjIwNyIg\012d2lkdGg9IjUxIiAvPgogICAgICA8aHN0ZW0gcG9z\012PSIzNDAiIHdpZHRoPSI1MiIgLz4KICAgICAgPGhz\012dGVtIHBvcz0iNTY3IiB3aWR0aD0iNDYiIC8+CiAg\012ICAgIDxoc3RlbSBwb3M9IjY5NyIgd2lkdGg9Ii0z\012NyIgLz4KICAgICAgPHZzdGVtIHBvcz0iMTIwIiB3\012aWR0aD0iLTcyIiAvPgogICAgICA8dnN0ZW0gcG9z\012PSIzOTIiIHdpZHRoPSI3MCIgLz4KICAgIDwvaGlu\012dHNldD4KICA8L2hpbnRTZXRMaXN0Pgo=";
com.typemytype.robofont.guides = (
{
angle = 90;
isGlobal = 0;
magnetic = 5;
x = 72;
y = 0;
},
{
angle = 90;
isGlobal = 0;
magnetic = 5;
x = 466;
y = 0;
}
);
};
},
{
color = (153,155,255,1);
glyphname = less;
layers = (
{
hints = (
{
horizontal = 1;
origin = "{0, 0}";
type = Tag;
name = hr00;
}
);
layerId = "9E0117ED-02C0-4C46-91DE-7DE1029A8F9A";
name = Regular;
paths = (
{
closed = 1;
nodes = (
"463 -7 LINE",
"463 56 LINE",
"165 212 LINE",
"165 216 LINE",
"463 377 LINE",
"463 439 LINE",
"97 238 LINE",
"97 193 LINE"
);
}
);
width = 560;
}
);
unicode = 003C;
userData = {
com.adobe.type.autohint = "ICA8aGludFNldExpc3Q+CiAgICA8aGludHNldCBw\012b2ludFRhZz0iaHIwMCI+CiAgICAgIDxoc3RlbSBw\012b3M9IjE0IiB3aWR0aD0iLTIxIiAvPgogICAgICA8\012aHN0ZW0gcG9zPSI0MzkiIHdpZHRoPSItMjAiIC8+\012CiAgICA8L2hpbnRzZXQ+CiAgPC9oaW50U2V0TGlz\012dD4K";
com.typemytype.robofont.mark = (
0.6,
0.609,
1,
1
);
};
},
{
color = (153,155,255,1);
glyphname = equal;
layers = (
{
hints = (
{
horizontal = 1;
origin = "{0, 0}";
type = Tag;
name = hr00;
}
);
layerId = "9E0117ED-02C0-4C46-91DE-7DE1029A8F9A";
name = Regular;
paths = (
{
closed = 1;
nodes = (
"488 280 LINE",
"488 334 LINE",
"72 334 LINE",
"72 280 LINE"
);
},
{
closed = 1;
nodes = (
"488 101 LINE",
"488 155 LINE",
"72 155 LINE",
"72 101 LINE"
);
}
);
width = 560;
}
);
unicode = 003D;
userData = {
com.adobe.type.autohint = "ICA8aGludFNldExpc3Q+CiAgICA8aGludHNldCBw\012b2ludFRhZz0iaHIwMCI+CiAgICAgIDxoc3RlbSBw\012b3M9IjExMSIgd2lkdGg9IjU0IiAvPgogICAgICA8\012aHN0ZW0gcG9zPSIyNzAiIHdpZHRoPSI1NSIgLz4K\012ICAgIDwvaGludHNldD4KICA8L2hpbnRTZXRMaXN0\012Pgo=";
com.typemytype.robofont.mark = (
0.6,
0.609,
1,
1
);
};
},
{
color = (153,155,255,1);
glyphname = greater;
layers = (
{
hints = (
{
horizontal = 1;
origin = "{0, 0}";
type = Tag;
name = hr00;
}
);
layerId = "9E0117ED-02C0-4C46-91DE-7DE1029A8F9A";
name = Regular;
paths = (
{
closed = 1;
nodes = (
"463 192 LINE",
"463 237 LINE",
"97 438 LINE",
"97 376 LINE",
"396 218 LINE",
"396 215 LINE",
"97 55 LINE",
"97 -8 LINE"
);
}
);
width = 560;
}
);
unicode = 003E;
userData = {
com.adobe.type.autohint = "ICA8aGludFNldExpc3Q+CiAgICA8aGludHNldCBw\012b2ludFRhZz0iaHIwMCI+CiAgICAgIDxoc3RlbSBw\012b3M9IjE0IiB3aWR0aD0iLTIxIiAvPgogICAgICA8\012aHN0ZW0gcG9zPSI0MzkiIHdpZHRoPSItMjAiIC8+\012CiAgICA8L2hpbnRzZXQ+CiAgPC9oaW50U2V0TGlz\012dD4K";
com.typemytype.robofont.mark = (
0.6,
0.609,
1,
1
);
};
},
{
glyphname = question;
layers = (
{
hints = (
{
horizontal = 1;
origin = "{0, 16}";
type = Tag;
name = hr01;
},
{
horizontal = 1;
origin = "{1, 3}";
type = Tag;
name = hr02;
}
);
layerId = "9E0117ED-02C0-4C46-91DE-7DE1029A8F9A";
name = Regular;
paths = (
{
closed = 1;
nodes = (
"384 549 CURVE SMOOTH",
"384 637 OFFCURVE",
"317 698 OFFCURVE",
"202 698 CURVE SMOOTH",
"149 698 OFFCURVE",
"99 686 OFFCURVE",
"58 666 CURVE",
"58 581 LINE",
"87 624 OFFCURVE",
"140 659 OFFCURVE",
"194 659 CURVE SMOOTH",
"251 659 OFFCURVE",
"305 624 OFFCURVE",
"305 549 CURVE SMOOTH",
"305 418 OFFCURVE",
"141 377 OFFCURVE",
"141 251 CURVE SMOOTH",
"141 219 OFFCURVE",
"158 184 OFFCURVE",
"193 155 CURVE",
"188 179 OFFCURVE",
"184 199 OFFCURVE",
"184 216 CURVE SMOOTH",
"184 348 OFFCURVE",
"384 398 OFFCURVE"
);
},
{
closed = 1;
nodes = (
"232 41 CURVE SMOOTH",
"232 75 OFFCURVE",
"206 91 OFFCURVE",
"181 91 CURVE SMOOTH",
"156 91 OFFCURVE",
"130 75 OFFCURVE",
"130 41 CURVE SMOOTH",
"130 7 OFFCURVE",
"156 -10 OFFCURVE",
"181 -10 CURVE SMOOTH",
"206 -10 OFFCURVE",
"232 7 OFFCURVE"
);
}
);
width = 400;
}
);
unicode = 003F;
userData = {
com.adobe.type.autohint = "ICA8aGludFNldExpc3Q+CiAgICA8aGludHNldCBw\012b2ludFRhZz0iaHIwMSI+CiAgICAgIDxoc3RlbSBw\012b3M9Ii0xMSIgd2lkdGg9IjEwMSIgLz4KICAgICAg\012PGhzdGVtIHBvcz0iNjU5IiB3aWR0aD0iMzkiIC8+\012CiAgICAgIDx2c3RlbSBwb3M9IjE0MSIgd2lkdGg9\012IjQzIiAvPgogICAgICA8dnN0ZW0gcG9zPSIzMDIi\012IHdpZHRoPSI4MiIgLz4KICAgIDwvaGludHNldD4K\012ICAgIDxoaW50c2V0IHBvaW50VGFnPSJocjAyIj4K\012ICAgICAgPGhzdGVtIHBvcz0iLTEwIiB3aWR0aD0i\012MTAxIiAvPgogICAgICA8aHN0ZW0gcG9zPSI2NTki\012IHdpZHRoPSIzOSIgLz4KICAgICAgPHZzdGVtIHBv\012cz0iMTM0IiB3aWR0aD0iMTAxIiAvPgogICAgICA8\012dnN0ZW0gcG9zPSIzMDIiIHdpZHRoPSI4MiIgLz4K\012ICAgIDwvaGludHNldD4KICA8L2hpbnRTZXRMaXN0\012Pgo=";
};
},
{
glyphname = at;
layers = (
{
hints = (
{
horizontal = 1;
origin = "{0, 0}";
type = Tag;
name = hr00;
}
);
layerId = "9E0117ED-02C0-4C46-91DE-7DE1029A8F9A";
name = Regular;
paths = (
{
closed = 1;
nodes = (
"846 254 CURVE SMOOTH",
"846 430 OFFCURVE",
"703 564 OFFCURVE",
"514 564 CURVE SMOOTH",
"253 564 OFFCURVE",
"116 381 OFFCURVE",
"116 171 CURVE SMOOTH",
"116 -32 OFFCURVE",
"249 -195 OFFCURVE",
"510 -195 CURVE SMOOTH",
"647 -195 OFFCURVE",
"755 -134 OFFCURVE",
"829 -51 CURVE",
"805 -33 LINE",
"739 -107 OFFCURVE",
"631 -165 OFFCURVE",
"512 -165 CURVE SMOOTH",
"274 -165 OFFCURVE",
"155 -6 OFFCURVE",
"155 176 CURVE SMOOTH",
"155 376 OFFCURVE",
"291 535 OFFCURVE",
"508 535 CURVE SMOOTH",
"698 535 OFFCURVE",
"808 398 OFFCURVE",
"808 254 CURVE SMOOTH",
"808 115 OFFCURVE",
"734 24 OFFCURVE",
"650 24 CURVE SMOOTH",
"618 24 OFFCURVE",
"594 48 OFFCURVE",
"594 80 CURVE SMOOTH",
"594 87 OFFCURVE",
"594 94 OFFCURVE",
"596 102 CURVE SMOOTH",
"646 394 LINE",
"627 384 OFFCURVE",
"610 380 OFFCURVE",
"598 380 CURVE SMOOTH",
"582 380 OFFCURVE",
"562 389 OFFCURVE",
"547 393 CURVE SMOOTH",
"529 398 OFFCURVE",
"516 401 OFFCURVE",
"496 401 CURVE SMOOTH",
"370 401 OFFCURVE",
"296 250 OFFCURVE",
"296 133 CURVE SMOOTH",
"296 42 OFFCURVE",
"337 -10 OFFCURVE",
"401 -10 CURVE SMOOTH",
"453 -10 OFFCURVE",
"504 12 OFFCURVE",
"539 82 CURVE",
"541 13 OFFCURVE",
"585 -10 OFFCURVE",
"643 -10 CURVE SMOOTH",
"748 -10 OFFCURVE",
"846 97 OFFCURVE"
);
},
{
closed = 1;
nodes = (
"562 306 CURVE SMOOTH",
"562 267 OFFCURVE",
"542 146 OFFCURVE",
"517 98 CURVE SMOOTH",
"495 56 OFFCURVE",
"461 24 OFFCURVE",
"422 24 CURVE SMOOTH",
"388 24 OFFCURVE",
"361 57 OFFCURVE",
"361 129 CURVE SMOOTH",
"361 227 OFFCURVE",
"415 375 OFFCURVE",
"488 375 CURVE SMOOTH",
"546 375 OFFCURVE",
"562 347 OFFCURVE"
);
}
);
width = 945;
}
);
unicode = 0040;
userData = {
com.adobe.type.autohint = "ICA8aGludFNldExpc3Q+CiAgICA8aGludHNldCBw\012b2ludFRhZz0iaHIwMCI+CiAgICAgIDxoc3RlbSBw\012b3M9Ii0xMDAiIHdpZHRoPSIzNiIgLz4KICAgICAg\012PGhzdGVtIHBvcz0iMzMiIHdpZHRoPSIzOCIgLz4K\012ICAgICAgPGhzdGVtIHBvcz0iMzAxIiB3aWR0aD0i\012MjkiIC8+CiAgICAgIDxoc3RlbSBwb3M9IjQwMCIg\012d2lkdGg9IjM1IiAvPgogICAgICA8dnN0ZW0gcG9z\012PSI3MCIgd2lkdGg9IjQwIiAvPgogICAgICA8dnN0\012ZW0gcG9zPSIxOTIiIHdpZHRoPSI1OCIgLz4KICAg\012ICAgPHZzdGVtIHBvcz0iNTI0IiB3aWR0aD0iNDEi\012IC8+CiAgICA8L2hpbnRzZXQ+CiAgPC9oaW50U2V0\012TGlzdD4K";
};
},
{
glyphname = A;
layers = (
{
hints = (
{
horizontal = 1;
origin = "{0, 0}";
type = Tag;
name = hr00;
}
);
layerId = "9E0117ED-02C0-4C46-91DE-7DE1029A8F9A";
name = Regular;
paths = (
{
closed = 1;
nodes = (
"530 97 LINE SMOOTH",
"541 70 OFFCURVE",
"546 51 OFFCURVE",
"546 37 CURVE SMOOTH",
"546 17 OFFCURVE",
"536 7 OFFCURVE",
"521 0 CURVE",
"687 0 LINE",
"680 1 OFFCURVE",
"647 12 OFFCURVE",
"612 96 CURVE SMOOTH",
"353 720 LINE",
"92 99 LINE SMOOTH",
"53 7 OFFCURVE",
"25 0 OFFCURVE",
"19 0 CURVE SMOOTH",
"162 0 LINE",
"142 9 OFFCURVE",
"132 24 OFFCURVE",
"132 47 CURVE SMOOTH",
"132 63 OFFCURVE",
"137 83 OFFCURVE",
"147 108 CURVE SMOOTH",
"211 267 LINE",
"460 267 LINE"
);
},
{
closed = 1;
nodes = (
"335 575 LINE",
"444 308 LINE",
"228 308 LINE"
);
}
);
width = 688;
}
);
leftKerningGroup = A;
rightKerningGroup = A;
unicode = 0041;
userData = {
com.adobe.type.autohint = "ICA8aGludFNldExpc3Q+CiAgICA8aGludHNldCBw\012b2ludFRhZz0iaHIwMCI+CiAgICAgIDxoc3RlbSBw\012b3M9IjIxIiB3aWR0aD0iLTIxIiAvPgogICAgICA8\012aHN0ZW0gcG9zPSIyNjciIHdpZHRoPSI0MSIgLz4K\012ICAgICAgPGhzdGVtIHBvcz0iNzIwIiB3aWR0aD0i\012LTIwIiAvPgogICAgPC9oaW50c2V0PgogIDwvaGlu\012dFNldExpc3Q+Cg==";
};
},
{
glyphname = B;
layers = (
{
hints = (
{
horizontal = 1;
origin = "{0, 0}";
type = Tag;
name = hr00;
}
);
layerId = "9E0117ED-02C0-4C46-91DE-7DE1029A8F9A";
name = Regular;
paths = (
{
closed = 1;
nodes = (
"528 182 CURVE SMOOTH",
"528 279 OFFCURVE",
"438 338 OFFCURVE",
"351 347 CURVE",
"439 365 OFFCURVE",
"498 435 OFFCURVE",
"498 525 CURVE SMOOTH",
"498 581 OFFCURVE",
"467 637 OFFCURVE",
"406 666 CURVE SMOOTH",
"377 679 OFFCURVE",
"342 688 OFFCURVE",
"250 688 CURVE SMOOTH",
"86 688 LINE",
"93 686 OFFCURVE",
"128 675 OFFCURVE",
"128 593 CURVE SMOOTH",
"128 98 LINE SMOOTH",
"128 10 OFFCURVE",
"89 1 OFFCURVE",
"85 0 CURVE",
"250 0 LINE SMOOTH",
"330 0 OFFCURVE",
"368 5 OFFCURVE",
"402 17 CURVE SMOOTH",
"474 42 OFFCURVE",
"528 92 OFFCURVE"
);
},
{
closed = 1;
nodes = (
"448 182 CURVE SMOOTH",
"448 80 OFFCURVE",
"387 40 OFFCURVE",
"295 40 CURVE SMOOTH",
"200 40 LINE",
"200 324 LINE",
"272 324 LINE SMOOTH",
"338 324 OFFCURVE",
"370 315 OFFCURVE",
"395 295 CURVE SMOOTH",
"430 266 OFFCURVE",
"448 228 OFFCURVE"
);
},
{
closed = 1;
nodes = (
"424 505 CURVE SMOOTH",
"424 467 OFFCURVE",
"408 429 OFFCURVE",
"383 404 CURVE SMOOTH",
"362 383 OFFCURVE",
"333 364 OFFCURVE",
"281 364 CURVE SMOOTH",
"200 364 LINE",
"200 648 LINE",
"269 648 LINE SMOOTH",
"325 648 OFFCURVE",
"350 636 OFFCURVE",
"374 618 CURVE SMOOTH",
"409 591 OFFCURVE",
"424 548 OFFCURVE"
);
}
);
width = 592;
}
);
leftKerningGroup = B;
unicode = 0042;
userData = {
com.adobe.type.autohint = "ICA8aGludFNldExpc3Q+CiAgICA8aGludHNldCBw\012b2ludFRhZz0iaHIwMCI+CiAgICAgIDxoc3RlbSBw\012b3M9IjAiIHdpZHRoPSI0MCIgLz4KICAgICAgPGhz\012dGVtIHBvcz0iMzI4IiB3aWR0aD0iNDAiIC8+CiAg\012ICAgIDxoc3RlbSBwb3M9IjY0OCIgd2lkdGg9IjQw\012IiAvPgogICAgICA8dnN0ZW0gcG9zPSIxMjgiIHdp\012ZHRoPSI3MiIgLz4KICAgICAgPHZzdGVtIHBvcz0i\012NDE2IiB3aWR0aD0iNzIiIC8+CiAgICAgIDx2c3Rl\012bSBwb3M9IjQ0OCIgd2lkdGg9IjgwIiAvPgogICAg\012PC9oaW50c2V0PgogIDwvaGludFNldExpc3Q+Cg==";
};
},
{
glyphname = C;
layers = (
{
guideLines = (
{
angle = 90;
position = "{616, 0}";
}
);
hints = (
{
horizontal = 1;
origin = "{0, 0}";
type = Tag;
name = hr00;
}
);
layerId = "9E0117ED-02C0-4C46-91DE-7DE1029A8F9A";
name = Regular;
paths = (
{
closed = 1;
nodes = (
"636 109 LINE",
"583 62 OFFCURVE",
"515 35 OFFCURVE",
"426 35 CURVE SMOOTH",
"270 35 OFFCURVE",
"144 153 OFFCURVE",
"144 353 CURVE SMOOTH",
"144 524 OFFCURVE",
"245 658 OFFCURVE",
"420 658 CURVE SMOOTH",
"509 658 OFFCURVE",
"594 611 OFFCURVE",
"636 538 CURVE",
"636 649 LINE",
"604 667 OFFCURVE",
"533 700 OFFCURVE",
"428 700 CURVE SMOOTH",
"204 700 OFFCURVE",
"64 550 OFFCURVE",
"64 345 CURVE SMOOTH",
"64 118 OFFCURVE",
"232 -12 OFFCURVE",
"414 -12 CURVE SMOOTH",
"500 -12 OFFCURVE",
"588 22 OFFCURVE",
"636 61 CURVE"
);
}
);
width = 704;
}
);
leftKerningGroup = C;
rightKerningGroup = C;
unicode = 0043;
userData = {
com.adobe.type.autohint = "ICA8aGludFNldExpc3Q+CiAgICA8aGludHNldCBw\012b2ludFRhZz0iaHIwMCI+CiAgICAgIDxoc3RlbSBw\012b3M9Ii0xMiIgd2lkdGg9IjQ3IiAvPgogICAgICA8\012aHN0ZW0gcG9zPSI2NTkiIHdpZHRoPSI0MiIgLz4K\012ICAgICAgPHZzdGVtIHBvcz0iNjQiIHdpZHRoPSI4\012OCIgLz4KICAgIDwvaGludHNldD4KICA8L2hpbnRT\012ZXRMaXN0Pgo=";
com.typemytype.robofont.guides = (
{
angle = 90;
isGlobal = 0;
magnetic = 5;
x = 616;
y = 0;
}
);
};
},
{
glyphname = D;
layers = (
{
hints = (
{
horizontal = 1;
origin = "{0, 0}";
type = Tag;
name = hr00;
}
);
layerId = "9E0117ED-02C0-4C46-91DE-7DE1029A8F9A";
name = Regular;
paths = (
{
closed = 1;
nodes = (
"688 350 CURVE SMOOTH",
"688 475 OFFCURVE",
"629 579 OFFCURVE",
"523 638 CURVE SMOOTH",
"464 671 OFFCURVE",
"388 688 OFFCURVE",
"281 688 CURVE SMOOTH",
"85 688 LINE",
"85 688 OFFCURVE",
"128 683 OFFCURVE",
"128 596 CURVE SMOOTH",
"128 104 LINE SMOOTH",
"128 5 OFFCURVE",
"85 0 OFFCURVE",
"85 0 CURVE",
"282 0 LINE SMOOTH",
"389 0 OFFCURVE",
"469 18 OFFCURVE",
"533 56 CURVE SMOOTH",
"629 112 OFFCURVE",
"688 211 OFFCURVE"
);
},
{
closed = 1;
nodes = (
"608 340 CURVE SMOOTH",
"608 230 OFFCURVE",
"571 147 OFFCURVE",
"506 97 CURVE SMOOTH",
"457 59 OFFCURVE",
"393 40 OFFCURVE",
"281 40 CURVE SMOOTH",
"200 40 LINE",
"200 648 LINE",
"281 648 LINE SMOOTH",
"373 648 OFFCURVE",
"435 632 OFFCURVE",
"494 593 CURVE SMOOTH",
"562 548 OFFCURVE",
"608 460 OFFCURVE"
);
}
);
width = 744;
}
);
leftKerningGroup = B;
rightKerningGroup = D;
unicode = 0044;
userData = {
com.adobe.type.autohint = "ICA8aGludFNldExpc3Q+CiAgICA8aGludHNldCBw\012b2ludFRhZz0iaHIwMCI+CiAgICAgIDxoc3RlbSBw\012b3M9IjAiIHdpZHRoPSI0MCIgLz4KICAgICAgPGhz\012dGVtIHBvcz0iNjQ4IiB3aWR0aD0iNDAiIC8+CiAg\012ICAgIDx2c3RlbSBwb3M9IjEyOCIgd2lkdGg9Ijcy\012IiAvPgogICAgICA8dnN0ZW0gcG9zPSI2MDgiIHdp\012ZHRoPSI4MCIgLz4KICAgIDwvaGludHNldD4KICA8\012L2hpbnRTZXRMaXN0Pgo=";
};
},
{
glyphname = E;
layers = (
{
hints = (
{
horizontal = 1;
origin = "{0, 0}";
type = Tag;
name = hr00;
}
);
layerId = "9E0117ED-02C0-4C46-91DE-7DE1029A8F9A";
name = Regular;
paths = (
{
closed = 1;
nodes = (
"480 106 LINE",
"462 69 OFFCURVE",
"418 40 OFFCURVE",
"356 40 CURVE SMOOTH",
"200 40 LINE",
"200 324 LINE",
"373 324 LINE SMOOTH",
"417 324 OFFCURVE",
"435 296 OFFCURVE",
"435 296 CURVE",
"435 393 LINE",
"435 393 OFFCURVE",
"417 364 OFFCURVE",
"372 364 CURVE SMOOTH",
"200 364 LINE",
"200 648 LINE",
"339 648 LINE SMOOTH",
"419 648 OFFCURVE",
"440 611 OFFCURVE",
"447 588 CURVE",
"447 688 LINE",
"85 688 LINE",
"85 688 OFFCURVE",
"128 683 OFFCURVE",
"128 591 CURVE SMOOTH",
"128 100 LINE SMOOTH",
"128 3 OFFCURVE",
"85 0 OFFCURVE",
"85 0 CURVE",
"462 0 LINE"
);
}
);
width = 528;
}
);
leftKerningGroup = B;
rightKerningGroup = E;
unicode = 0045;
userData = {
com.adobe.type.autohint = "ICA8aGludFNldExpc3Q+CiAgICA8aGludHNldCBw\012b2ludFRhZz0iaHIwMCI+CiAgICAgIDxoc3RlbSBw\012b3M9IjAiIHdpZHRoPSI0MCIgLz4KICAgICAgPGhz\012dGVtIHBvcz0iMzI4IiB3aWR0aD0iNDAiIC8+CiAg\012ICAgIDxoc3RlbSBwb3M9IjY0OCIgd2lkdGg9IjQw\012IiAvPgogICAgICA8dnN0ZW0gcG9zPSIxMjgiIHdp\012ZHRoPSI3MiIgLz4KICAgIDwvaGludHNldD4KICA8\012L2hpbnRTZXRMaXN0Pgo=";
};
},
{
glyphname = F;
layers = (
{
hints = (
{
horizontal = 1;
origin = "{0, 0}";
type = Tag;
name = hr00;
}
);
layerId = "9E0117ED-02C0-4C46-91DE-7DE1029A8F9A";
name = Regular;
paths = (
{
closed = 1;
nodes = (
"447 586 CURVE",
"447 688 LINE",
"85 688 LINE",
"85 688 OFFCURVE",
"128 682 OFFCURVE",
"128 590 CURVE SMOOTH",
"128 93 LINE SMOOTH",
"128 4 OFFCURVE",
"85 0 OFFCURVE",
"85 0 CURVE",
"244 0 LINE",
"244 0 OFFCURVE",
"200 5 OFFCURVE",
"200 93 CURVE SMOOTH",
"200 324 LINE",
"373 324 LINE SMOOTH",
"431 324 OFFCURVE",
"435 295 OFFCURVE",
"435 295 CURVE",
"435 393 LINE",
"435 393 OFFCURVE",
"432 364 OFFCURVE",
"373 364 CURVE SMOOTH",
"200 364 LINE",
"200 648 LINE",
"354 648 LINE SMOOTH",
"415 648 OFFCURVE",
"441 613 OFFCURVE"
);
}
);
width = 496;
}
);
leftKerningGroup = B;
unicode = 0046;
userData = {
com.adobe.type.autohint = "ICA8aGludFNldExpc3Q+CiAgICA8aGludHNldCBw\012b2ludFRhZz0iaHIwMCI+CiAgICAgIDxoc3RlbSBw\012b3M9IjIxIiB3aWR0aD0iLTIxIiAvPgogICAgICA8\012aHN0ZW0gcG9zPSIzMjgiIHdpZHRoPSI0MCIgLz4K\012ICAgICAgPGhzdGVtIHBvcz0iNjQ4IiB3aWR0aD0i\012NDAiIC8+CiAgICAgIDx2c3RlbSBwb3M9IjEyOCIg\012d2lkdGg9IjcyIiAvPgogICAgPC9oaW50c2V0Pgog\012IDwvaGludFNldExpc3Q+Cg==";
};
},
{
glyphname = G;
layers = (
{
guideLines = (
{
angle = 90;
position = "{627, 0}";
}
);
hints = (
{
horizontal = 1;
origin = "{0, 0}";
type = Tag;
name = hr00;
}
);
layerId = "9E0117ED-02C0-4C46-91DE-7DE1029A8F9A";
name = Regular;
paths = (
{
closed = 1;
nodes = (
"656 57 CURVE",
"656 239 LINE SMOOTH",
"656 307 OFFCURVE",
"700 312 OFFCURVE",
"700 312 CURVE",
"540 312 LINE",
"540 312 OFFCURVE",
"584 303 OFFCURVE",
"584 233 CURVE SMOOTH",
"584 68 LINE",
"539 46 OFFCURVE",
"484 35 OFFCURVE",
"438 35 CURVE SMOOTH",
"284 35 OFFCURVE",
"144 141 OFFCURVE",
"144 352 CURVE SMOOTH",
"144 539 OFFCURVE",
"255 658 OFFCURVE",
"434 658 CURVE SMOOTH",
"517 658 OFFCURVE",
"610 611 OFFCURVE",
"652 538 CURVE",
"652 649 LINE",
"620 667 OFFCURVE",
"541 700 OFFCURVE",
"436 700 CURVE SMOOTH",
"212 700 OFFCURVE",
"64 549 OFFCURVE",
"64 344 CURVE SMOOTH",
"64 104 OFFCURVE",
"236 -11 OFFCURVE",
"419 -11 CURVE SMOOTH",
"500 -11 OFFCURVE",
"584 12 OFFCURVE"
);
}
);
width = 752;
}
);
leftKerningGroup = C;
rightKerningGroup = G;
unicode = 0047;
userData = {
com.adobe.type.autohint = "ICA8aGludFNldExpc3Q+CiAgICA8aGludHNldCBw\012b2ludFRhZz0iaHIwMCI+CiAgICAgIDxoc3RlbSBw\012b3M9Ii0xMSIgd2lkdGg9IjQ2IiAvPgogICAgICA8\012aHN0ZW0gcG9zPSI2NTkiIHdpZHRoPSI0MiIgLz4K\012ICAgICAgPHZzdGVtIHBvcz0iNjQiIHdpZHRoPSI4\012OCIgLz4KICAgICAgPHZzdGVtIHBvcz0iNTg0IiB3\012aWR0aD0iNzIiIC8+CiAgICA8L2hpbnRzZXQ+CiAg\012PC9oaW50U2V0TGlzdD4K";
com.typemytype.robofont.guides = (
{
angle = 90;
isGlobal = 0;
magnetic = 5;
x = 627;
y = 0;
}
);
};
},
{
glyphname = H;
layers = (
{
hints = (
{
horizontal = 1;
origin = "{0, 0}";
type = Tag;
name = hr00;
}
);
layerId = "9E0117ED-02C0-4C46-91DE-7DE1029A8F9A";
name = Regular;
paths = (
{
closed = 1;
nodes = (
"692 0 LINE",
"692 0 OFFCURVE",
"648 4 OFFCURVE",
"648 93 CURVE SMOOTH",
"648 595 LINE SMOOTH",
"648 685 OFFCURVE",
"691 688 OFFCURVE",
"691 688 CURVE",
"532 688 LINE",
"532 688 OFFCURVE",
"576 684 OFFCURVE",
"576 595 CURVE SMOOTH",
"576 364 LINE",
"200 364 LINE",
"200 595 LINE SMOOTH",
"200 684 OFFCURVE",
"244 688 OFFCURVE",
"244 688 CURVE",
"85 688 LINE",
"85 688 OFFCURVE",
"128 684 OFFCURVE",
"128 595 CURVE SMOOTH",
"128 93 LINE SMOOTH",
"128 3 OFFCURVE",
"85 0 OFFCURVE",
"85 0 CURVE",
"244 0 LINE",
"244 0 OFFCURVE",
"200 3 OFFCURVE",
"200 93 CURVE SMOOTH",
"200 320 LINE",
"576 320 LINE",
"576 93 LINE SMOOTH",
"576 3 OFFCURVE",
"532 0 OFFCURVE",
"532 0 CURVE"
);
}
);
width = 760;
}
);
leftKerningGroup = B;
rightKerningGroup = H;
unicode = 0048;
userData = {
com.adobe.type.autohint = "ICA8aGludFNldExpc3Q+CiAgICA8aGludHNldCBw\012b2ludFRhZz0iaHIwMCI+CiAgICAgIDxoc3RlbSBw\012b3M9IjIxIiB3aWR0aD0iLTIxIiAvPgogICAgICA8\012aHN0ZW0gcG9zPSIzMjYiIHdpZHRoPSI0NCIgLz4K\012ICAgICAgPGhzdGVtIHBvcz0iNjg4IiB3aWR0aD0i\012LTIwIiAvPgogICAgICA8dnN0ZW0gcG9zPSIxMjgi\012IHdpZHRoPSI3MiIgLz4KICAgICAgPHZzdGVtIHBv\012cz0iNTcyIiB3aWR0aD0iNzIiIC8+CiAgICA8L2hp\012bnRzZXQ+CiAgPC9oaW50U2V0TGlzdD4K";
};
},
{
glyphname = I;
layers = (
{
hints = (
{
horizontal = 1;
origin = "{0, 0}";
type = Tag;
name = hr00;
}
);
layerId = "9E0117ED-02C0-4C46-91DE-7DE1029A8F9A";
name = Regular;
paths = (
{
closed = 1;
nodes = (
"244 0 LINE",
"244 0 OFFCURVE",
"200 3 OFFCURVE",
"200 93 CURVE SMOOTH",
"200 595 LINE SMOOTH",
"200 684 OFFCURVE",
"244 688 OFFCURVE",
"244 688 CURVE",
"85 688 LINE",
"85 688 OFFCURVE",
"128 684 OFFCURVE",
"128 595 CURVE SMOOTH",
"128 93 LINE SMOOTH",
"128 3 OFFCURVE",
"84 0 OFFCURVE",
"84 0 CURVE"
);
}
);
width = 312;
}
);
leftKerningGroup = B;
rightKerningGroup = H;
unicode = 0049;
userData = {
com.adobe.type.autohint = "ICA8aGludFNldExpc3Q+CiAgICA8aGludHNldCBw\012b2ludFRhZz0iaHIwMCI+CiAgICAgIDxoc3RlbSBw\012b3M9IjIxIiB3aWR0aD0iLTIxIiAvPgogICAgICA8\012aHN0ZW0gcG9zPSI2ODgiIHdpZHRoPSItMjAiIC8+\012CiAgICAgIDx2c3RlbSBwb3M9IjEyOCIgd2lkdGg9\012IjcyIiAvPgogICAgPC9oaW50c2V0PgogIDwvaGlu\012dFNldExpc3Q+Cg==";
};
},
{
glyphname = J;
layers = (
{
hints = (
{
horizontal = 1;
origin = "{0, 0}";
type = Tag;
name = hr00;
}
);
layerId = "9E0117ED-02C0-4C46-91DE-7DE1029A8F9A";
name = Regular;
paths = (
{
closed = 1;
nodes = (
"243 688 CURVE",
"84 688 LINE",
"84 688 OFFCURVE",
"128 684 OFFCURVE",
"128 596 CURVE SMOOTH",
"128 35 LINE SMOOTH",
"128 -66 OFFCURVE",
"86 -145 OFFCURVE",
"16 -173 CURVE",
"113 -173 OFFCURVE",
"200 -89 OFFCURVE",
"200 31 CURVE SMOOTH",
"200 596 LINE SMOOTH",
"200 684 OFFCURVE",
"243 688 OFFCURVE"
);
}
);
width = 312;
}
);
leftKerningGroup = J;
rightKerningGroup = J;
unicode = 004A;
userData = {
com.adobe.type.autohint = "ICA8aGludFNldExpc3Q+CiAgICA8aGludHNldCBw\012b2ludFRhZz0iaHIwMCI+CiAgICAgIDxoc3RlbSBw\012b3M9Ii0xNTIiIHdpZHRoPSItMjEiIC8+CiAgICAg\012IDxoc3RlbSBwb3M9IjY4OCIgd2lkdGg9Ii0yMCIg\012Lz4KICAgICAgPHZzdGVtIHBvcz0iMTI4IiB3aWR0\012aD0iNzIiIC8+CiAgICA8L2hpbnRzZXQ+CiAgPC9o\012aW50U2V0TGlzdD4K";
};
},
{
glyphname = K;
layers = (
{
hints = (
{
horizontal = 1;
origin = "{0, 0}";
type = Tag;
name = hr00;
}
);
layerId = "9E0117ED-02C0-4C46-91DE-7DE1029A8F9A";
name = Regular;
paths = (
{
closed = 1;
nodes = (
"527 96 CURVE",
"274 371 LINE",
"498 593 LINE SMOOTH",
"582 677 OFFCURVE",
"628 687 OFFCURVE",
"637 688 CURVE",
"480 688 LINE",
"484 687 OFFCURVE",
"494 683 OFFCURVE",
"494 667 CURVE SMOOTH",
"494 653 OFFCURVE",
"477 629 OFFCURVE",
"437 589 CURVE SMOOTH",
"200 353 LINE",
"200 595 LINE SMOOTH",
"200 676 OFFCURVE",
"234 687 OFFCURVE",
"240 688 CURVE",
"86 688 LINE",
"93 686 OFFCURVE",
"128 675 OFFCURVE",
"128 595 CURVE SMOOTH",
"128 92 LINE SMOOTH",
"128 11 OFFCURVE",
"91 1 OFFCURVE",
"86 0 CURVE",
"240 0 LINE",
"233 1 OFFCURVE",
"200 13 OFFCURVE",
"200 92 CURVE SMOOTH",
"200 350 LINE",
"514 0 LINE",
"637 0 LINE",
"634 1 OFFCURVE",
"600 12 OFFCURVE"
);
}
);
width = 664;
}
);
leftKerningGroup = B;
rightKerningGroup = K;
unicode = 004B;
userData = {
com.adobe.type.autohint = "ICA8aGludFNldExpc3Q+CiAgICA8aGludHNldCBw\012b2ludFRhZz0iaHIwMCI+CiAgICAgIDxoc3RlbSBw\012b3M9IjIxIiB3aWR0aD0iLTIxIiAvPgogICAgICA8\012aHN0ZW0gcG9zPSI2ODgiIHdpZHRoPSItMjAiIC8+\012CiAgICAgIDx2c3RlbSBwb3M9IjEyOCIgd2lkdGg9\012IjcyIiAvPgogICAgPC9oaW50c2V0PgogIDwvaGlu\012dFNldExpc3Q+Cg==";
};
},
{
glyphname = L;
layers = (
{
hints = (
{
horizontal = 1;
origin = "{0, 0}";
type = Tag;
name = hr00;
}
);
layerId = "9E0117ED-02C0-4C46-91DE-7DE1029A8F9A";
name = Regular;
paths = (
{
closed = 1;
nodes = (
"128 100 LINE SMOOTH",
"128 3 OFFCURVE",
"85 0 OFFCURVE",
"85 0 CURVE",
"470 0 LINE",
"488 106 LINE",
"470 69 OFFCURVE",
"426 40 OFFCURVE",
"364 40 CURVE SMOOTH",
"200 40 LINE",
"200 595 LINE",
"200 684 OFFCURVE",
"244 688 OFFCURVE",
"244 688 CURVE",
"85 688 LINE",
"85 688 OFFCURVE",
"128 684 OFFCURVE",
"128 595 CURVE"
);
}
);
width = 506;
}
);
leftKerningGroup = B;
rightKerningGroup = L;
unicode = 004C;
userData = {
com.adobe.type.autohint = "ICA8aGludFNldExpc3Q+CiAgICA8aGludHNldCBw\012b2ludFRhZz0iaHIwMCI+CiAgICAgIDxoc3RlbSBw\012b3M9IjAiIHdpZHRoPSI0MCIgLz4KICAgICAgPGhz\012dGVtIHBvcz0iNjg4IiB3aWR0aD0iLTIwIiAvPgog\012ICAgICA8dnN0ZW0gcG9zPSIxMjgiIHdpZHRoPSI3\012MiIgLz4KICAgIDwvaGludHNldD4KICA8L2hpbnRT\012ZXRMaXN0Pgo=";
};
},
{
glyphname = M;
layers = (
{
hints = (
{
horizontal = 1;
origin = "{0, 21}";
type = Tag;
name = hr01;
},
{
horizontal = 1;
origin = "{0, 26}";
type = Tag;
name = hr02;
}
);
layerId = "9E0117ED-02C0-4C46-91DE-7DE1029A8F9A";
name = Regular;
paths = (
{
closed = 1;
nodes = (
"776 90 CURVE",
"776 597 LINE SMOOTH",
"776 677 OFFCURVE",
"813 687 OFFCURVE",
"819 688 CURVE",
"698 688 LINE",
"457 129 LINE",
"212 688 LINE",
"77 688 LINE",
"86 686 OFFCURVE",
"128 675 OFFCURVE",
"128 600 CURVE SMOOTH",
"128 99 LINE SMOOTH",
"128 11 OFFCURVE",
"84 1 OFFCURVE",
"77 0 CURVE",
"225 0 LINE",
"217 1 OFFCURVE",
"176 14 OFFCURVE",
"176 99 CURVE SMOOTH",
"176 593 LINE",
"442 -11 LINE",
"704 594 LINE",
"704 94 LINE SMOOTH",
"704 10 OFFCURVE",
"669 1 OFFCURVE",
"664 0 CURVE",
"819 0 LINE",
"812 1 OFFCURVE",
"776 12 OFFCURVE"
);
}
);
width = 888;
}
);
leftKerningGroup = B;
rightKerningGroup = H;
unicode = 004D;
userData = {
com.adobe.type.autohint = "ICA8aGludFNldExpc3Q+CiAgICA8aGludHNldCBw\012b2ludFRhZz0iaHIwMSI+CiAgICAgIDxoc3RlbSBw\012b3M9IjEwIiB3aWR0aD0iLTIxIiAvPgogICAgICA8\012aHN0ZW0gcG9zPSI2ODgiIHdpZHRoPSItMjAiIC8+\012CiAgICAgIDx2c3RlbSBwb3M9IjEyOCIgd2lkdGg9\012IjQ4IiAvPgogICAgICA8dnN0ZW0gcG9zPSI3MDQi\012IHdpZHRoPSI3MiIgLz4KICAgIDwvaGludHNldD4K\012ICAgIDxoaW50c2V0IHBvaW50VGFnPSJocjAyIj4K\012ICAgICAgPGhzdGVtIHBvcz0iMjEiIHdpZHRoPSIt\012MjEiIC8+CiAgICAgIDxoc3RlbSBwb3M9IjY4OCIg\012d2lkdGg9Ii0yMCIgLz4KICAgICAgPHZzdGVtIHBv\012cz0iMTI4IiB3aWR0aD0iNDgiIC8+CiAgICAgIDx2\012c3RlbSBwb3M9IjcwNCIgd2lkdGg9IjcyIiAvPgog\012ICAgPC9oaW50c2V0PgogIDwvaGludFNldExpc3Q+\012Cg==";
};
},
{
glyphname = N;
layers = (
{
hints = (
{
horizontal = 1;
origin = "{0, 0}";
type = Tag;
name = hr00;
}
);
layerId = "9E0117ED-02C0-4C46-91DE-7DE1029A8F9A";
name = Regular;
paths = (
{
closed = 1;
nodes = (
"640 597 CURVE",
"640 141 LINE",
"171 688 LINE",
"47 688 LINE",
"94 679 OFFCURVE",
"128 635 OFFCURVE",
"128 591 CURVE SMOOTH",
"128 91 LINE SMOOTH",
"128 14 OFFCURVE",
"93 2 OFFCURVE",
"85 0 CURVE",
"226 0 LINE",
"215 2 OFFCURVE",
"176 15 OFFCURVE",
"176 90 CURVE SMOOTH",
"176 569 LINE",
"688 -28 LINE",
"688 597 LINE SMOOTH",
"688 673 OFFCURVE",
"720 686 OFFCURVE",
"729 688 CURVE",
"588 688 LINE",
"599 685 OFFCURVE",
"640 673 OFFCURVE"
);
}
);
width = 800;
}
);
leftKerningGroup = B;
rightKerningGroup = N;
unicode = 004E;
userData = {
com.adobe.type.autohint = "ICA8aGludFNldExpc3Q+CiAgICA8aGludHNldCBw\012b2ludFRhZz0iaHIwMCI+CiAgICAgIDxoc3RlbSBw\012b3M9Ii03IiB3aWR0aD0iLTIxIiAvPgogICAgICA8\012aHN0ZW0gcG9zPSIyMSIgd2lkdGg9Ii0yMSIgLz4K\012ICAgICAgPGhzdGVtIHBvcz0iNjg4IiB3aWR0aD0i\012LTIwIiAvPgogICAgICA8dnN0ZW0gcG9zPSIxMjgi\012IHdpZHRoPSI0OCIgLz4KICAgICAgPHZzdGVtIHBv\012cz0iNjQxIiB3aWR0aD0iNDgiIC8+CiAgICA8L2hp\012bnRzZXQ+CiAgPC9oaW50U2V0TGlzdD4K";
};
},
{
glyphname = O;
layers = (
{
guideLines = (
{
angle = 90;
position = "{414, 0}";
},
{
angle = 90;
position = "{144, 0}";
}
);
hints = (
{
horizontal = 1;
origin = "{0, 0}";
type = Tag;
name = hr00;
}
);
layerId = "9E0117ED-02C0-4C46-91DE-7DE1029A8F9A";
name = Regular;
paths = (
{
closed = 1;
nodes = (
"432 30 CURVE",
"266 30 OFFCURVE",
"144 166 OFFCURVE",
"144 351 CURVE SMOOTH",
"144 537 OFFCURVE",
"251 658 OFFCURVE",
"402 658 CURVE SMOOTH",
"568 658 OFFCURVE",
"690 522 OFFCURVE",
"690 337 CURVE SMOOTH",
"690 151 OFFCURVE",
"583 30 OFFCURVE"
);
},
{
closed = 1;
nodes = (
"406 -12 CURVE SMOOTH",
"625 -12 OFFCURVE",
"770 138 OFFCURVE",
"770 352 CURVE SMOOTH",
"770 584 OFFCURVE",
"603 700 OFFCURVE",
"428 700 CURVE",
"209 700 OFFCURVE",
"64 550 OFFCURVE",
"64 336 CURVE SMOOTH",
"64 104 OFFCURVE",
"231 -12 OFFCURVE"
);
}
);
width = 818;
}
);
leftKerningGroup = C;
rightKerningGroup = D;
unicode = 004F;
userData = {
com.adobe.type.autohint = "ICA8aGludFNldExpc3Q+CiAgICA8aGludHNldCBw\012b2ludFRhZz0iaHIwMCI+CiAgICAgIDxoc3RlbSBw\012b3M9Ii0xMiIgd2lkdGg9IjQyIiAvPgogICAgICA8\012aHN0ZW0gcG9zPSI2NTgiIHdpZHRoPSI0MiIgLz4K\012ICAgICAgPHZzdGVtIHBvcz0iNjQiIHdpZHRoPSI4\012MCIgLz4KICAgICAgPHZzdGVtIHBvcz0iNjkwIiB3\012aWR0aD0iODAiIC8+CiAgICA8L2hpbnRzZXQ+CiAg\012PC9oaW50U2V0TGlzdD4K";
com.typemytype.robofont.guides = (
{
angle = 90;
isGlobal = 0;
magnetic = 5;
x = 414;
y = 0;
},
{
angle = 90;
isGlobal = 0;
magnetic = 5;
x = 144;
y = 0;
}
);
};
},
{
glyphname = P;
layers = (
{
guideLines = (
{
angle = 90;
position = "{512, 0}";
}
);
hints = (
{
horizontal = 1;
origin = "{0, 0}";
type = Tag;
name = hr00;
}
);
layerId = "9E0117ED-02C0-4C46-91DE-7DE1029A8F9A";
name = Regular;
paths = (
{
closed = 1;
nodes = (
"423 662 CURVE SMOOTH",
"392 678 OFFCURVE",
"353 688 OFFCURVE",
"281 688 CURVE SMOOTH",
"85 688 LINE",
"85 688 OFFCURVE",
"128 683 OFFCURVE",
"128 593 CURVE SMOOTH",
"128 92 LINE SMOOTH",
"128 3 OFFCURVE",
"85 0 OFFCURVE",
"85 0 CURVE",
"244 0 LINE",
"244 0 OFFCURVE",
"200 4 OFFCURVE",
"200 92 CURVE SMOOTH",
"200 310 LINE",
"232 304 OFFCURVE",
"265 301 OFFCURVE",
"290 301 CURVE SMOOTH",
"431 301 OFFCURVE",
"516 387 OFFCURVE",
"516 502 CURVE SMOOTH",
"516 566 OFFCURVE",
"485 630 OFFCURVE"
);
},
{
closed = 1;
nodes = (
"290 341 CURVE SMOOTH",
"255 341 OFFCURVE",
"227 344 OFFCURVE",
"200 349 CURVE",
"200 648 LINE",
"278 648 LINE SMOOTH",
"376 648 OFFCURVE",
"439 583 OFFCURVE",
"439 489 CURVE SMOOTH",
"439 401 OFFCURVE",
"384 341 OFFCURVE"
);
}
);
width = 548;
}
);
leftKerningGroup = B;
unicode = 0050;
userData = {
com.adobe.type.autohint = "ICA8aGludFNldExpc3Q+CiAgICA8aGludHNldCBw\012b2ludFRhZz0iaHIwMCI+CiAgICAgIDxoc3RlbSBw\012b3M9IjIxIiB3aWR0aD0iLTIxIiAvPgogICAgICA8\012aHN0ZW0gcG9zPSIzMDEiIHdpZHRoPSI0MCIgLz4K\012ICAgICAgPGhzdGVtIHBvcz0iNjQ4IiB3aWR0aD0i\012NDAiIC8+CiAgICAgIDx2c3RlbSBwb3M9IjEyOCIg\012d2lkdGg9IjcyIiAvPgogICAgICA8dnN0ZW0gcG9z\012PSI0MzkiIHdpZHRoPSI3NyIgLz4KICAgIDwvaGlu\012dHNldD4KICA8L2hpbnRTZXRMaXN0Pgo=";
com.typemytype.robofont.guides = (
{
angle = 90;
isGlobal = 0;
magnetic = 5;
x = 512;
y = 0;
}
);
};
},
{
glyphname = Q;
layers = (
{
hints = (
{
horizontal = 1;
origin = "{0, 0}";
type = Tag;
name = hr00;
}
);
layerId = "9E0117ED-02C0-4C46-91DE-7DE1029A8F9A";
name = Regular;
paths = (
{
closed = 1;
nodes = (
"406 -12 CURVE SMOOTH",
"443 -12 OFFCURVE",
"477 -7 OFFCURVE",
"510 0 CURVE",
"613 -100 OFFCURVE",
"710 -141 OFFCURVE",
"775 -141 CURVE SMOOTH",
"810 -141 OFFCURVE",
"850 -133 OFFCURVE",
"872 -123 CURVE",
"866 -123 LINE SMOOTH",
"820 -123 OFFCURVE",
"685 -60 OFFCURVE",
"593 32 CURVE",
"704 92 OFFCURVE",
"770 207 OFFCURVE",
"770 352 CURVE SMOOTH",
"770 584 OFFCURVE",
"603 700 OFFCURVE",
"428 700 CURVE SMOOTH",
"209 700 OFFCURVE",
"64 550 OFFCURVE",
"64 336 CURVE SMOOTH",
"64 104 OFFCURVE",
"231 -12 OFFCURVE"
);
},
{
closed = 1;
nodes = (
"432 30 CURVE SMOOTH",
"266 30 OFFCURVE",
"144 166 OFFCURVE",
"144 351 CURVE SMOOTH",
"144 537 OFFCURVE",
"251 658 OFFCURVE",
"402 658 CURVE SMOOTH",
"568 658 OFFCURVE",
"690 522 OFFCURVE",
"690 337 CURVE SMOOTH",
"690 151 OFFCURVE",
"583 30 OFFCURVE"
);
}
);
width = 834;
}
);
leftKerningGroup = C;
rightKerningGroup = D;
unicode = 0051;
userData = {
com.adobe.type.autohint = "ICA8aGludFNldExpc3Q+CiAgICA8aGludHNldCBw\012b2ludFRhZz0iaHIwMCI+CiAgICAgIDxoc3RlbSBw\012b3M9Ii0xMjAiIHdpZHRoPSItMjEiIC8+CiAgICAg\012IDxoc3RlbSBwb3M9Ii0xMiIgd2lkdGg9IjQyIiAv\012PgogICAgICA8aHN0ZW0gcG9zPSI2NTgiIHdpZHRo\012PSI0MiIgLz4KICAgICAgPHZzdGVtIHBvcz0iNjQi\012IHdpZHRoPSI4MCIgLz4KICAgICAgPHZzdGVtIHBv\012cz0iNjkwIiB3aWR0aD0iODAiIC8+CiAgICA8L2hp\012bnRzZXQ+CiAgPC9oaW50U2V0TGlzdD4K";
};
},
{
glyphname = R;
layers = (
{
hints = (
{
horizontal = 1;
origin = "{0, 0}";
type = Tag;
name = hr00;
}
);
layerId = "9E0117ED-02C0-4C46-91DE-7DE1029A8F9A";
name = Regular;
paths = (
{
closed = 1;
nodes = (
"226 346 LINE",
"498 0 LINE",
"615 0 LINE",
"615 0 OFFCURVE",
"589 9 OFFCURVE",
"511 96 CURVE SMOOTH",
"335 320 LINE",
"337 320 OFFCURVE",
"349 323 OFFCURVE",
"351 323 CURVE SMOOTH",
"449 346 OFFCURVE",
"507 429 OFFCURVE",
"507 508 CURVE SMOOTH",
"507 597 OFFCURVE",
"448 688 OFFCURVE",
"283 688 CURVE SMOOTH",
"85 688 LINE",
"85 688 OFFCURVE",
"128 685 OFFCURVE",
"128 592 CURVE SMOOTH",
"128 92 LINE SMOOTH",
"128 3 OFFCURVE",
"85 0 OFFCURVE",
"85 0 CURVE",
"244 0 LINE",
"244 0 OFFCURVE",
"200 2 OFFCURVE",
"200 92 CURVE SMOOTH",
"200 648 LINE",
"285 648 LINE SMOOTH",
"388 648 OFFCURVE",
"435 570 OFFCURVE",
"435 496 CURVE SMOOTH",
"435 422 OFFCURVE",
"383 346 OFFCURVE",
"286 346 CURVE SMOOTH"
);
}
);
width = 620;
}
);
leftKerningGroup = B;
rightKerningGroup = R;
unicode = 0052;
userData = {
com.adobe.type.autohint = "ICA8aGludFNldExpc3Q+CiAgICA8aGludHNldCBw\012b2ludFRhZz0iaHIwMCI+CiAgICAgIDxoc3RlbSBw\012b3M9IjIxIiB3aWR0aD0iLTIxIiAvPgogICAgICA8\012aHN0ZW0gcG9zPSI2NDgiIHdpZHRoPSI0MCIgLz4K\012ICAgICAgPHZzdGVtIHBvcz0iMTI4IiB3aWR0aD0i\012NzIiIC8+CiAgICAgIDx2c3RlbSBwb3M9IjQzNSIg\012d2lkdGg9IjcyIiAvPgogICAgPC9oaW50c2V0Pgog\012IDwvaGludFNldExpc3Q+Cg==";
};
},
{
glyphname = S;
layers = (
{
guideLines = (
{
angle = 90;
position = "{266, 0}";
}
);
hints = (
{
horizontal = 1;
origin = "{0, 0}";
type = Tag;
name = hr00;
}
);
layerId = "9E0117ED-02C0-4C46-91DE-7DE1029A8F9A";
name = Regular;
paths = (
{
closed = 1;
nodes = (
"475 183 CURVE SMOOTH",
"475 297 OFFCURVE",
"386 342 OFFCURVE",
"299 383 CURVE SMOOTH",
"219 421 OFFCURVE",
"141 456 OFFCURVE",
"141 535 CURVE SMOOTH",
"141 600 OFFCURVE",
"189 660 OFFCURVE",
"268 660 CURVE SMOOTH",
"331 660 OFFCURVE",
"405 621 OFFCURVE",
"439 544 CURVE",
"439 652 LINE",
"391 682 OFFCURVE",
"332 700 OFFCURVE",
"271 700 CURVE SMOOTH",
"167 700 OFFCURVE",
"81 628 OFFCURVE",
"81 519 CURVE SMOOTH",
"81 434 OFFCURVE",
"135 382 OFFCURVE",
"247 330 CURVE SMOOTH",
"366 275 OFFCURVE",
"408 237 OFFCURVE",
"408 162 CURVE SMOOTH",
"408 86 OFFCURVE",
"349 28 OFFCURVE",
"272 28 CURVE SMOOTH",
"200 28 OFFCURVE",
"118 70 OFFCURVE",
"81 164 CURVE",
"81 43 LINE",
"131 8 OFFCURVE",
"197 -12 OFFCURVE",
"267 -12 CURVE SMOOTH",
"377 -12 OFFCURVE",
"475 59 OFFCURVE"
);
}
);
width = 528;
}
);
leftKerningGroup = S;
rightKerningGroup = S;
unicode = 0053;
userData = {
com.adobe.type.autohint = "ICA8aGludFNldExpc3Q+CiAgICA8aGludHNldCBw\012b2ludFRhZz0iaHIwMCI+CiAgICAgIDxoc3RlbSBw\012b3M9Ii0xMiIgd2lkdGg9IjQwIiAvPgogICAgICA8\012aHN0ZW0gcG9zPSI2NjAiIHdpZHRoPSI0MCIgLz4K\012ICAgICAgPHZzdGVtIHBvcz0iODAiIHdpZHRoPSI2\012MSIgLz4KICAgICAgPHZzdGVtIHBvcz0iNDA5IiB3\012aWR0aD0iMjYiIC8+CiAgICAgIDx2c3RlbSBwb3M9\012IjQwOSIgd2lkdGg9IjcwIiAvPgogICAgPC9oaW50\012c2V0PgogIDwvaGludFNldExpc3Q+Cg==";
com.typemytype.robofont.guides = (
{
angle = 90;
isGlobal = 0;
magnetic = 5;
x = 266;
y = 0;
}
);
};
},
{
glyphname = T;
layers = (
{
hints = (
{
horizontal = 1;
origin = "{0, 0}";
type = Tag;
name = hr00;
}
);
layerId = "9E0117ED-02C0-4C46-91DE-7DE1029A8F9A";
name = Regular;
paths = (
{
closed = 1;
nodes = (
"248 648 LINE",
"248 93 LINE SMOOTH",
"248 1 OFFCURVE",
"205 0 OFFCURVE",
"205 0 CURVE",
"364 0 LINE",
"364 0 OFFCURVE",
"320 2 OFFCURVE",
"320 93 CURVE SMOOTH",
"320 648 LINE",
"420 648 LINE SMOOTH",
"483 648 OFFCURVE",
"519 620 OFFCURVE",
"535 588 CURVE",
"521 688 LINE",
"47 688 LINE",
"33 588 LINE",
"49 620 OFFCURVE",
"85 648 OFFCURVE",
"148 648 CURVE"
);
}
);
width = 552;
}
);
leftKerningGroup = T;
rightKerningGroup = T;
unicode = 0054;
userData = {
com.adobe.type.autohint = "ICA8aGludFNldExpc3Q+CiAgICA8aGludHNldCBw\012b2ludFRhZz0iaHIwMCI+CiAgICAgIDxoc3RlbSBw\012b3M9IjIxIiB3aWR0aD0iLTIxIiAvPgogICAgICA8\012aHN0ZW0gcG9zPSI2NDgiIHdpZHRoPSI0MCIgLz4K\012ICAgICAgPHZzdGVtIHBvcz0iMjQ4IiB3aWR0aD0i\012NzIiIC8+CiAgICA8L2hpbnRzZXQ+CiAgPC9oaW50\012U2V0TGlzdD4K";
};
},
{
glyphname = U;
layers = (
{
hints = (
{
horizontal = 1;
origin = "{0, 0}";
type = Tag;
name = hr00;
}
);
layerId = "9E0117ED-02C0-4C46-91DE-7DE1029A8F9A";
name = Regular;
paths = (
{
closed = 1;
nodes = (
"662 688 CURVE",
"518 688 LINE",
"518 688 OFFCURVE",
"562 685 OFFCURVE",
"562 595 CURVE SMOOTH",
"562 234 LINE SMOOTH",
"562 98 OFFCURVE",
"490 34 OFFCURVE",
"383 34 CURVE SMOOTH",
"262 34 OFFCURVE",
"200 110 OFFCURVE",
"200 237 CURVE SMOOTH",
"200 598 LINE SMOOTH",
"200 684 OFFCURVE",
"242 688 OFFCURVE",
"242 688 CURVE",
"86 688 LINE",
"86 688 OFFCURVE",
"128 685 OFFCURVE",
"128 595 CURVE SMOOTH",
"128 237 LINE SMOOTH",
"128 82 OFFCURVE",
"217 -12 OFFCURVE",
"377 -12 CURVE SMOOTH",
"520 -12 OFFCURVE",
"618 79 OFFCURVE",
"618 239 CURVE SMOOTH",
"618 595 LINE SMOOTH",
"618 684 OFFCURVE",
"662 688 OFFCURVE"
);
}
);
width = 712;
}
);
leftKerningGroup = U;
rightKerningGroup = U;
unicode = 0055;
userData = {
com.adobe.type.autohint = "ICA8aGludFNldExpc3Q+CiAgICA8aGludHNldCBw\012b2ludFRhZz0iaHIwMCI+CiAgICAgIDxoc3RlbSBw\012b3M9Ii0xMiIgd2lkdGg9IjQ2IiAvPgogICAgICA8\012aHN0ZW0gcG9zPSI2ODgiIHdpZHRoPSItMjAiIC8+\012CiAgICAgIDx2c3RlbSBwb3M9IjEyOCIgd2lkdGg9\012IjcyIiAvPgogICAgICA8dnN0ZW0gcG9zPSI1NjIi\012IHdpZHRoPSI1NiIgLz4KICAgIDwvaGludHNldD4K\012ICA8L2hpbnRTZXRMaXN0Pgo=";
};
},
{
glyphname = V;
layers = (
{
hints = (
{
horizontal = 1;
origin = "{0, 0}";
type = Tag;
name = hr00;
}
);
layerId = "9E0117ED-02C0-4C46-91DE-7DE1029A8F9A";
name = Regular;
paths = (
{
closed = 1;
nodes = (
"524 588 CURVE",
"336 126 LINE",
"142 601 LINE SMOOTH",
"136 616 OFFCURVE",
"127 636 OFFCURVE",
"127 653 CURVE SMOOTH",
"127 668 OFFCURVE",
"132 682 OFFCURVE",
"154 688 CURVE",
"-13 688 LINE",
"-6 686 OFFCURVE",
"31 674 OFFCURVE",
"66 590 CURVE SMOOTH",
"323 -24 LINE",
"576 587 LINE SMOOTH",
"614 677 OFFCURVE",
"651 687 OFFCURVE",
"657 688 CURVE",
"489 688 LINE",
"521 682 OFFCURVE",
"534 660 OFFCURVE",
"534 635 CURVE SMOOTH",
"534 619 OFFCURVE",
"530 602 OFFCURVE"
);
}
);
width = 628;
}
);
unicode = 0056;
userData = {
com.adobe.type.autohint = "ICA8aGludFNldExpc3Q+CiAgICA8aGludHNldCBw\012b2ludFRhZz0iaHIwMCI+CiAgICAgIDxoc3RlbSBw\012b3M9Ii0zIiB3aWR0aD0iLTIxIiAvPgogICAgICA8\012aHN0ZW0gcG9zPSI2ODgiIHdpZHRoPSItMjAiIC8+\012CiAgICA8L2hpbnRzZXQ+CiAgPC9oaW50U2V0TGlz\012dD4K";
};
},
{
glyphname = W;
layers = (
{
hints = (
{
horizontal = 1;
origin = "{0, 0}";
type = Tag;
name = hr00;
}
);
layerId = "9E0117ED-02C0-4C46-91DE-7DE1029A8F9A";
name = Regular;
paths = (
{
closed = 1;
nodes = (
"689 157 LINE",
"496 707 LINE",
"293 153 LINE",
"167 570 LINE SMOOTH",
"155 611 OFFCURVE",
"144 635 OFFCURVE",
"144 655 CURVE SMOOTH",
"144 671 OFFCURVE",
"151 684 OFFCURVE",
"172 688 CURVE",
"6 688 LINE",
"13 686 OFFCURVE",
"55 676 OFFCURVE",
"82 590 CURVE SMOOTH",
"279 -24 LINE",
"478 530 LINE",
"671 -24 LINE",
"887 587 LINE SMOOTH",
"919 679 OFFCURVE",
"963 687 OFFCURVE",
"969 688 CURVE",
"814 688 LINE",
"839 686 OFFCURVE",
"850 669 OFFCURVE",
"850 644 CURVE SMOOTH",
"850 628 OFFCURVE",
"845 609 OFFCURVE",
"838 588 CURVE SMOOTH"
);
}
);
width = 960;
}
);
leftKerningGroup = W;
rightKerningGroup = W;
unicode = 0057;
userData = {
com.adobe.type.autohint = "ICA8aGludFNldExpc3Q+CiAgICA8aGludHNldCBw\012b2ludFRhZz0iaHIwMCI+CiAgICAgIDxoc3RlbSBw\012b3M9Ii0zIiB3aWR0aD0iLTIxIiAvPgogICAgICA8\012aHN0ZW0gcG9zPSI2ODgiIHdpZHRoPSItMjAiIC8+\012CiAgICA8L2hpbnRzZXQ+CiAgPC9oaW50U2V0TGlz\012dD4K";
};
},
{
glyphname = X;
lastChange = "2015-10-26 06:24:13 +0000";
layers = (
{
hints = (
{
horizontal = 1;
origin = "{0, 0}";
type = Tag;
name = hr00;
}
);
layerId = "9E0117ED-02C0-4C46-91DE-7DE1029A8F9A";
name = Regular;
paths = (
{
closed = 1;
nodes = (
"680 0 LINE",
"680 0 OFFCURVE",
"640 4 OFFCURVE",
"568 116 CURVE SMOOTH",
"407 366 LINE",
"589 609 LINE SMOOTH",
"645 685 OFFCURVE",
"678 688 OFFCURVE",
"678 688 CURVE",
"529 688 LINE",
"551 686 OFFCURVE",
"559 676 OFFCURVE",
"559 662 CURVE SMOOTH",
"559 644 OFFCURVE",
"546 620 OFFCURVE",
"528 596 CURVE SMOOTH",
"383 404 LINE",
"244 620 LINE SMOOTH",
"235 634 OFFCURVE",
"222 654 OFFCURVE",
"222 669 CURVE SMOOTH",
"222 678 OFFCURVE",
"227 685 OFFCURVE",
"241 688 CURVE",
"74 688 LINE",
"74 688 OFFCURVE",
"112 684 OFFCURVE",
"174 588 CURVE SMOOTH",
"335 339 LINE",
"153 98 LINE SMOOTH",
"81 2 OFFCURVE",
"52 0 OFFCURVE",
"52 0 CURVE",
"202 0 LINE",
"178 3 OFFCURVE",
"170 13 OFFCURVE",
"170 26 CURVE SMOOTH",
"170 46 OFFCURVE",
"189 72 OFFCURVE",
"202 90 CURVE SMOOTH",
"359 300 LINE",
"499 84 LINE SMOOTH",
"508 70 OFFCURVE",
"531 38 OFFCURVE",
"531 18 CURVE SMOOTH",
"531 9 OFFCURVE",
"527 2 OFFCURVE",
"513 0 CURVE"
);
}
);
width = 716;
}
);
unicode = 0058;
userData = {
com.adobe.type.autohint = "ICA8aGludFNldExpc3Q+CiAgICA8aGludHNldCBw\012b2ludFRhZz0iaHIwMCI+CiAgICAgIDxoc3RlbSBw\012b3M9IjIxIiB3aWR0aD0iLTIxIiAvPgogICAgICA8\012aHN0ZW0gcG9zPSI2ODgiIHdpZHRoPSItMjAiIC8+\012CiAgICA8L2hpbnRzZXQ+CiAgPC9oaW50U2V0TGlz\012dD4K";
};
},
{
glyphname = Y;
layers = (
{
hints = (
{
horizontal = 1;
origin = "{0, 0}";
type = Tag;
name = hr00;
}
);
layerId = "9E0117ED-02C0-4C46-91DE-7DE1029A8F9A";
name = Regular;
paths = (
{
closed = 1;
nodes = (
"469 652 CURVE SMOOTH",
"469 639 OFFCURVE",
"467 620 OFFCURVE",
"452 595 CURVE SMOOTH",
"307 344 LINE",
"162 599 LINE SMOOTH",
"147 625 OFFCURVE",
"137 643 OFFCURVE",
"137 656 CURVE SMOOTH",
"137 683 OFFCURVE",
"157 687 OFFCURVE",
"162 688 CURVE",
"-6 688 LINE",
"0 686 OFFCURVE",
"34 675 OFFCURVE",
"81 593 CURVE SMOOTH",
"252 296 LINE",
"252 93 LINE SMOOTH",
"252 11 OFFCURVE",
"217 1 OFFCURVE",
"212 0 CURVE",
"364 0 LINE",
"357 1 OFFCURVE",
"324 13 OFFCURVE",
"324 93 CURVE SMOOTH",
"324 295 LINE",
"497 592 LINE SMOOTH",
"546 677 OFFCURVE",
"576 687 OFFCURVE",
"582 688 CURVE",
"435 688 LINE",
"442 687 OFFCURVE",
"469 681 OFFCURVE"
);
}
);
width = 560;
}
);
leftKerningGroup = Y;
rightKerningGroup = Y;
unicode = 0059;
userData = {
com.adobe.type.autohint = "ICA8aGludFNldExpc3Q+CiAgICA8aGludHNldCBw\012b2ludFRhZz0iaHIwMCI+CiAgICAgIDxoc3RlbSBw\012b3M9IjIxIiB3aWR0aD0iLTIxIiAvPgogICAgICA8\012aHN0ZW0gcG9zPSI2ODgiIHdpZHRoPSItMjAiIC8+\012CiAgICA8L2hpbnRzZXQ+CiAgPC9oaW50U2V0TGlz\012dD4K";
};
},
{
glyphname = Z;
layers = (
{
hints = (
{
horizontal = 1;
origin = "{0, 0}";
type = Tag;
name = hr00;
}
);
layerId = "9E0117ED-02C0-4C46-91DE-7DE1029A8F9A";
name = Regular;
paths = (
{
closed = 1;
nodes = (
"475 648 LINE",
"58 0 LINE",
"586 0 LINE",
"604 106 LINE",
"586 69 OFFCURVE",
"542 40 OFFCURVE",
"480 40 CURVE",
"172 40 LINE",
"588 688 LINE",
"80 688 LINE",
"80 588 LINE",
"87 611 OFFCURVE",
"108 648 OFFCURVE",
"188 648 CURVE"
);
}
);
width = 652;
}
);
leftKerningGroup = Z;
rightKerningGroup = Z;
unicode = 005A;
userData = {
com.adobe.type.autohint = "ICA8aGludFNldExpc3Q+CiAgICA8aGludHNldCBw\012b2ludFRhZz0iaHIwMCI+CiAgICAgIDxoc3RlbSBw\012b3M9IjAiIHdpZHRoPSI0MCIgLz4KICAgICAgPGhz\012dGVtIHBvcz0iNjQ4IiB3aWR0aD0iNDAiIC8+CiAg\012ICA8L2hpbnRzZXQ+CiAgPC9oaW50U2V0TGlzdD4K";
};
},
{
glyphname = bracketleft;
layers = (
{
hints = (
{
horizontal = 1;
origin = "{0, 2}";
type = Tag;
name = hr01;
},
{
horizontal = 1;
origin = "{0, 4}";
type = Tag;
name = hr02;
}
);
layerId = "9E0117ED-02C0-4C46-91DE-7DE1029A8F9A";
name = Regular;
paths = (
{
closed = 1;
nodes = (
"324 -232 LINE",
"324 -192 LINE",
"144 -192 LINE",
"144 687 LINE",
"324 687 LINE",
"324 727 LINE",
"80 727 LINE",
"80 -232 LINE"
);
}
);
width = 368;
}
);
rightKerningGroup = parenleft;
unicode = 005B;
userData = {
com.adobe.type.autohint = "ICA8aGludFNldExpc3Q+CiAgICA8aGludHNldCBw\012b2ludFRhZz0iaHIwMSI+CiAgICAgIDxoc3RlbSBw\012b3M9Ii0yMTQiIHdpZHRoPSI0MCIgLz4KICAgICAg\012PGhzdGVtIHBvcz0iNjU0IiB3aWR0aD0iMzgiIC8+\012CiAgICAgIDx2c3RlbSBwb3M9IjU2IiB3aWR0aD0i\012NDciIC8+CiAgICA8L2hpbnRzZXQ+CiAgICA8aGlu\012dHNldCBwb2ludFRhZz0iaHIwMiI+CiAgICAgIDxo\012c3RlbSBwb3M9Ii0yMTQiIHdpZHRoPSI0MCIgLz4K\012ICAgICAgPGhzdGVtIHBvcz0iNjU0IiB3aWR0aD0i\012MzgiIC8+CiAgICAgIDx2c3RlbSBwb3M9IjU2IiB3\012aWR0aD0iMTIxIiAvPgogICAgPC9oaW50c2V0Pgog\012IDwvaGludFNldExpc3Q+Cg==";
};
},
{
glyphname = backslash;
layers = (
{
hints = (
{
horizontal = 1;
origin = "{0, 0}";
type = Tag;
name = hr00;
}
);
layerId = "9E0117ED-02C0-4C46-91DE-7DE1029A8F9A";
name = Regular;
paths = (
{
closed = 1;
nodes = (
"364 -29 LINE",
"412 -29 LINE",
"97 727 LINE",
"52 727 LINE"
);
}
);
width = 464;
}
);
unicode = 005C;
userData = {
com.adobe.type.autohint = "ICA8aGludFNldExpc3Q+CiAgICA8aGludHNldCBw\012b2ludFRhZz0iaHIwMCI+CiAgICAgIDxoc3RlbSBw\012b3M9IjIxIiB3aWR0aD0iLTIxIiAvPgogICAgICA8\012aHN0ZW0gcG9zPSI2OTIiIHdpZHRoPSItMjAiIC8+\012CiAgICA8L2hpbnRzZXQ+CiAgPC9oaW50U2V0TGlz\012dD4K";
};
},
{
glyphname = bracketright;
layers = (
{
hints = (
{
horizontal = 1;
origin = "{0, 3}";
type = Tag;
name = hr02;
},
{
horizontal = 1;
origin = "{0, 5}";
type = Tag;
name = hr01;
}
);
layerId = "9E0117ED-02C0-4C46-91DE-7DE1029A8F9A";
name = Regular;
paths = (
{
closed = 1;
nodes = (
"288 -232 LINE",
"288 727 LINE",
"44 727 LINE",
"44 687 LINE",
"224 687 LINE",
"224 -192 LINE",
"44 -192 LINE",
"44 -232 LINE"
);
}
);
width = 368;
}
);
leftKerningGroup = parenright;
unicode = 005D;
userData = {
com.adobe.type.autohint = "ICA8aGludFNldExpc3Q+CiAgICA8aGludHNldCBw\012b2ludFRhZz0iaHIwMSI+CiAgICAgIDxoc3RlbSBw\012b3M9Ii0yMTQiIHdpZHRoPSI0MCIgLz4KICAgICAg\012PGhzdGVtIHBvcz0iNjU0IiB3aWR0aD0iMzgiIC8+\012CiAgICAgIDx2c3RlbSBwb3M9IjIwIiB3aWR0aD0i\012NDciIC8+CiAgICA8L2hpbnRzZXQ+CiAgICA8aGlu\012dHNldCBwb2ludFRhZz0iaHIwMiI+CiAgICAgIDxo\012c3RlbSBwb3M9Ii0yMTQiIHdpZHRoPSI0MCIgLz4K\012ICAgICAgPGhzdGVtIHBvcz0iNjU0IiB3aWR0aD0i\012MzgiIC8+CiAgICAgIDx2c3RlbSBwb3M9IjIwIiB3\012aWR0aD0iMTIxIiAvPgogICAgPC9oaW50c2V0Pgog\012IDwvaGludFNldExpc3Q+Cg==";
};
},
{
glyphname = asciicircum;
layers = (
{
hints = (
{
horizontal = 1;
origin = "{0, 0}";
type = Tag;
name = hr00;
}
);
layerId = "9E0117ED-02C0-4C46-91DE-7DE1029A8F9A";
name = Regular;
paths = (
{
closed = 1;
nodes = (
"469 294 LINE",
"308 692 LINE",
"252 692 LINE",
"91 294 LINE",
"152 294 LINE",
"276 618 LINE",
"280 618 LINE",
"406 294 LINE"
);
}
);
width = 560;
}
);
unicode = 005E;
userData = {
com.adobe.type.autohint = "ICA8aGludFNldExpc3Q+CiAgICA8aGludHNldCBw\012b2ludFRhZz0iaHIwMCI+CiAgICAgIDxoc3RlbSBw\012b3M9IjMxNSIgd2lkdGg9Ii0yMSIgLz4KICAgICAg\012PGhzdGVtIHBvcz0iNjkyIiB3aWR0aD0iLTIwIiAv\012PgogICAgPC9oaW50c2V0PgogIDwvaGludFNldExp\012c3Q+Cg==";
};
},
{
glyphname = underscore;
layers = (
{
hints = (
{
horizontal = 1;
origin = "{0, 0}";
type = Tag;
name = hr00;
}
);
layerId = "9E0117ED-02C0-4C46-91DE-7DE1029A8F9A";
name = Regular;
paths = (
{
closed = 1;
nodes = (
"464 -104 LINE",
"464 -64 LINE",
"0 -64 LINE",
"0 -104 LINE"
);
}
);
width = 464;
}
);
unicode = 005F;
userData = {
com.adobe.type.autohint = "ICA8aGludFNldExpc3Q+CiAgICA8aGludHNldCBw\012b2ludFRhZz0iaHIwMCI+CiAgICAgIDxoc3RlbSBw\012b3M9Ii0xMDUiIHdpZHRoPSI0MiIgLz4KICAgIDwv\012aGludHNldD4KICA8L2hpbnRTZXRMaXN0Pgo=";
};
},
{
color = (153,251,255,1);
glyphname = grave;
layers = (
{
hints = (
{
horizontal = 1;
origin = "{0, 0}";
type = Tag;
name = hr00;
}
);
layerId = "9E0117ED-02C0-4C46-91DE-7DE1029A8F9A";
name = Regular;
paths = (
{
closed = 1;
nodes = (
"198 447 LINE",
"125 637 LINE",
"36 637 LINE"
);
}
);
width = 304;
}
);
unicode = 0060;
userData = {
com.adobe.type.autohint = "ICA8aGludFNldExpc3Q+CiAgICA8aGludHNldCBw\012b2ludFRhZz0iaHIwMCI+CiAgICAgIDxoc3RlbSBw\012b3M9IjQzMCIgd2lkdGg9Ii0yMSIgLz4KICAgICAg\012PGhzdGVtIHBvcz0iNTMzIiB3aWR0aD0iLTIwIiAv\012PgogICAgPC9oaW50c2V0PgogIDwvaGludFNldExp\012c3Q+Cg==";
com.typemytype.robofont.mark = (
0.6,
0.986,
1,
1
);
};
},
{
glyphname = a;
lastChange = "2015-10-26 06:23:51 +0000";
layers = (
{
hints = (
{
horizontal = 1;
origin = "{0, 0}";
type = Tag;
name = hr00;
}
);
layerId = "9E0117ED-02C0-4C46-91DE-7DE1029A8F9A";
name = Regular;
paths = (
{
closed = 1;
nodes = (
"400 33 LINE",
"387 33 LINE SMOOTH",
"344 33 OFFCURVE",
"320 57 OFFCURVE",
"320 98 CURVE SMOOTH",
"320 217 LINE SMOOTH",
"320 271 OFFCURVE",
"313 299 OFFCURVE",
"299 320 CURVE SMOOTH",
"280 350 OFFCURVE",
"248 372 OFFCURVE",
"188 372 CURVE SMOOTH",
"112 372 OFFCURVE",
"65 327 OFFCURVE",
"65 281 CURVE SMOOTH",
"65 260 OFFCURVE",
"72 250 OFFCURVE",
"78 241 CURVE",
"78 291 OFFCURVE",
"117 324 OFFCURVE",
"168 324 CURVE SMOOTH",
"200 324 OFFCURVE",
"225 312 OFFCURVE",
"240 287 CURVE SMOOTH",
"251 269 OFFCURVE",
"256 245 OFFCURVE",
"256 206 CURVE SMOOTH",
"256 195 LINE",
"99 195 OFFCURVE",
"48 147 OFFCURVE",
"48 84 CURVE SMOOTH",
"48 25 OFFCURVE",
"96 -12 OFFCURVE",
"156 -12 CURVE SMOOTH",
"192 -12 OFFCURVE",
"237 5 OFFCURVE",
"262 42 CURVE",
"266 16 OFFCURVE",
"296 -11 OFFCURVE",
"341 -12 CURVE"
);
},
{
closed = 1;
nodes = (
"256 122 LINE SMOOTH",
"256 95 OFFCURVE",
"250 78 OFFCURVE",
"240 65 CURVE SMOOTH",
"224 43 OFFCURVE",
"200 31 OFFCURVE",
"175 31 CURVE SMOOTH",
"141 31 OFFCURVE",
"120 54 OFFCURVE",
"120 91 CURVE SMOOTH",
"120 128 OFFCURVE",
"139 165 OFFCURVE",
"256 165 CURVE"
);
}
);
width = 400;
}
);
leftKerningGroup = a;
rightKerningGroup = a;
unicode = 0061;
userData = {
com.adobe.type.autohint = "ICA8aGludFNldExpc3Q+CiAgICA8aGludHNldCBw\012b2ludFRhZz0iaHIwMCI+CiAgICAgIDxoc3RlbSBw\012b3M9Ii0xMiIgd2lkdGg9IjQzIiAvPgogICAgICA8\012aHN0ZW0gcG9zPSIxNjUiIHdpZHRoPSIzMCIgLz4K\012ICAgICAgPGhzdGVtIHBvcz0iMzI0IiB3aWR0aD0i\012NDgiIC8+CiAgICAgIDx2c3RlbSBwb3M9IjQ4IiB3\012aWR0aD0iNzIiIC8+CiAgICAgIDx2c3RlbSBwb3M9\012IjI1NiIgd2lkdGg9IjY0IiAvPgogICAgPC9oaW50\012c2V0PgogIDwvaGludFNldExpc3Q+Cg==";
};
},
{
glyphname = b;
layers = (
{
guideLines = (
{
angle = 90;
position = "{392, 0}";
}
);
hints = (
{
horizontal = 1;
origin = "{0, 0}";
type = Tag;
name = hr00;
}
);
layerId = "9E0117ED-02C0-4C46-91DE-7DE1029A8F9A";
name = Regular;
paths = (
{
closed = 1;
nodes = (
"144 240 LINE SMOOTH",
"144 292 OFFCURVE",
"195 328 OFFCURVE",
"237 328 CURVE SMOOTH",
"317 328 OFFCURVE",
"352 247 OFFCURVE",
"352 172 CURVE",
"352 80 OFFCURVE",
"301 24 OFFCURVE",
"239 24 CURVE SMOOTH",
"211 24 OFFCURVE",
"189 31 OFFCURVE",
"175 40 CURVE SMOOTH",
"152 54 OFFCURVE",
"144 80 OFFCURVE",
"144 122 CURVE SMOOTH"
);
},
{
closed = 1;
nodes = (
"80 -7 LINE",
"91 5 OFFCURVE",
"104 13 OFFCURVE",
"115 13 CURVE SMOOTH",
"126 13 OFFCURVE",
"134 10 OFFCURVE",
"147 5 CURVE SMOOTH",
"176 -6 OFFCURVE",
"206 -12 OFFCURVE",
"232 -12 CURVE SMOOTH",
"270 -12 OFFCURVE",
"305 -1 OFFCURVE",
"334 19 CURVE SMOOTH",
"384 54 OFFCURVE",
"424 117 OFFCURVE",
"424 202 CURVE",
"424 299 OFFCURVE",
"359 372 OFFCURVE",
"270 372 CURVE SMOOTH",
"190 372 OFFCURVE",
"151 319 OFFCURVE",
"144 307 CURVE",
"144 740 LINE",
"30 688 LINE",
"36 688 LINE SMOOTH",
"52 688 OFFCURVE",
"80 678 OFFCURVE",
"80 615 CURVE"
);
}
);
width = 464;
}
);
rightKerningGroup = b;
unicode = 0062;
userData = {
com.adobe.type.autohint = "ICA8aGludFNldExpc3Q+CiAgICA8aGludHNldCBw\012b2ludFRhZz0iaHIwMCI+CiAgICAgIDxoc3RlbSBw\012b3M9Ii0xMiIgd2lkdGg9IjM2IiAvPgogICAgICA8\012aHN0ZW0gcG9zPSIzMjgiIHdpZHRoPSI0NCIgLz4K\012ICAgICAgPGhzdGVtIHBvcz0iNjg4IiB3aWR0aD0i\012LTIwIiAvPgogICAgICA8aHN0ZW0gcG9zPSI3NDAi\012IHdpZHRoPSItMjAiIC8+CiAgICAgIDx2c3RlbSBw\012b3M9IjgwIiB3aWR0aD0iNjQiIC8+CiAgICAgIDx2\012c3RlbSBwb3M9IjM1MiIgd2lkdGg9IjcyIiAvPgog\012ICAgPC9oaW50c2V0PgogIDwvaGludFNldExpc3Q+\012Cg==";
com.typemytype.robofont.guides = (
{
angle = 90;
isGlobal = 0;
magnetic = 5;
x = 392;
y = 0;
}
);
};
},
{
glyphname = c;
layers = (
{
guideLines = (
{
angle = 90;
position = "{16, 0}";
},
{
angle = 90;
position = "{80, 0}";
}
);
hints = (
{
horizontal = 1;
origin = "{0, 0}";
type = Tag;
name = hr00;
}
);
layerId = "9E0117ED-02C0-4C46-91DE-7DE1029A8F9A";
name = Regular;
paths = (
{
closed = 1;
nodes = (
"368 108 CURVE",
"343 70 OFFCURVE",
"295 47 OFFCURVE",
"248 47 CURVE SMOOTH",
"156 47 OFFCURVE",
"104 129 OFFCURVE",
"104 205 CURVE SMOOTH",
"104 273 OFFCURVE",
"138 336 OFFCURVE",
"207 336 CURVE SMOOTH",
"255 336 OFFCURVE",
"286 295 OFFCURVE",
"294 250 CURVE",
"360 282 LINE",
"353 301 OFFCURVE",
"326 372 OFFCURVE",
"221 372 CURVE SMOOTH",
"104 372 OFFCURVE",
"40 272 OFFCURVE",
"40 174 CURVE SMOOTH",
"40 80 OFFCURVE",
"104 -12 OFFCURVE",
"217 -12 CURVE SMOOTH",
"294 -12 OFFCURVE",
"353 32 OFFCURVE"
);
}
);
width = 400;
}
);
leftKerningGroup = c;
rightKerningGroup = c;
unicode = 0063;
userData = {
com.adobe.type.autohint = "ICA8aGludFNldExpc3Q+CiAgICA8aGludHNldCBw\012b2ludFRhZz0iaHIwMCI+CiAgICAgIDxoc3RlbSBw\012b3M9Ii0xMiIgd2lkdGg9IjU5IiAvPgogICAgICA8\012aHN0ZW0gcG9zPSIzMzYiIHdpZHRoPSIzNiIgLz4K\012ICAgICAgPHZzdGVtIHBvcz0iNDAiIHdpZHRoPSI2\012NCIgLz4KICAgIDwvaGludHNldD4KICA8L2hpbnRT\012ZXRMaXN0Pgo=";
com.typemytype.robofont.guides = (
{
angle = 90;
isGlobal = 0;
magnetic = 5;
x = 16;
y = 0;
},
{
angle = 90;
isGlobal = 0;
magnetic = 5;
x = 80;
y = 0;
}
);
};
},
{
glyphname = d;
layers = (
{
hints = (
{
horizontal = 1;
origin = "{0, 0}";
type = Tag;
name = hr00;
}
);
layerId = "9E0117ED-02C0-4C46-91DE-7DE1029A8F9A";
name = Regular;
paths = (
{
closed = 1;
nodes = (
"228 336 CURVE SMOOTH",
"254 336 OFFCURVE",
"275 329 OFFCURVE",
"289 320 CURVE SMOOTH",
"311 306 OFFCURVE",
"320 280 OFFCURVE",
"320 238 CURVE SMOOTH",
"320 120 LINE SMOOTH",
"320 68 OFFCURVE",
"269 32 OFFCURVE",
"227 32 CURVE SMOOTH",
"147 32 OFFCURVE",
"112 113 OFFCURVE",
"112 188 CURVE SMOOTH",
"112 280 OFFCURVE",
"163 336 OFFCURVE"
);
},
{
closed = 1;
nodes = (
"228 372 CURVE SMOOTH",
"190 372 OFFCURVE",
"159 361 OFFCURVE",
"130 341 CURVE SMOOTH",
"80 306 OFFCURVE",
"40 243 OFFCURVE",
"40 158 CURVE SMOOTH",
"40 61 OFFCURVE",
"105 -12 OFFCURVE",
"194 -12 CURVE SMOOTH",
"274 -12 OFFCURVE",
"313 41 OFFCURVE",
"320 53 CURVE",
"320 -12 LINE",
"434 40 LINE",
"428 40 LINE SMOOTH",
"412 40 OFFCURVE",
"384 50 OFFCURVE",
"384 113 CURVE SMOOTH",
"384 740 LINE",
"270 688 LINE",
"276 688 LINE SMOOTH",
"292 688 OFFCURVE",
"320 678 OFFCURVE",
"320 615 CURVE SMOOTH",
"320 345 LINE",
"316 348 OFFCURVE",
"284 372 OFFCURVE"
);
}
);
width = 464;
}
);
leftKerningGroup = c;
unicode = 0064;
userData = {
com.adobe.type.autohint = "ICA8aGludFNldExpc3Q+CiAgICA8aGludHNldCBw\012b2ludFRhZz0iaHIwMCI+CiAgICAgIDxoc3RlbSBw\012b3M9Ii0xMiIgd2lkdGg9IjQ0IiAvPgogICAgICA8\012aHN0ZW0gcG9zPSIzMzYiIHdpZHRoPSIzNiIgLz4K\012ICAgICAgPGhzdGVtIHBvcz0iNjg4IiB3aWR0aD0i\012LTIwIiAvPgogICAgICA8aHN0ZW0gcG9zPSI3NDAi\012IHdpZHRoPSItMjAiIC8+CiAgICAgIDx2c3RlbSBw\012b3M9IjQwIiB3aWR0aD0iNzIiIC8+CiAgICAgIDx2\012c3RlbSBwb3M9IjMyMCIgd2lkdGg9IjY0IiAvPgog\012ICAgPC9oaW50c2V0PgogIDwvaGludFNldExpc3Q+\012Cg==";
};
},
{
glyphname = e;
layers = (
{
hints = (
{
horizontal = 1;
origin = "{0, 0}";
type = Tag;
name = hr00;
}
);
layerId = "9E0117ED-02C0-4C46-91DE-7DE1029A8F9A";
name = Regular;
paths = (
{
closed = 1;
nodes = (
"360 108 CURVE",
"336 64 OFFCURVE",
"288 48 OFFCURVE",
"233 48 CURVE SMOOTH",
"162 48 OFFCURVE",
"100 108 OFFCURVE",
"100 208 CURVE",
"360 208 LINE",
"355 316 OFFCURVE",
"285 372 OFFCURVE",
"209 372 CURVE SMOOTH",
"128 372 OFFCURVE",
"40 304 OFFCURVE",
"40 174 CURVE SMOOTH",
"40 81 OFFCURVE",
"101 -12 OFFCURVE",
"213 -12 CURVE SMOOTH",
"291 -12 OFFCURVE",
"348 36 OFFCURVE"
);
},
{
closed = 1;
nodes = (
"283 240 CURVE",
"101 240 LINE",
"109 299 OFFCURVE",
"150 339 OFFCURVE",
"202 339 CURVE SMOOTH",
"241 339 OFFCURVE",
"283 306 OFFCURVE"
);
}
);
width = 400;
}
);
leftKerningGroup = c;
rightKerningGroup = e;
unicode = 0065;
userData = {
com.adobe.type.autohint = "ICA8aGludFNldExpc3Q+CiAgICA8aGludHNldCBw\012b2ludFRhZz0iaHIwMCI+CiAgICAgIDxoc3RlbSBw\012b3M9Ii0xMiIgd2lkdGg9IjYwIiAvPgogICAgICA8\012aHN0ZW0gcG9zPSIyMDgiIHdpZHRoPSIzNCIgLz4K\012ICAgICAgPGhzdGVtIHBvcz0iMzM5IiB3aWR0aD0i\012MzMiIC8+CiAgICAgIDx2c3RlbSBwb3M9IjQwIiB3\012aWR0aD0iNjAiIC8+CiAgICAgIDx2c3RlbSBwb3M9\012IjI4MyIgd2lkdGg9Ijc3IiAvPgogICAgPC9oaW50\012c2V0PgogIDwvaGludFNldExpc3Q+Cg==";
};
},
{
glyphname = f;
layers = (
{
guideLines = (
{
angle = 90;
position = "{194, 0}";
},
{
angle = 90;
position = "{312, 0}";
}
);
hints = (
{
horizontal = 1;
origin = "{0, 0}";
type = Tag;
name = hr00;
}
);
layerId = "9E0117ED-02C0-4C46-91DE-7DE1029A8F9A";
name = Regular;
paths = (
{
closed = 1;
nodes = (
"335 731 LINE",
"321 736 OFFCURVE",
"301 740 OFFCURVE",
"267 740 CURVE SMOOTH",
"156 740 OFFCURVE",
"80 644 OFFCURVE",
"80 503 CURVE SMOOTH",
"80 364 LINE",
"24 364 LINE",
"24 324 LINE",
"80 324 LINE",
"80 100 LINE SMOOTH",
"80 3 OFFCURVE",
"39 0 OFFCURVE",
"39 0 CURVE",
"184 0 LINE",
"184 0 OFFCURVE",
"144 3 OFFCURVE",
"144 100 CURVE SMOOTH",
"144 324 LINE",
"248 324 LINE",
"248 364 LINE",
"144 364 LINE",
"144 565 LINE SMOOTH",
"144 632 OFFCURVE",
"168 692 OFFCURVE",
"240 692 CURVE SMOOTH",
"275 692 OFFCURVE",
"311 676 OFFCURVE",
"335 653 CURVE"
);
}
);
width = 256;
}
);
leftKerningGroup = f;
unicode = 0066;
userData = {
com.adobe.type.autohint = "ICA8aGludFNldExpc3Q+CiAgICA8aGludHNldCBw\012b2ludFRhZz0iaHIwMCI+CiAgICAgIDxoc3RlbSBw\012b3M9IjIxIiB3aWR0aD0iLTIxIiAvPgogICAgICA8\012aHN0ZW0gcG9zPSIzMTYiIHdpZHRoPSI0NCIgLz4K\012ICAgICAgPGhzdGVtIHBvcz0iNjkyIiB3aWR0aD0i\012NDgiIC8+CiAgICAgIDx2c3RlbSBwb3M9IjgwIiB3\012aWR0aD0iNjQiIC8+CiAgICA8L2hpbnRzZXQ+CiAg\012PC9oaW50U2V0TGlzdD4K";
com.typemytype.robofont.guides = (
{
angle = 90;
isGlobal = 0;
magnetic = 5;
x = 194;
y = 0;
},
{
angle = 90;
isGlobal = 0;
magnetic = 5;
x = 312;
y = 0;
}
);
};
},
{
glyphname = g;
layers = (
{
hints = (
{
horizontal = 1;
origin = "{0, 15}";
type = Tag;
name = hr01;
},
{
horizontal = 1;
origin = "{0, 30}";
type = Tag;
name = hr02;
},
{
horizontal = 1;
origin = "{2, 0}";
type = Tag;
name = hr04;
}
);
layerId = "9E0117ED-02C0-4C46-91DE-7DE1029A8F9A";
name = Regular;
paths = (
{
closed = 1;
nodes = (
"208 372 CURVE SMOOTH",
"102 372 OFFCURVE",
"48 294 OFFCURVE",
"48 224 CURVE SMOOTH",
"48 176 OFFCURVE",
"72 124 OFFCURVE",
"122 102 CURVE",
"86 79 OFFCURVE",
"56 56 OFFCURVE",
"56 19 CURVE SMOOTH",
"56 -9 OFFCURVE",
"81 -43 OFFCURVE",
"128 -46 CURVE",
"76 -64 OFFCURVE",
"32 -103 OFFCURVE",
"32 -147 CURVE SMOOTH",
"32 -194 OFFCURVE",
"86 -239 OFFCURVE",
"182 -239 CURVE SMOOTH",
"312 -239 OFFCURVE",
"392 -173 OFFCURVE",
"392 -93 CURVE SMOOTH",
"392 -49 OFFCURVE",
"362 -3 OFFCURVE",
"248 2 CURVE SMOOTH",
"202 4 OFFCURVE",
"157 4 OFFCURVE",
"132 15 CURVE SMOOTH",
"118 21 OFFCURVE",
"112 35 OFFCURVE",
"112 47 CURVE SMOOTH",
"112 67 OFFCURVE",
"132 83 OFFCURVE",
"148 92 CURVE",
"160 90 OFFCURVE",
"185 88 OFFCURVE",
"196 88 CURVE SMOOTH",
"294 88 OFFCURVE",
"352 157 OFFCURVE",
"352 234 CURVE SMOOTH",
"352 265 OFFCURVE",
"340 295 OFFCURVE",
"316 324 CURVE",
"399 324 LINE",
"399 364 LINE",
"262 364 LINE",
"241 370 OFFCURVE",
"218 372 OFFCURVE"
);
},
{
closed = 1;
nodes = (
"288 223 CURVE SMOOTH",
"288 165 OFFCURVE",
"257 126 OFFCURVE",
"203 126 CURVE SMOOTH",
"153 126 OFFCURVE",
"112 172 OFFCURVE",
"112 242 CURVE SMOOTH",
"112 297 OFFCURVE",
"148 336 OFFCURVE",
"197 336 CURVE SMOOTH",
"247 336 OFFCURVE",
"288 291 OFFCURVE"
);
},
{
closed = 1;
nodes = (
"336 -118 CURVE SMOOTH",
"336 -160 OFFCURVE",
"294 -198 OFFCURVE",
"208 -198 CURVE SMOOTH",
"138 -198 OFFCURVE",
"96 -167 OFFCURVE",
"96 -132 CURVE SMOOTH",
"96 -98 OFFCURVE",
"128 -58 OFFCURVE",
"180 -58 CURVE SMOOTH",
"201 -58 LINE SMOOTH",
"298 -58 OFFCURVE",
"336 -79 OFFCURVE"
);
}
);
width = 416;
}
);
leftKerningGroup = g;
rightKerningGroup = g;
unicode = 0067;
userData = {
com.adobe.type.autohint = "ICA8aGludFNldExpc3Q+CiAgICA8aGludHNldCBw\012b2ludFRhZz0iaHIwMSI+CiAgICAgIDxoc3RlbSBw\012b3M9Ii0yMzkiIHdpZHRoPSI0MSIgLz4KICAgICAg\012PGhzdGVtIHBvcz0iLTU4IiB3aWR0aD0iNjAiIC8+\012CiAgICAgIDxoc3RlbSBwb3M9Ijg4IiB3aWR0aD0i\012MzgiIC8+CiAgICAgIDxoc3RlbSBwb3M9IjMyMCIg\012d2lkdGg9IjQwIiAvPgogICAgICA8dnN0ZW0gcG9z\012PSIzMiIgd2lkdGg9IjY0IiAvPgogICAgICA8dnN0\012ZW0gcG9zPSIzMzYiIHdpZHRoPSI1NiIgLz4KICAg\012IDwvaGludHNldD4KICAgIDxoaW50c2V0IHBvaW50\012VGFnPSJocjAyIj4KICAgICAgPGhzdGVtIHBvcz0i\012LTIzOSIgd2lkdGg9IjQxIiAvPgogICAgICA8aHN0\012ZW0gcG9zPSItNTgiIHdpZHRoPSI2MCIgLz4KICAg\012ICAgPGhzdGVtIHBvcz0iODgiIHdpZHRoPSIzOCIg\012Lz4KICAgICAgPGhzdGVtIHBvcz0iMzIwIiB3aWR0\012aD0iNDAiIC8+CiAgICAgIDx2c3RlbSBwb3M9IjQ4\012IiB3aWR0aD0iNjQiIC8+CiAgICAgIDx2c3RlbSBw\012b3M9IjI4OCIgd2lkdGg9IjY0IiAvPgogICAgPC9o\012aW50c2V0PgogICAgPGhpbnRzZXQgcG9pbnRUYWc9\012ImhyMDMiPgogICAgICA8aHN0ZW0gcG9zPSItMjM5\012IiB3aWR0aD0iNDEiIC8+CiAgICAgIDxoc3RlbSBw\012b3M9Ii00NiIgd2lkdGg9IjE3MiIgLz4KICAgICAg\012PGhzdGVtIHBvcz0iMzM2IiB3aWR0aD0iMzYiIC8+\012CiAgICAgIDx2c3RlbSBwb3M9IjQ4IiB3aWR0aD0i\012NjQiIC8+CiAgICAgIDx2c3RlbSBwb3M9IjI4OCIg\012d2lkdGg9IjY0IiAvPgogICAgPC9oaW50c2V0Pgog\012ICAgPGhpbnRzZXQgcG9pbnRUYWc9ImhyMDQiPgog\012ICAgICA8aHN0ZW0gcG9zPSItMjM5IiB3aWR0aD0i\012NDEiIC8+CiAgICAgIDxoc3RlbSBwb3M9Ii01OCIg\012d2lkdGg9IjYwIiAvPgogICAgICA8aHN0ZW0gcG9z\012PSI4OCIgd2lkdGg9IjM4IiAvPgogICAgICA8aHN0\012ZW0gcG9zPSIzMjAiIHdpZHRoPSI0MCIgLz4KICAg\012ICAgPHZzdGVtIHBvcz0iMzIiIHdpZHRoPSI2NCIg\012Lz4KICAgICAgPHZzdGVtIHBvcz0iMzM2IiB3aWR0\012aD0iNTYiIC8+CiAgICA8L2hpbnRzZXQ+CiAgPC9o\012aW50U2V0TGlzdD4K";
};
},
{
glyphname = h;
layers = (
{
hints = (
{
horizontal = 1;
origin = "{0, 0}";
type = Tag;
name = hr00;
}
);
layerId = "9E0117ED-02C0-4C46-91DE-7DE1029A8F9A";
name = Regular;
paths = (
{
closed = 1;
nodes = (
"144 740 LINE",
"30 688 LINE",
"36 688 LINE SMOOTH",
"52 688 OFFCURVE",
"80 678 OFFCURVE",
"80 615 CURVE",
"80 100 LINE SMOOTH",
"80 3 OFFCURVE",
"41 0 OFFCURVE",
"41 0 CURVE",
"185 0 LINE",
"185 0 OFFCURVE",
"144 4 OFFCURVE",
"144 100 CURVE SMOOTH",
"144 231 LINE SMOOTH",
"144 290 OFFCURVE",
"188 320 OFFCURVE",
"232 320 CURVE SMOOTH",
"253 320 OFFCURVE",
"271 314 OFFCURVE",
"287 301 CURVE SMOOTH",
"305 286 OFFCURVE",
"320 263 OFFCURVE",
"320 214 CURVE SMOOTH",
"320 100 LINE SMOOTH",
"320 1 OFFCURVE",
"280 0 OFFCURVE",
"280 0 CURVE",
"424 0 LINE",
"424 0 OFFCURVE",
"384 5 OFFCURVE",
"384 99 CURVE SMOOTH",
"384 238 LINE SMOOTH",
"384 328 OFFCURVE",
"334 372 OFFCURVE",
"265 372 CURVE SMOOTH",
"217 372 OFFCURVE",
"172 347 OFFCURVE",
"144 313 CURVE"
);
}
);
width = 464;
}
);
leftKerningGroup = h;
rightKerningGroup = h;
unicode = 0068;
userData = {
com.adobe.type.autohint = "ICA8aGludFNldExpc3Q+CiAgICA8aGludHNldCBw\012b2ludFRhZz0iaHIwMCI+CiAgICAgIDxoc3RlbSBw\012b3M9IjIxIiB3aWR0aD0iLTIxIiAvPgogICAgICA8\012aHN0ZW0gcG9zPSIzMjAiIHdpZHRoPSI1MiIgLz4K\012ICAgICAgPGhzdGVtIHBvcz0iNjg4IiB3aWR0aD0i\012LTIwIiAvPgogICAgICA8aHN0ZW0gcG9zPSI3NDAi\012IHdpZHRoPSItMjAiIC8+CiAgICAgIDx2c3RlbSBw\012b3M9IjgwIiB3aWR0aD0iNjQiIC8+CiAgICAgIDx2\012c3RlbSBwb3M9IjMyMCIgd2lkdGg9IjY0IiAvPgog\012ICAgPC9oaW50c2V0PgogIDwvaGludFNldExpc3Q+\012Cg==";
};
},
{
glyphname = k;
layers = (
{
hints = (
{
horizontal = 1;
origin = "{0, 12}";
type = Tag;
name = hr01;
}
);
layerId = "9E0117ED-02C0-4C46-91DE-7DE1029A8F9A";
name = Regular;
paths = (
{
closed = 1;
nodes = (
"80 100 LINE SMOOTH",
"80 3 OFFCURVE",
"42 0 OFFCURVE",
"42 0 CURVE",
"186 0 LINE",
"186 0 OFFCURVE",
"144 2 OFFCURVE",
"144 100 CURVE SMOOTH",
"144 193 LINE",
"263 68 LINE SMOOTH",
"300 30 OFFCURVE",
"329 -6 OFFCURVE",
"362 -6 CURVE SMOOTH",
"379 -6 OFFCURVE",
"412 1 OFFCURVE",
"434 16 CURVE",
"430 16 LINE SMOOTH",
"419 16 OFFCURVE",
"391 28 OFFCURVE",
"333 87 CURVE SMOOTH",
"214 210 LINE",
"288 271 LINE SMOOTH",
"381 348 OFFCURVE",
"418 364 OFFCURVE",
"418 364 CURVE",
"274 364 LINE",
"274 364 OFFCURVE",
"296 363 OFFCURVE",
"296 344 CURVE SMOOTH",
"296 333 OFFCURVE",
"273 306 OFFCURVE",
"244 281 CURVE SMOOTH",
"144 196 LINE",
"144 740 LINE",
"30 688 LINE",
"36 688 LINE SMOOTH",
"52 688 OFFCURVE",
"80 678 OFFCURVE",
"80 615 CURVE"
);
}
);
width = 432;
}
);
leftKerningGroup = h;
rightKerningGroup = k;
unicode = 006B;
userData = {
com.adobe.type.autohint = "ICA8aGludFNldExpc3Q+CiAgICA8aGludHNldCBw\012b2ludFRhZz0iaHIwMSI+CiAgICAgIDxoc3RlbSBw\012b3M9IjE1IiB3aWR0aD0iLTIxIiAvPgogICAgICA8\012aHN0ZW0gcG9zPSIzNjAiIHdpZHRoPSItMjAiIC8+\012CiAgICAgIDxoc3RlbSBwb3M9IjY4OCIgd2lkdGg9\012Ii0yMCIgLz4KICAgICAgPGhzdGVtIHBvcz0iNzQw\012IiB3aWR0aD0iLTIwIiAvPgogICAgICA8dnN0ZW0g\012cG9zPSI4MCIgd2lkdGg9IjY0IiAvPgogICAgPC9o\012aW50c2V0PgogIDwvaGludFNldExpc3Q+Cg==";
};
},
{
glyphname = l;
layers = (
{
hints = (
{
horizontal = 1;
origin = "{0, 0}";
type = Tag;
name = hr00;
}
);
layerId = "9E0117ED-02C0-4C46-91DE-7DE1029A8F9A";
name = Regular;
paths = (
{
closed = 1;
nodes = (
"80 100 LINE SMOOTH",
"80 3 OFFCURVE",
"40 0 OFFCURVE",
"40 0 CURVE",
"184 0 LINE",
"184 0 OFFCURVE",
"144 2 OFFCURVE",
"144 100 CURVE SMOOTH",
"144 740 LINE",
"30 688 LINE",
"36 688 LINE SMOOTH",
"52 688 OFFCURVE",
"80 678 OFFCURVE",
"80 615 CURVE"
);
}
);
width = 224;
}
);
leftKerningGroup = h;
rightKerningGroup = l;
unicode = 006C;
userData = {
com.adobe.type.autohint = "ICA8aGludFNldExpc3Q+CiAgICA8aGludHNldCBw\012b2ludFRhZz0iaHIwMCI+CiAgICAgIDxoc3RlbSBw\012b3M9IjIxIiB3aWR0aD0iLTIxIiAvPgogICAgICA8\012aHN0ZW0gcG9zPSI2ODgiIHdpZHRoPSItMjAiIC8+\012CiAgICAgIDxoc3RlbSBwb3M9Ijc0MCIgd2lkdGg9\012Ii0yMCIgLz4KICAgICAgPHZzdGVtIHBvcz0iODAi\012IHdpZHRoPSI2NCIgLz4KICAgIDwvaGludHNldD4K\012ICA8L2hpbnRTZXRMaXN0Pgo=";
};
},
{
glyphname = m;
layers = (
{
hints = (
{
horizontal = 1;
origin = "{0, 0}";
type = Tag;
name = hr00;
}
);
layerId = "9E0117ED-02C0-4C46-91DE-7DE1029A8F9A";
name = Regular;
paths = (
{
closed = 1;
nodes = (
"36 324 LINE",
"52 324 OFFCURVE",
"80 314 OFFCURVE",
"80 251 CURVE SMOOTH",
"80 100 LINE SMOOTH",
"80 12 OFFCURVE",
"48 1 OFFCURVE",
"42 0 CURVE",
"184 0 LINE",
"178 1 OFFCURVE",
"144 11 OFFCURVE",
"144 100 CURVE SMOOTH",
"144 231 LINE SMOOTH",
"144 290 OFFCURVE",
"188 320 OFFCURVE",
"232 320 CURVE SMOOTH",
"253 320 OFFCURVE",
"271 314 OFFCURVE",
"287 301 CURVE SMOOTH",
"305 286 OFFCURVE",
"320 263 OFFCURVE",
"320 214 CURVE SMOOTH",
"320 100 LINE SMOOTH",
"320 13 OFFCURVE",
"289 1 OFFCURVE",
"281 0 CURVE",
"423 0 LINE",
"418 1 OFFCURVE",
"384 11 OFFCURVE",
"384 100 CURVE SMOOTH",
"384 231 LINE SMOOTH",
"384 291 OFFCURVE",
"429 320 OFFCURVE",
"472 320 CURVE SMOOTH",
"493 320 OFFCURVE",
"511 314 OFFCURVE",
"527 301 CURVE SMOOTH",
"545 286 OFFCURVE",
"560 263 OFFCURVE",
"560 214 CURVE SMOOTH",
"560 100 LINE SMOOTH",
"560 13 OFFCURVE",
"529 1 OFFCURVE",
"521 0 CURVE",
"663 0 LINE",
"658 1 OFFCURVE",
"624 12 OFFCURVE",
"624 99 CURVE SMOOTH",
"624 238 LINE SMOOTH",
"624 328 OFFCURVE",
"574 372 OFFCURVE",
"505 372 CURVE SMOOTH",
"457 372 OFFCURVE",
"409 350 OFFCURVE",
"372 304 CURVE",
"354 349 OFFCURVE",
"314 372 OFFCURVE",
"265 372 CURVE SMOOTH",
"217 372 OFFCURVE",
"175 343 OFFCURVE",
"144 304 CURVE",
"144 372 LINE"
);
}
);
width = 704;
}
);
leftKerningGroup = m;
rightKerningGroup = h;
unicode = 006D;
userData = {
com.adobe.type.autohint = "ICA8aGludFNldExpc3Q+CiAgICA8aGludHNldCBw\012b2ludFRhZz0iaHIwMCI+CiAgICAgIDxoc3RlbSBw\012b3M9IjIxIiB3aWR0aD0iLTIxIiAvPgogICAgICA8\012aHN0ZW0gcG9zPSIzMjAiIHdpZHRoPSI1MiIgLz4K\012ICAgICAgPHZzdGVtMyBzdGVtM0xpc3Q9IjgwLDY0\012LDMyMCw2NCw1NjAsNjQiIC8+CiAgICA8L2hpbnRz\012ZXQ+CiAgPC9oaW50U2V0TGlzdD4K";
};
},
{
glyphname = n;
layers = (
{
hints = (
{
horizontal = 1;
origin = "{0, 0}";
type = Tag;
name = hr00;
}
);
layerId = "9E0117ED-02C0-4C46-91DE-7DE1029A8F9A";
name = Regular;
paths = (
{
closed = 1;
nodes = (
"144 372 LINE",
"36 324 LINE",
"52 324 OFFCURVE",
"80 314 OFFCURVE",
"80 251 CURVE",
"80 100 LINE SMOOTH",
"80 3 OFFCURVE",
"41 0 OFFCURVE",
"41 0 CURVE",
"185 0 LINE",
"185 0 OFFCURVE",
"144 4 OFFCURVE",
"144 100 CURVE SMOOTH",
"144 231 LINE SMOOTH",
"144 290 OFFCURVE",
"188 320 OFFCURVE",
"232 320 CURVE SMOOTH",
"253 320 OFFCURVE",
"271 314 OFFCURVE",
"287 301 CURVE SMOOTH",
"305 286 OFFCURVE",
"320 263 OFFCURVE",
"320 214 CURVE SMOOTH",
"320 100 LINE SMOOTH",
"320 1 OFFCURVE",
"280 0 OFFCURVE",
"280 0 CURVE",
"424 0 LINE",
"424 0 OFFCURVE",
"384 5 OFFCURVE",
"384 99 CURVE SMOOTH",
"384 238 LINE SMOOTH",
"384 328 OFFCURVE",
"334 372 OFFCURVE",
"265 372 CURVE SMOOTH",
"217 372 OFFCURVE",
"173 343 OFFCURVE",
"144 304 CURVE"
);
}
);
width = 464;
}
);
leftKerningGroup = m;
rightKerningGroup = h;
unicode = 006E;
userData = {
com.adobe.type.autohint = "ICA8aGludFNldExpc3Q+CiAgICA8aGludHNldCBw\012b2ludFRhZz0iaHIwMCI+CiAgICAgIDxoc3RlbSBw\012b3M9IjIxIiB3aWR0aD0iLTIxIiAvPgogICAgICA8\012aHN0ZW0gcG9zPSIzMjAiIHdpZHRoPSI1MiIgLz4K\012ICAgICAgPHZzdGVtIHBvcz0iODAiIHdpZHRoPSI2\012NCIgLz4KICAgICAgPHZzdGVtIHBvcz0iMzIwIiB3\012aWR0aD0iNjQiIC8+CiAgICA8L2hpbnRzZXQ+CiAg\012PC9oaW50U2V0TGlzdD4K";
};
},
{
glyphname = o;
layers = (
{
hints = (
{
horizontal = 1;
origin = "{0, 0}";
type = Tag;
name = hr00;
}
);
layerId = "9E0117ED-02C0-4C46-91DE-7DE1029A8F9A";
name = Regular;
paths = (
{
closed = 1;
nodes = (
"240 24 CURVE SMOOTH",
"160 24 OFFCURVE",
"112 118 OFFCURVE",
"112 200 CURVE SMOOTH",
"112 269 OFFCURVE",
"150 336 OFFCURVE",
"224 336 CURVE SMOOTH",
"304 336 OFFCURVE",
"352 242 OFFCURVE",
"352 160 CURVE SMOOTH",
"352 91 OFFCURVE",
"314 24 OFFCURVE"
);
},
{
closed = 1;
nodes = (
"228 -12 CURVE SMOOTH",
"341 -12 OFFCURVE",
"424 84 OFFCURVE",
"424 189 CURVE SMOOTH",
"424 289 OFFCURVE",
"345 372 OFFCURVE",
"236 372 CURVE",
"123 372 OFFCURVE",
"40 276 OFFCURVE",
"40 171 CURVE SMOOTH",
"40 71 OFFCURVE",
"119 -12 OFFCURVE"
);
}
);
width = 464;
}
);
leftKerningGroup = c;
rightKerningGroup = b;
unicode = 006F;
userData = {
com.adobe.type.autohint = "ICA8aGludFNldExpc3Q+CiAgICA8aGludHNldCBw\012b2ludFRhZz0iaHIwMCI+CiAgICAgIDxoc3RlbSBw\012b3M9Ii0xMiIgd2lkdGg9IjM2IiAvPgogICAgICA8\012aHN0ZW0gcG9zPSIzMzYiIHdpZHRoPSIzNiIgLz4K\012ICAgICAgPHZzdGVtIHBvcz0iNDAiIHdpZHRoPSI3\012MiIgLz4KICAgICAgPHZzdGVtIHBvcz0iMzUyIiB3\012aWR0aD0iNzIiIC8+CiAgICA8L2hpbnRzZXQ+CiAg\012PC9oaW50U2V0TGlzdD4K";
};
},
{
glyphname = p;
layers = (
{
hints = (
{
horizontal = 1;
origin = "{0, 0}";
type = Tag;
name = hr00;
}
);
layerId = "9E0117ED-02C0-4C46-91DE-7DE1029A8F9A";
name = Regular;
paths = (
{
closed = 1;
nodes = (
"236 24 CURVE SMOOTH",
"210 24 OFFCURVE",
"189 31 OFFCURVE",
"175 40 CURVE SMOOTH",
"153 54 OFFCURVE",
"144 80 OFFCURVE",
"144 122 CURVE SMOOTH",
"144 240 LINE SMOOTH",
"144 292 OFFCURVE",
"195 328 OFFCURVE",
"237 328 CURVE SMOOTH",
"317 328 OFFCURVE",
"352 247 OFFCURVE",
"352 172 CURVE SMOOTH",
"352 80 OFFCURVE",
"301 24 OFFCURVE"
);
},
{
closed = 1;
nodes = (
"144 15 LINE",
"148 12 OFFCURVE",
"180 -12 OFFCURVE",
"236 -12 CURVE SMOOTH",
"274 -12 OFFCURVE",
"305 -1 OFFCURVE",
"334 19 CURVE SMOOTH",
"384 54 OFFCURVE",
"424 117 OFFCURVE",
"424 202 CURVE SMOOTH",
"424 299 OFFCURVE",
"359 372 OFFCURVE",
"270 372 CURVE SMOOTH",
"190 372 OFFCURVE",
"151 319 OFFCURVE",
"144 307 CURVE",
"144 372 LINE",
"36 324 LINE",
"52 324 OFFCURVE",
"80 314 OFFCURVE",
"80 251 CURVE",
"80 -132 LINE SMOOTH",
"80 -229 OFFCURVE",
"40 -232 OFFCURVE",
"40 -232 CURVE",
"184 -232 LINE",
"184 -232 OFFCURVE",
"144 -230 OFFCURVE",
"144 -132 CURVE"
);
}
);
width = 464;
}
);
rightKerningGroup = b;
unicode = 0070;
userData = {
com.adobe.type.autohint = "ICA8aGludFNldExpc3Q+CiAgICA8aGludHNldCBw\012b2ludFRhZz0iaHIwMCI+CiAgICAgIDxoc3RlbSBw\012b3M9Ii0yMTEiIHdpZHRoPSItMjEiIC8+CiAgICAg\012IDxoc3RlbSBwb3M9Ii0xMiIgd2lkdGg9IjM2IiAv\012PgogICAgICA8aHN0ZW0gcG9zPSIzMjgiIHdpZHRo\012PSI0NCIgLz4KICAgICAgPHZzdGVtIHBvcz0iODAi\012IHdpZHRoPSI2NCIgLz4KICAgICAgPHZzdGVtIHBv\012cz0iMzUyIiB3aWR0aD0iNzIiIC8+CiAgICA8L2hp\012bnRzZXQ+CiAgPC9oaW50U2V0TGlzdD4K";
};
},
{
glyphname = q;
layers = (
{
hints = (
{
horizontal = 1;
origin = "{0, 0}";
type = Tag;
name = hr00;
}
);
layerId = "9E0117ED-02C0-4C46-91DE-7DE1029A8F9A";
name = Regular;
paths = (
{
closed = 1;
nodes = (
"320 -132 LINE SMOOTH",
"320 -229 OFFCURVE",
"280 -232 OFFCURVE",
"280 -232 CURVE",
"424 -232 LINE",
"424 -232 OFFCURVE",
"384 -230 OFFCURVE",
"384 -132 CURVE SMOOTH",
"384 367 LINE",
"373 355 OFFCURVE",
"360 347 OFFCURVE",
"349 347 CURVE SMOOTH",
"338 347 OFFCURVE",
"330 350 OFFCURVE",
"317 355 CURVE SMOOTH",
"288 366 OFFCURVE",
"258 372 OFFCURVE",
"232 372 CURVE SMOOTH",
"194 372 OFFCURVE",
"159 361 OFFCURVE",
"130 341 CURVE SMOOTH",
"80 306 OFFCURVE",
"40 243 OFFCURVE",
"40 158 CURVE SMOOTH",
"40 61 OFFCURVE",
"105 -12 OFFCURVE",
"194 -12 CURVE SMOOTH",
"274 -12 OFFCURVE",
"313 41 OFFCURVE",
"320 53 CURVE"
);
},
{
closed = 1;
nodes = (
"320 120 LINE SMOOTH",
"320 68 OFFCURVE",
"269 32 OFFCURVE",
"227 32 CURVE SMOOTH",
"147 32 OFFCURVE",
"112 113 OFFCURVE",
"112 188 CURVE SMOOTH",
"112 280 OFFCURVE",
"163 336 OFFCURVE",
"225 336 CURVE SMOOTH",
"253 336 OFFCURVE",
"275 329 OFFCURVE",
"289 320 CURVE SMOOTH",
"312 306 OFFCURVE",
"320 280 OFFCURVE",
"320 238 CURVE SMOOTH"
);
}
);
width = 464;
}
);
leftKerningGroup = c;
unicode = 0071;
userData = {
com.adobe.type.autohint = "ICA8aGludFNldExpc3Q+CiAgICA8aGludHNldCBw\012b2ludFRhZz0iaHIwMCI+CiAgICAgIDxoc3RlbSBw\012b3M9Ii0yMTEiIHdpZHRoPSItMjEiIC8+CiAgICAg\012IDxoc3RlbSBwb3M9Ii0xMiIgd2lkdGg9IjQ0IiAv\012PgogICAgICA8aHN0ZW0gcG9zPSIzMzYiIHdpZHRo\012PSIzNiIgLz4KICAgICAgPHZzdGVtIHBvcz0iNDAi\012IHdpZHRoPSI3MiIgLz4KICAgICAgPHZzdGVtIHBv\012cz0iMzIwIiB3aWR0aD0iNjQiIC8+CiAgICA8L2hp\012bnRzZXQ+CiAgPC9oaW50U2V0TGlzdD4K";
};
},
{
glyphname = r;
layers = (
{
hints = (
{
horizontal = 1;
origin = "{0, 0}";
type = Tag;
name = hr00;
}
);
layerId = "9E0117ED-02C0-4C46-91DE-7DE1029A8F9A";
name = Regular;
paths = (
{
closed = 1;
nodes = (
"144 372 LINE",
"36 324 LINE",
"52 324 OFFCURVE",
"80 314 OFFCURVE",
"80 251 CURVE SMOOTH",
"80 100 LINE SMOOTH",
"80 11 OFFCURVE",
"48 1 OFFCURVE",
"41 0 CURVE",
"182 0 LINE",
"175 1 OFFCURVE",
"144 13 OFFCURVE",
"144 100 CURVE SMOOTH",
"144 181 LINE SMOOTH",
"144 254 OFFCURVE",
"176 311 OFFCURVE",
"234 311 CURVE SMOOTH",
"274 311 OFFCURVE",
"291 290 OFFCURVE",
"296 284 CURVE",
"296 366 LINE",
"287 371 OFFCURVE",
"273 372 OFFCURVE",
"263 372 CURVE SMOOTH",
"212 372 OFFCURVE",
"161 318 OFFCURVE",
"144 281 CURVE"
);
}
);
width = 320;
}
);
leftKerningGroup = r;
rightKerningGroup = r;
unicode = 0072;
userData = {
com.adobe.type.autohint = "ICA8aGludFNldExpc3Q+CiAgICA8aGludHNldCBw\012b2ludFRhZz0iaHIwMCI+CiAgICAgIDxoc3RlbSBw\012b3M9IjIxIiB3aWR0aD0iLTIxIiAvPgogICAgICA8\012aHN0ZW0gcG9zPSIzMDkiIHdpZHRoPSI2MSIgLz4K\012ICAgICAgPGhzdGVtIHBvcz0iMzcyIiB3aWR0aD0i\012LTIwIiAvPgogICAgICA8dnN0ZW0gcG9zPSI2NSIg\012d2lkdGg9IjY0IiAvPgogICAgPC9oaW50c2V0Pgog\012IDwvaGludFNldExpc3Q+Cg==";
};
},
{
glyphname = s;
layers = (
{
guideLines = (
{
angle = 90;
position = "{151, 0}";
}
);
hints = (
{
horizontal = 1;
origin = "{0, 0}";
type = Tag;
name = hr00;
}
);
layerId = "9E0117ED-02C0-4C46-91DE-7DE1029A8F9A";
name = Regular;
paths = (
{
closed = 1;
nodes = (
"304 98 CURVE SMOOTH",
"304 215 OFFCURVE",
"110 195 OFFCURVE",
"110 284 CURVE SMOOTH",
"110 310 OFFCURVE",
"135 336 OFFCURVE",
"172 336 CURVE SMOOTH",
"208 336 OFFCURVE",
"254 317 OFFCURVE",
"271 268 CURVE",
"287 343 LINE",
"272 355 OFFCURVE",
"236 372 OFFCURVE",
"179 372 CURVE SMOOTH",
"104 372 OFFCURVE",
"56 321 OFFCURVE",
"56 263 CURVE SMOOTH",
"56 150 OFFCURVE",
"248 152 OFFCURVE",
"248 78 CURVE SMOOTH",
"248 54 OFFCURVE",
"222 24 OFFCURVE",
"178 24 CURVE SMOOTH",
"133 24 OFFCURVE",
"83 45 OFFCURVE",
"56 112 CURVE",
"56 24 LINE",
"84 3 OFFCURVE",
"130 -12 OFFCURVE",
"171 -12 CURVE SMOOTH",
"255 -12 OFFCURVE",
"304 42 OFFCURVE"
);
}
);
width = 344;
}
);
leftKerningGroup = s;
rightKerningGroup = s;
unicode = 0073;
userData = {
com.adobe.type.autohint = "ICA8aGludFNldExpc3Q+CiAgICA8aGludHNldCBw\012b2ludFRhZz0iaHIwMCI+CiAgICAgIDxoc3RlbSBw\012b3M9Ii0xMiIgd2lkdGg9IjM2IiAvPgogICAgICA8\012aHN0ZW0gcG9zPSIzMzYiIHdpZHRoPSIzNiIgLz4K\012ICAgICAgPHZzdGVtIHBvcz0iNTYiIHdpZHRoPSI1\012NiIgLz4KICAgICAgPHZzdGVtIHBvcz0iMjQ4IiB3\012aWR0aD0iNTYiIC8+CiAgICA8L2hpbnRzZXQ+CiAg\012PC9oaW50U2V0TGlzdD4K";
com.typemytype.robofont.guides = (
{
angle = 90;
isGlobal = 0;
magnetic = 5;
x = 151;
y = 0;
}
);
};
},
{
glyphname = t;
layers = (
{
hints = (
{
horizontal = 1;
origin = "{0, 0}";
type = Tag;
name = hr00;
}
);
layerId = "9E0117ED-02C0-4C46-91DE-7DE1029A8F9A";
name = Regular;
paths = (
{
closed = 1;
nodes = (
"280 81 CURVE",
"264 52 OFFCURVE",
"236 36 OFFCURVE",
"210 36 CURVE SMOOTH",
"179 36 OFFCURVE",
"144 59 OFFCURVE",
"144 113 CURVE SMOOTH",
"144 324 LINE",
"272 324 LINE",
"272 364 LINE",
"144 364 LINE",
"144 460 LINE",
"24 324 LINE",
"80 324 LINE",
"80 102 LINE SMOOTH",
"80 46 OFFCURVE",
"109 -12 OFFCURVE",
"179 -12 CURVE SMOOTH",
"217 -12 OFFCURVE",
"267 2 OFFCURVE"
);
}
);
width = 304;
}
);
leftKerningGroup = t;
rightKerningGroup = t;
unicode = 0074;
userData = {
com.adobe.type.autohint = "ICA8aGludFNldExpc3Q+CiAgICA8aGludHNldCBw\012b2ludFRhZz0iaHIwMCI+CiAgICAgIDxoc3RlbSBw\012b3M9Ii0xMiIgd2lkdGg9IjQ4IiAvPgogICAgICA8\012aHN0ZW0gcG9zPSIzMTYiIHdpZHRoPSI0NCIgLz4K\012ICAgICAgPGhzdGVtIHBvcz0iNDUyIiB3aWR0aD0i\012LTIwIiAvPgogICAgICA8dnN0ZW0gcG9zPSI4MCIg\012d2lkdGg9IjY0IiAvPgogICAgPC9oaW50c2V0Pgog\012IDwvaGludFNldExpc3Q+Cg==";
};
},
{
glyphname = u;
layers = (
{
hints = (
{
horizontal = 1;
origin = "{0, 0}";
type = Tag;
name = hr00;
}
);
layerId = "9E0117ED-02C0-4C46-91DE-7DE1029A8F9A";
name = Regular;
paths = (
{
closed = 1;
nodes = (
"320 -12 LINE",
"434 40 LINE",
"428 40 LINE SMOOTH",
"412 40 OFFCURVE",
"384 50 OFFCURVE",
"384 113 CURVE",
"384 364 LINE",
"274 364 LINE",
"274 364 OFFCURVE",
"320 360 OFFCURVE",
"320 273 CURVE SMOOTH",
"320 127 LINE SMOOTH",
"320 73 OFFCURVE",
"274 42 OFFCURVE",
"230 42 CURVE SMOOTH",
"187 42 OFFCURVE",
"144 72 OFFCURVE",
"144 139 CURVE SMOOTH",
"144 364 LINE",
"23 364 LINE",
"23 364 OFFCURVE",
"80 359 OFFCURVE",
"80 266 CURVE SMOOTH",
"80 124 LINE SMOOTH",
"80 27 OFFCURVE",
"135 -12 OFFCURVE",
"197 -12 CURVE SMOOTH",
"246 -12 OFFCURVE",
"288 13 OFFCURVE",
"320 58 CURVE"
);
}
);
width = 464;
}
);
leftKerningGroup = u;
rightKerningGroup = u;
unicode = 0075;
userData = {
com.adobe.type.autohint = "ICA8aGludFNldExpc3Q+CiAgICA8aGludHNldCBw\012b2ludFRhZz0iaHIwMCI+CiAgICAgIDxoc3RlbSBw\012b3M9Ii0xMiIgd2lkdGg9IjU0IiAvPgogICAgICA8\012aHN0ZW0gcG9zPSIzNjAiIHdpZHRoPSItMjAiIC8+\012CiAgICAgIDx2c3RlbSBwb3M9IjgwIiB3aWR0aD0i\012NjQiIC8+CiAgICAgIDx2c3RlbSBwb3M9IjMyMCIg\012d2lkdGg9IjY0IiAvPgogICAgPC9oaW50c2V0Pgog\012IDwvaGludFNldExpc3Q+Cg==";
};
},
{
glyphname = v;
layers = (
{
hints = (
{
horizontal = 1;
origin = "{0, 0}";
type = Tag;
name = hr00;
}
);
layerId = "9E0117ED-02C0-4C46-91DE-7DE1029A8F9A";
name = Regular;
paths = (
{
closed = 1;
nodes = (
"397 364 CURVE",
"264 364 LINE",
"288 360 OFFCURVE",
"296 340 OFFCURVE",
"296 319 CURVE SMOOTH",
"296 306 OFFCURVE",
"293 292 OFFCURVE",
"289 282 CURVE SMOOTH",
"215 111 LINE",
"136 292 LINE SMOOTH",
"129 307 OFFCURVE",
"126 321 OFFCURVE",
"126 330 CURVE SMOOTH",
"126 362 OFFCURVE",
"155 364 OFFCURVE",
"155 364 CURVE",
"4 364 LINE",
"4 364 OFFCURVE",
"35 361 OFFCURVE",
"64 295 CURVE SMOOTH",
"200 -12 LINE",
"335 291 LINE SMOOTH",
"366 361 OFFCURVE",
"397 364 OFFCURVE"
);
}
);
width = 400;
}
);
unicode = 0076;
userData = {
com.adobe.type.autohint = "ICA8aGludFNldExpc3Q+CiAgICA8aGludHNldCBw\012b2ludFRhZz0iaHIwMCI+CiAgICAgIDxoc3RlbSBw\012b3M9Ii0xIiB3aWR0aD0iLTIxIiAvPgogICAgICA8\012aHN0ZW0gcG9zPSIzNjAiIHdpZHRoPSItMjAiIC8+\012CiAgICA8L2hpbnRzZXQ+CiAgPC9oaW50U2V0TGlz\012dD4K";
};
},
{
glyphname = w;
layers = (
{
hints = (
{
horizontal = 1;
origin = "{0, 0}";
type = Tag;
name = hr00;
}
);
layerId = "9E0117ED-02C0-4C46-91DE-7DE1029A8F9A";
name = Regular;
paths = (
{
closed = 1;
nodes = (
"329 372 LINE",
"210 107 LINE",
"134 292 LINE SMOOTH",
"129 304 OFFCURVE",
"125 318 OFFCURVE",
"125 330 CURVE SMOOTH",
"125 346 OFFCURVE",
"132 360 OFFCURVE",
"151 364 CURVE",
"5 364 LINE",
"10 363 OFFCURVE",
"36 354 OFFCURVE",
"62 295 CURVE SMOOTH",
"195 -12 LINE",
"313 246 LINE",
"436 -13 LINE",
"564 290 LINE SMOOTH",
"591 354 OFFCURVE",
"622 362 OFFCURVE",
"627 363 CURVE",
"493 363 LINE",
"517 359 OFFCURVE",
"525 339 OFFCURVE",
"525 318 CURVE SMOOTH",
"525 305 OFFCURVE",
"522 291 OFFCURVE",
"518 281 CURVE SMOOTH",
"451 106 LINE"
);
}
);
width = 632;
}
);
leftKerningGroup = w;
rightKerningGroup = w;
unicode = 0077;
userData = {
com.adobe.type.autohint = "ICA8aGludFNldExpc3Q+CiAgICA8aGludHNldCBw\012b2ludFRhZz0iaHIwMCI+CiAgICAgIDxoc3RlbSBw\012b3M9Ii0xIiB3aWR0aD0iLTIxIiAvPgogICAgICA8\012aHN0ZW0gcG9zPSIzNjAiIHdpZHRoPSItMjAiIC8+\012CiAgICA8L2hpbnRzZXQ+CiAgPC9oaW50U2V0TGlz\012dD4K";
};
},
{
glyphname = x;
layers = (
{
hints = (
{
horizontal = 1;
origin = "{0, 12}";
type = Tag;
name = hr01;
},
{
horizontal = 1;
origin = "{0, 36}";
type = Tag;
name = hr02;
}
);
layerId = "9E0117ED-02C0-4C46-91DE-7DE1029A8F9A";
name = Regular;
paths = (
{
closed = 1;
nodes = (
"395 0 LINE",
"395 0 OFFCURVE",
"366 1 OFFCURVE",
"314 79 CURVE SMOOTH",
"237 195 LINE",
"306 285 LINE SMOOTH",
"364 360 OFFCURVE",
"395 364 OFFCURVE",
"395 364 CURVE",
"262 364 LINE",
"262 364 OFFCURVE",
"285 361 OFFCURVE",
"285 338 CURVE SMOOTH",
"285 327 OFFCURVE",
"279 311 OFFCURVE",
"261 287 CURVE SMOOTH",
"217 227 LINE",
"169 300 LINE SMOOTH",
"159 315 OFFCURVE",
"156 326 OFFCURVE",
"156 335 CURVE SMOOTH",
"156 359 OFFCURVE",
"179 364 OFFCURVE",
"179 364 CURVE",
"23 364 LINE",
"23 364 OFFCURVE",
"53 358 OFFCURVE",
"110 271 CURVE SMOOTH",
"174 173 LINE",
"110 87 LINE SMOOTH",
"47 3 OFFCURVE",
"23 0 OFFCURVE",
"23 0 CURVE",
"154 0 LINE",
"154 0 OFFCURVE",
"128 3 OFFCURVE",
"128 27 CURVE SMOOTH",
"128 39 OFFCURVE",
"135 56 OFFCURVE",
"153 81 CURVE SMOOTH",
"196 140 LINE",
"246 66 LINE SMOOTH",
"259 47 OFFCURVE",
"262 32 OFFCURVE",
"262 23 CURVE SMOOTH",
"262 1 OFFCURVE",
"239 0 OFFCURVE",
"239 0 CURVE"
);
}
);
width = 400;
}
);
unicode = 0078;
userData = {
com.adobe.type.autohint = "ICA8aGludFNldExpc3Q+CiAgICA8aGludHNldCBw\012b2ludFRhZz0iaHIwMSI+CiAgICAgIDxoc3RlbSBw\012b3M9IjIxIiB3aWR0aD0iLTIxIiAvPgogICAgICA8\012aHN0ZW0gcG9zPSIzNjAiIHdpZHRoPSItMjAiIC8+\012CiAgICAgIDx2c3RlbSBwb3M9IjE1NiIgd2lkdGg9\012IjEyOSIgLz4KICAgIDwvaGludHNldD4KICAgIDxo\012aW50c2V0IHBvaW50VGFnPSJocjAyIj4KICAgICAg\012PGhzdGVtIHBvcz0iMjEiIHdpZHRoPSItMjEiIC8+\012CiAgICAgIDxoc3RlbSBwb3M9IjM2MCIgd2lkdGg9\012Ii0yMCIgLz4KICAgICAgPHZzdGVtIHBvcz0iMTI4\012IiB3aWR0aD0iMTM0IiAvPgogICAgPC9oaW50c2V0\012PgogIDwvaGludFNldExpc3Q+Cg==";
};
},
{
glyphname = y;
layers = (
{
hints = (
{
horizontal = 1;
origin = "{0, 0}";
type = Tag;
name = hr00;
}
);
layerId = "9E0117ED-02C0-4C46-91DE-7DE1029A8F9A";
name = Regular;
paths = (
{
closed = 1;
nodes = (
"21 -232 CURVE",
"123 -232 LINE",
"137 -192 OFFCURVE",
"142 -156 OFFCURVE",
"198 -25 CURVE SMOOTH",
"334 291 LINE SMOOTH",
"361 355 OFFCURVE",
"392 363 OFFCURVE",
"397 364 CURVE",
"263 364 LINE",
"287 360 OFFCURVE",
"295 340 OFFCURVE",
"295 319 CURVE SMOOTH",
"295 306 OFFCURVE",
"292 292 OFFCURVE",
"288 282 CURVE SMOOTH",
"216 105 LINE",
"135 292 LINE SMOOTH",
"128 307 OFFCURVE",
"125 321 OFFCURVE",
"125 330 CURVE SMOOTH",
"125 358 OFFCURVE",
"147 363 OFFCURVE",
"152 364 CURVE",
"6 364 LINE",
"11 363 OFFCURVE",
"37 354 OFFCURVE",
"63 295 CURVE SMOOTH",
"180 30 LINE",
"169 3 LINE SMOOTH",
"109 -142 OFFCURVE",
"54 -216 OFFCURVE"
);
}
);
width = 400;
}
);
leftKerningGroup = y;
rightKerningGroup = y;
unicode = 0079;
userData = {
com.adobe.type.autohint = "ICA8aGludFNldExpc3Q+CiAgICA8aGludHNldCBw\012b2ludFRhZz0iaHIwMCI+CiAgICAgIDxoc3RlbSBw\012b3M9Ii0yMTEiIHdpZHRoPSItMjEiIC8+CiAgICAg\012IDxoc3RlbSBwb3M9IjM2MCIgd2lkdGg9Ii0yMCIg\012Lz4KICAgIDwvaGludHNldD4KICA8L2hpbnRTZXRM\012aXN0Pgo=";
};
},
{
glyphname = z;
layers = (
{
hints = (
{
horizontal = 1;
origin = "{0, 0}";
type = Tag;
name = hr00;
}
);
layerId = "9E0117ED-02C0-4C46-91DE-7DE1029A8F9A";
name = Regular;
paths = (
{
closed = 1;
nodes = (
"338 364 LINE",
"55 364 LINE",
"55 259 LINE",
"56 270 OFFCURVE",
"66 324 OFFCURVE",
"135 324 CURVE SMOOTH",
"240 324 LINE",
"38 0 LINE",
"336 0 LINE",
"336 103 LINE",
"334 92 OFFCURVE",
"325 40 OFFCURVE",
"264 40 CURVE SMOOTH",
"139 40 LINE"
);
}
);
width = 384;
}
);
leftKerningGroup = z;
rightKerningGroup = z;
unicode = 007A;
userData = {
com.adobe.type.autohint = "ICA8aGludFNldExpc3Q+CiAgICA8aGludHNldCBw\012b2ludFRhZz0iaHIwMCI+CiAgICAgIDxoc3RlbSBw\012b3M9IjAiIHdpZHRoPSI0MCIgLz4KICAgICAgPGhz\012dGVtIHBvcz0iMzIwIiB3aWR0aD0iNDAiIC8+CiAg\012ICA8L2hpbnRzZXQ+CiAgPC9oaW50U2V0TGlzdD4K";
};
},
{
glyphname = braceleft;
layers = (
{
hints = (
{
horizontal = 1;
origin = "{0, 0}";
type = Tag;
name = hr00;
}
);
layerId = "9E0117ED-02C0-4C46-91DE-7DE1029A8F9A";
name = Regular;
paths = (
{
closed = 1;
nodes = (
"200 372 CURVE",
"200 625 LINE SMOOTH",
"200 666 OFFCURVE",
"212 695 OFFCURVE",
"253 695 CURVE SMOOTH",
"324 695 LINE",
"324 727 LINE",
"287 727 LINE SMOOTH",
"210 727 OFFCURVE",
"128 713 OFFCURVE",
"128 616 CURVE SMOOTH",
"128 344 LINE SMOOTH",
"128 279 OFFCURVE",
"110 264 OFFCURVE",
"63 264 CURVE SMOOTH",
"17 264 LINE",
"17 232 LINE",
"63 232 LINE SMOOTH",
"110 232 OFFCURVE",
"128 217 OFFCURVE",
"128 152 CURVE SMOOTH",
"128 -121 LINE SMOOTH",
"128 -218 OFFCURVE",
"210 -232 OFFCURVE",
"287 -232 CURVE SMOOTH",
"324 -232 LINE",
"324 -200 LINE",
"253 -200 LINE SMOOTH",
"212 -200 OFFCURVE",
"200 -161 OFFCURVE",
"200 -120 CURVE SMOOTH",
"200 124 LINE SMOOTH",
"200 180 OFFCURVE",
"177 232 OFFCURVE",
"101 248 CURVE",
"177 264 OFFCURVE",
"200 315 OFFCURVE"
);
}
);
width = 368;
}
);
rightKerningGroup = parenleft;
unicode = 007B;
userData = {
com.adobe.type.autohint = "ICA8aGludFNldExpc3Q+CiAgICA8aGludHNldCBw\012b2ludFRhZz0iaHIwMCI+CiAgICAgIDxoc3RlbSBw\012b3M9Ii0yMDciIHdpZHRoPSItMjEiIC8+CiAgICAg\012IDxoc3RlbSBwb3M9IjcyNiIgd2lkdGg9Ii0yMCIg\012Lz4KICAgICAgPHZzdGVtIHBvcz0iOTQiIHdpZHRo\012PSI1OSIgLz4KICAgIDwvaGludHNldD4KICA8L2hp\012bnRTZXRMaXN0Pgo=";
};
},
{
glyphname = bar;
layers = (
{
hints = (
{
horizontal = 1;
origin = "{0, 0}";
type = Tag;
name = hr00;
}
);
layerId = "9E0117ED-02C0-4C46-91DE-7DE1029A8F9A";
name = Regular;
paths = (
{
closed = 1;
nodes = (
"128 -232 LINE",
"128 727 LINE",
"80 727 LINE",
"80 -232 LINE"
);
}
);
width = 208;
}
);
unicode = 007C;
userData = {
com.adobe.type.autohint = "ICA8aGludFNldExpc3Q+CiAgICA8aGludHNldCBw\012b2ludFRhZz0iaHIwMCI+CiAgICAgIDxoc3RlbSBw\012b3M9Ii0xOTMiIHdpZHRoPSItMjEiIC8+CiAgICAg\012IDxoc3RlbSBwb3M9IjcyNiIgd2lkdGg9Ii0yMCIg\012Lz4KICAgICAgPHZzdGVtIHBvcz0iODkiIHdpZHRo\012PSI0MSIgLz4KICAgIDwvaGludHNldD4KICA8L2hp\012bnRTZXRMaXN0Pgo=";
};
},
{
glyphname = braceright;
layers = (
{
hints = (
{
horizontal = 1;
origin = "{0, 0}";
type = Tag;
name = hr00;
}
);
layerId = "9E0117ED-02C0-4C46-91DE-7DE1029A8F9A";
name = Regular;
paths = (
{
closed = 1;
nodes = (
"168 372 LINE SMOOTH",
"168 315 OFFCURVE",
"192 264 OFFCURVE",
"268 248 CURVE",
"192 232 OFFCURVE",
"168 180 OFFCURVE",
"168 124 CURVE SMOOTH",
"168 -120 LINE SMOOTH",
"168 -161 OFFCURVE",
"156 -200 OFFCURVE",
"115 -200 CURVE SMOOTH",
"44 -200 LINE",
"44 -232 LINE",
"81 -232 LINE SMOOTH",
"158 -232 OFFCURVE",
"240 -218 OFFCURVE",
"240 -121 CURVE SMOOTH",
"240 152 LINE SMOOTH",
"240 217 OFFCURVE",
"259 232 OFFCURVE",
"306 232 CURVE SMOOTH",
"352 232 LINE",
"352 264 LINE",
"306 264 LINE SMOOTH",
"259 264 OFFCURVE",
"240 279 OFFCURVE",
"240 344 CURVE SMOOTH",
"240 616 LINE SMOOTH",
"240 713 OFFCURVE",
"158 727 OFFCURVE",
"81 727 CURVE SMOOTH",
"44 727 LINE",
"44 695 LINE",
"115 695 LINE SMOOTH",
"156 695 OFFCURVE",
"168 666 OFFCURVE",
"168 625 CURVE SMOOTH"
);
}
);
width = 368;
}
);
leftKerningGroup = parenright;
unicode = 007D;
userData = {
com.adobe.type.autohint = "ICA8aGludFNldExpc3Q+CiAgICA8aGludHNldCBw\012b2ludFRhZz0iaHIwMCI+CiAgICAgIDxoc3RlbSBw\012b3M9Ii0yMDciIHdpZHRoPSItMjEiIC8+CiAgICAg\012IDxoc3RlbSBwb3M9IjcyNiIgd2lkdGg9Ii0yMCIg\012Lz4KICAgICAgPHZzdGVtIHBvcz0iMTIyIiB3aWR0\012aD0iNTkiIC8+CiAgICA8L2hpbnRzZXQ+CiAgPC9o\012aW50U2V0TGlzdD4K";
};
},
{
color = (153,155,255,1);
glyphname = asciitilde;
layers = (
{
hints = (
{
horizontal = 1;
origin = "{0, 0}";
type = Tag;
name = hr00;
}
);
layerId = "9E0117ED-02C0-4C46-91DE-7DE1029A8F9A";
name = Regular;
paths = (
{
closed = 1;
nodes = (
"480 292 CURVE",
"424 292 LINE",
"423 248 OFFCURVE",
"411 222 OFFCURVE",
"383 222 CURVE SMOOTH",
"327 222 OFFCURVE",
"263 297 OFFCURVE",
"184 297 CURVE SMOOTH",
"129 297 OFFCURVE",
"78 260 OFFCURVE",
"78 168 CURVE",
"135 168 LINE",
"136 218 OFFCURVE",
"152 238 OFFCURVE",
"178 238 CURVE SMOOTH",
"235 238 OFFCURVE",
"300 162 OFFCURVE",
"384 162 CURVE SMOOTH",
"446 162 OFFCURVE",
"480 206 OFFCURVE"
);
}
);
width = 560;
}
);
unicode = 007E;
userData = {
com.adobe.type.autohint = "ICA8aGludFNldExpc3Q+CiAgICA8aGludHNldCBw\012b2ludFRhZz0iaHIwMCI+CiAgICAgIDxoc3RlbSBw\012b3M9IjE2MiIgd2lkdGg9IjYwIiAvPgogICAgICA8\012aHN0ZW0gcG9zPSIyMzgiIHdpZHRoPSI1OSIgLz4K\012ICAgIDwvaGludHNldD4KICA8L2hpbnRTZXRMaXN0\012Pgo=";
com.typemytype.robofont.mark = (
0.6,
0.609,
1,
1
);
};
},
{
glyphname = dagger;
layers = (
{
hints = (
{
horizontal = 1;
origin = "{0, 0}";
type = Tag;
name = hr00;
}
);
layerId = "9E0117ED-02C0-4C46-91DE-7DE1029A8F9A";
name = Regular;
paths = (
{
closed = 1;
nodes = (
"188 688 LINE",
"188 688 OFFCURVE",
"215 684 OFFCURVE",
"215 599 CURVE SMOOTH",
"215 455 LINE",
"93 455 LINE SMOOTH",
"43 455 OFFCURVE",
"40 483 OFFCURVE",
"40 483 CURVE",
"40 378 LINE",
"40 378 OFFCURVE",
"42 407 OFFCURVE",
"94 407 CURVE SMOOTH",
"215 407 LINE",
"215 -43 LINE SMOOTH",
"215 -143 OFFCURVE",
"248 -235 OFFCURVE",
"248 -235 CURVE",
"248 -235 OFFCURVE",
"281 -143 OFFCURVE",
"281 -43 CURVE SMOOTH",
"281 407 LINE",
"402 407 LINE SMOOTH",
"454 407 OFFCURVE",
"456 378 OFFCURVE",
"456 378 CURVE",
"456 483 LINE",
"456 483 OFFCURVE",
"453 455 OFFCURVE",
"403 455 CURVE SMOOTH",
"281 455 LINE",
"281 599 LINE SMOOTH",
"281 684 OFFCURVE",
"308 688 OFFCURVE",
"308 688 CURVE"
);
}
);
width = 496;
}
);
unicode = 2020;
userData = {
com.adobe.type.autohint = "ICA8aGludFNldExpc3Q+CiAgICA8aGludHNldCBw\012b2ludFRhZz0iaHIwMCI+CiAgICAgIDxoc3RlbSBw\012b3M9Ii0yOSIgd2lkdGg9Ii0yMSIgLz4KICAgICAg\012PGhzdGVtIHBvcz0iNDcyIiB3aWR0aD0iNDkiIC8+\012CiAgICAgIDxoc3RlbSBwb3M9IjY5MiIgd2lkdGg9\012Ii0yMCIgLz4KICAgICAgPHZzdGVtMyBzdGVtM0xp\012c3Q9Ijg2LDE4OSwyMTgsNTcsMjE4LDE4OSIgLz4K\012ICAgIDwvaGludHNldD4KICA8L2hpbnRTZXRMaXN0\012Pgo=";
};
},
{
glyphname = degree;
layers = (
{
hints = (
{
horizontal = 1;
origin = "{0, 0}";
type = Tag;
name = hr00;
}
);
layerId = "9E0117ED-02C0-4C46-91DE-7DE1029A8F9A";
name = Regular;
paths = (
{
closed = 1;
nodes = (
"77 597 CURVE SMOOTH",
"77 540 OFFCURVE",
"123 493 OFFCURVE",
"180 493 CURVE SMOOTH",
"237 493 OFFCURVE",
"283 540 OFFCURVE",
"283 597 CURVE",
"283 654 OFFCURVE",
"237 701 OFFCURVE",
"180 701 CURVE",
"123 701 OFFCURVE",
"77 654 OFFCURVE"
);
},
{
closed = 1;
nodes = (
"118 597 CURVE SMOOTH",
"118 632 OFFCURVE",
"145 660 OFFCURVE",
"180 660 CURVE SMOOTH",
"215 660 OFFCURVE",
"242 632 OFFCURVE",
"242 597 CURVE SMOOTH",
"242 562 OFFCURVE",
"215 534 OFFCURVE",
"180 534 CURVE SMOOTH",
"145 534 OFFCURVE",
"118 562 OFFCURVE"
);
}
);
width = 360;
}
);
unicode = 00B0;
userData = {
com.adobe.type.autohint = "ICA8aGludFNldExpc3Q+CiAgICA8aGludHNldCBw\012b2ludFRhZz0iaHIwMCI+CiAgICAgIDxoc3RlbSBw\012b3M9IjM3OCIgd2lkdGg9IjM4IiAvPgogICAgICA8\012aHN0ZW0gcG9zPSI1NDUiIHdpZHRoPSIzOSIgLz4K\012ICAgICAgPHZzdGVtIHBvcz0iNzYiIHdpZHRoPSI0\012MCIgLz4KICAgICAgPHZzdGVtIHBvcz0iMjM0IiB3\012aWR0aD0iNDAiIC8+CiAgICA8L2hpbnRzZXQ+CiAg\012PC9oaW50U2V0TGlzdD4K";
};
},
{
glyphname = cent;
layers = (
{
hints = (
{
horizontal = 1;
origin = "{0, 0}";
type = Tag;
name = hr00;
}
);
layerId = "9E0117ED-02C0-4C46-91DE-7DE1029A8F9A";
name = Regular;
paths = (
{
closed = 1;
nodes = (
"366 347 CURVE",
"339 300 OFFCURVE",
"292 271 OFFCURVE",
"246 267 CURVE",
"246 553 LINE",
"273 548 OFFCURVE",
"300 533 OFFCURVE",
"321 501 CURVE",
"353 562 LINE",
"325 586 OFFCURVE",
"299 597 OFFCURVE",
"246 598 CURVE",
"246 727 LINE",
"206 727 LINE",
"206 595 LINE",
"134 577 OFFCURVE",
"62 510 OFFCURVE",
"62 394 CURVE SMOOTH",
"62 293 OFFCURVE",
"133 233 OFFCURVE",
"206 223 CURVE",
"206 76 LINE",
"246 76 LINE",
"246 223 LINE",
"304 231 OFFCURVE",
"355 271 OFFCURVE"
);
},
{
closed = 1;
nodes = (
"206 273 LINE",
"159 288 OFFCURVE",
"122 334 OFFCURVE",
"122 425 CURVE SMOOTH",
"122 485 OFFCURVE",
"151 545 OFFCURVE",
"206 554 CURVE"
);
}
);
width = 400;
}
);
unicode = 00A2;
userData = {
com.adobe.type.autohint = "ICA8aGludFNldExpc3Q+CiAgICA8aGludHNldCBw\012b2ludFRhZz0iaHIwMCI+CiAgICAgIDxoc3RlbSBw\012b3M9Ii0xMzMiIHdpZHRoPSItMjEiIC8+CiAgICAg\012IDxoc3RlbSBwb3M9IjUxMCIgd2lkdGg9Ii0yMCIg\012Lz4KICAgICAgPHZzdGVtIHBvcz0iNTIiIHdpZHRo\012PSI2MCIgLz4KICAgICAgPHZzdGVtIHBvcz0iMTk2\012IiB3aWR0aD0iNDMiIC8+CiAgICA8L2hpbnRzZXQ+\012CiAgPC9oaW50U2V0TGlzdD4K";
};
},
{
glyphname = sterling;
layers = (
{
hints = (
{
horizontal = 1;
origin = "{0, 7}";
type = Tag;
name = hr01;
},
{
horizontal = 1;
origin = "{0, 51}";
type = Tag;
name = hr02;
}
);
layerId = "9E0117ED-02C0-4C46-91DE-7DE1029A8F9A";
name = Regular;
paths = (
{
closed = 1;
nodes = (
"450 33 CURVE",
"440 106 LINE",
"423 72 OFFCURVE",
"373 43 OFFCURVE",
"293 43 CURVE SMOOTH",
"240 43 OFFCURVE",
"174 55 OFFCURVE",
"109 59 CURVE",
"172 94 OFFCURVE",
"199 124 OFFCURVE",
"213 211 CURVE SMOOTH",
"217 235 OFFCURVE",
"220 287 OFFCURVE",
"222 324 CURVE",
"328 324 LINE",
"328 364 LINE",
"222 364 LINE",
"224 398 OFFCURVE",
"221 498 OFFCURVE",
"227 558 CURVE SMOOTH",
"233 617 OFFCURVE",
"264 664 OFFCURVE",
"315 664 CURVE SMOOTH",
"343 664 OFFCURVE",
"373 642 OFFCURVE",
"377 613 CURVE",
"414 674 LINE",
"403 695 OFFCURVE",
"369 700 OFFCURVE",
"346 700 CURVE SMOOTH",
"247 700 OFFCURVE",
"186 623 OFFCURVE",
"167 531 CURVE SMOOTH",
"159 492 OFFCURVE",
"154 364 OFFCURVE",
"154 364 CURVE",
"70 364 LINE",
"70 324 LINE",
"151 324 LINE",
"151 324 OFFCURVE",
"147 239 OFFCURVE",
"145 209 CURVE SMOOTH",
"139 132 OFFCURVE",
"119 55 OFFCURVE",
"17 51 CURVE",
"17 -7 LINE",
"38 8 OFFCURVE",
"82 26 OFFCURVE",
"113 26 CURVE SMOOTH",
"187 26 OFFCURVE",
"258 -11 OFFCURVE",
"332 -11 CURVE SMOOTH",
"392 -11 OFFCURVE",
"434 9 OFFCURVE"
);
}
);
width = 480;
}
);
unicode = 00A3;
userData = {
com.adobe.type.autohint = "ICA8aGludFNldExpc3Q+CiAgICA8aGludHNldCBw\012b2ludFRhZz0iaHIwMSI+CiAgICAgIDxoc3RlbSBw\012b3M9IjI2IiB3aWR0aD0iMzMiIC8+CiAgICAgIDxo\012c3RlbSBwb3M9IjMwMCIgd2lkdGg9IjM0IiAvPgog\012ICAgICA8aHN0ZW0gcG9zPSI2MDEiIHdpZHRoPSIz\012NiIgLz4KICAgIDwvaGludHNldD4KICAgIDxoaW50\012c2V0IHBvaW50VGFnPSJocjAyIj4KICAgICAgPGhz\012dGVtIHBvcz0iLTExIiB3aWR0aD0iNTQiIC8+CiAg\012ICAgIDxoc3RlbSBwb3M9IjMwMCIgd2lkdGg9IjM0\012IiAvPgogICAgICA8aHN0ZW0gcG9zPSI2MDEiIHdp\012ZHRoPSIzNiIgLz4KICAgIDwvaGludHNldD4KICA8\012L2hpbnRTZXRMaXN0Pgo=";
};
},
{
glyphname = section;
layers = (
{
hints = (
{
horizontal = 1;
origin = "{1, 3}";
type = Tag;
name = hr01;
}
);
layerId = "9E0117ED-02C0-4C46-91DE-7DE1029A8F9A";
name = Regular;
paths = (
{
closed = 1;
nodes = (
"403 238 CURVE SMOOTH",
"403 321 OFFCURVE",
"349 363 OFFCURVE",
"240 434 CURVE SMOOTH",
"177 474 OFFCURVE",
"121 512 OFFCURVE",
"121 569 CURVE SMOOTH",
"121 631 OFFCURVE",
"165 660 OFFCURVE",
"210 660 CURVE SMOOTH",
"262 660 OFFCURVE",
"316 636 OFFCURVE",
"343 586 CURVE",
"370 654 LINE",
"339 682 OFFCURVE",
"297 700 OFFCURVE",
"245 700 CURVE SMOOTH",
"140 700 OFFCURVE",
"77 632 OFFCURVE",
"77 546 CURVE SMOOTH",
"77 468 OFFCURVE",
"123 429 OFFCURVE",
"173 395 CURVE",
"109 366 OFFCURVE",
"72 304 OFFCURVE",
"72 238 CURVE SMOOTH",
"72 163 OFFCURVE",
"121 116 OFFCURVE",
"235 42 CURVE SMOOTH",
"298 2 OFFCURVE",
"352 -39 OFFCURVE",
"352 -99 CURVE SMOOTH",
"352 -165 OFFCURVE",
"305 -199 OFFCURVE",
"257 -199 CURVE SMOOTH",
"203 -199 OFFCURVE",
"141 -167 OFFCURVE",
"112 -114 CURVE",
"84 -186 LINE",
"112 -218 OFFCURVE",
"166 -241 OFFCURVE",
"221 -241 CURVE SMOOTH",
"331 -241 OFFCURVE",
"398 -171 OFFCURVE",
"398 -75 CURVE SMOOTH",
"398 7 OFFCURVE",
"352 47 OFFCURVE",
"301 81 CURVE",
"365 110 OFFCURVE",
"403 172 OFFCURVE"
);
},
{
closed = 1;
nodes = (
"217 366 LINE SMOOTH",
"330 291 OFFCURVE",
"356 250 OFFCURVE",
"356 208 CURVE SMOOTH",
"356 164 OFFCURVE",
"321 117 OFFCURVE",
"280 95 CURVE",
"258 110 LINE SMOOTH",
"148 183 OFFCURVE",
"119 220 OFFCURVE",
"119 268 CURVE SMOOTH",
"119 311 OFFCURVE",
"151 356 OFFCURVE",
"195 380 CURVE"
);
}
);
width = 476;
}
);
unicode = 00A7;
userData = {
com.adobe.type.autohint = "ICA8aGludFNldExpc3Q+CiAgICA8aGludHNldCBw\012b2ludFRhZz0iaHIwMSI+CiAgICAgIDxoc3RlbSBw\012b3M9Ii0xMiIgd2lkdGg9IjI1IiAvPgogICAgICA8\012aHN0ZW0gcG9zPSI2NjkiIHdpZHRoPSIyOCIgLz4K\012ICAgICAgPHZzdGVtIHBvcz0iNjkiIHdpZHRoPSI0\012MSIgLz4KICAgICAgPHZzdGVtIHBvcz0iMzE5IiB3\012aWR0aD0iMzciIC8+CiAgICA8L2hpbnRzZXQ+CiAg\012PC9oaW50U2V0TGlzdD4K";
};
},
{
glyphname = bullet;
layers = (
{
hints = (
{
horizontal = 1;
origin = "{0, 0}";
type = Tag;
name = hr00;
}
);
layerId = "9E0117ED-02C0-4C46-91DE-7DE1029A8F9A";
name = Regular;
paths = (
{
closed = 1;
nodes = (
"158 215 CURVE",
"158 169 OFFCURVE",
"188 122 OFFCURVE",
"248 122 CURVE SMOOTH",
"308 122 OFFCURVE",
"338 169 OFFCURVE",
"338 215 CURVE",
"338 261 OFFCURVE",
"308 308 OFFCURVE",
"248 308 CURVE SMOOTH",
"188 308 OFFCURVE",
"158 261 OFFCURVE"
);
}
);
width = 496;
}
);
unicode = 2022;
userData = {
com.adobe.type.autohint = "ICA8aGludFNldExpc3Q+CiAgICA8aGludHNldCBw\012b2ludFRhZz0iaHIwMCI+CiAgICAgIDxoc3RlbSBw\012b3M9IjEyMSIgd2lkdGg9IjE4NyIgLz4KICAgICAg\012PHZzdGVtIHBvcz0iMTU2IiB3aWR0aD0iMTgwIiAv\012PgogICAgPC9oaW50c2V0PgogIDwvaGludFNldExp\012c3Q+Cg==";
};
},
{
glyphname = paragraph;
layers = (
{
hints = (
{
horizontal = 1;
origin = "{0, 0}";
type = Tag;
name = hr00;
}
);
layerId = "9E0117ED-02C0-4C46-91DE-7DE1029A8F9A";
name = Regular;
paths = (
{
closed = 1;
nodes = (
"280 688 LINE SMOOTH",
"139 688 OFFCURVE",
"24 573 OFFCURVE",
"24 432 CURVE SMOOTH",
"24 291 OFFCURVE",
"139 176 OFFCURVE",
"280 176 CURVE",
"280 -232 LINE",
"328 -232 LINE",
"328 644 LINE",
"424 644 LINE",
"424 -232 LINE",
"475 -232 LINE",
"475 583 LINE SMOOTH",
"475 683 OFFCURVE",
"523 688 OFFCURVE",
"523 688 CURVE"
);
}
);
width = 560;
}
);
unicode = 00B6;
userData = {
com.adobe.type.autohint = "ICA8aGludFNldExpc3Q+CiAgICA8aGludHNldCBw\012b2ludFRhZz0iaHIwMCI+CiAgICAgIDxoc3RlbSBw\012b3M9Ii0xOTMiIHdpZHRoPSItMjEiIC8+CiAgICAg\012IDxoc3RlbSBwb3M9IjY5MiIgd2lkdGg9Ii0yMCIg\012Lz4KICAgICAgPHZzdGVtIHBvcz0iMjY4IiB3aWR0\012aD0iNDgiIC8+CiAgICAgIDx2c3RlbSBwb3M9IjM4\012MiIgd2lkdGg9IjUxIiAvPgogICAgPC9oaW50c2V0\012PgogIDwvaGludFNldExpc3Q+Cg==";
};
},
{
glyphname = germandbls;
layers = (
{
hints = (
{
horizontal = 1;
origin = "{0, 6}";
type = Tag;
name = hr01;
},
{
horizontal = 1;
origin = "{0, 33}";
type = Tag;
name = hr02;
}
);
layerId = "9E0117ED-02C0-4C46-91DE-7DE1029A8F9A";
name = Regular;
paths = (
{
closed = 1;
nodes = (
"453 122 CURVE SMOOTH",
"453 258 OFFCURVE",
"255 280 OFFCURVE",
"255 333 CURVE SMOOTH",
"255 419 OFFCURVE",
"396 476 OFFCURVE",
"396 601 CURVE SMOOTH",
"396 690 OFFCURVE",
"330 737 OFFCURVE",
"258 737 CURVE SMOOTH",
"173 737 OFFCURVE",
"80 673 OFFCURVE",
"80 535 CURVE SMOOTH",
"80 93 LINE SMOOTH",
"80 3 OFFCURVE",
"48 0 OFFCURVE",
"48 0 CURVE",
"177 0 LINE",
"177 0 OFFCURVE",
"144 3 OFFCURVE",
"144 93 CURVE SMOOTH",
"144 560 LINE SMOOTH",
"144 658 OFFCURVE",
"181 699 OFFCURVE",
"241 699 CURVE SMOOTH",
"293 699 OFFCURVE",
"330 660 OFFCURVE",
"330 591 CURVE SMOOTH",
"330 461 OFFCURVE",
"201 409 OFFCURVE",
"201 313 CURVE SMOOTH",
"201 211 OFFCURVE",
"394 203 OFFCURVE",
"394 102 CURVE SMOOTH",
"394 59 OFFCURVE",
"369 29 OFFCURVE",
"322 29 CURVE SMOOTH",
"287 29 OFFCURVE",
"227 44 OFFCURVE",
"220 105 CURVE",
"220 105 OFFCURVE",
"219 96 OFFCURVE",
"209 7 CURVE",
"238 -1 OFFCURVE",
"280 -7 OFFCURVE",
"306 -7 CURVE SMOOTH",
"401 -7 OFFCURVE",
"453 57 OFFCURVE"
);
}
);
width = 480;
}
);
unicode = 00DF;
userData = {
com.adobe.type.autohint = "ICA8aGludFNldExpc3Q+CiAgICA8aGludHNldCBw\012b2ludFRhZz0iaHIwMSI+CiAgICAgIDxoc3RlbSBw\012b3M9IjIxIiB3aWR0aD0iLTIxIiAvPgogICAgICA8\012aHN0ZW0gcG9zPSI2OTkiIHdpZHRoPSIzOCIgLz4K\012ICAgICAgPHZzdGVtIHBvcz0iNzkiIHdpZHRoPSI2\012NCIgLz4KICAgICAgPHZzdGVtIHBvcz0iMjAwIiB3\012aWR0aD0iNTQiIC8+CiAgICAgIDx2c3RlbSBwb3M9\012IjMyOSIgd2lkdGg9IjY2IiAvPgogICAgPC9oaW50\012c2V0PgogICAgPGhpbnRzZXQgcG9pbnRUYWc9Imhy\012MDIiPgogICAgICA8aHN0ZW0gcG9zPSItNyIgd2lk\012dGg9IjM2IiAvPgogICAgICA8aHN0ZW0gcG9zPSI2\012OTkiIHdpZHRoPSIzOCIgLz4KICAgICAgPHZzdGVt\012IHBvcz0iNzkiIHdpZHRoPSI2NCIgLz4KICAgICAg\012PHZzdGVtIHBvcz0iMjAwIiB3aWR0aD0iNTQiIC8+\012CiAgICAgIDx2c3RlbSBwb3M9IjM5MyIgd2lkdGg9\012IjU5IiAvPgogICAgPC9oaW50c2V0PgogIDwvaGlu\012dFNldExpc3Q+Cg==";
};
},
{
glyphname = registered;
layers = (
{
hints = (
{
horizontal = 1;
origin = "{0, 0}";
type = Tag;
name = hr00;
}
);
layerId = "9E0117ED-02C0-4C46-91DE-7DE1029A8F9A";
name = Regular;
paths = (
{
closed = 1;
nodes = (
"345 349 LINE",
"540 125 LINE",
"624 125 LINE",
"624 125 OFFCURVE",
"604 134 OFFCURVE",
"556 189 CURVE SMOOTH",
"432 330 LINE",
"492 343 OFFCURVE",
"537 388 OFFCURVE",
"537 450 CURVE SMOOTH",
"537 508 OFFCURVE",
"498 567 OFFCURVE",
"389 567 CURVE",
"253 567 LINE",
"253 567 OFFCURVE",
"276 565 OFFCURVE",
"276 508 CURVE",
"276 182 LINE",
"276 127 OFFCURVE",
"253 125 OFFCURVE",
"253 125 CURVE",
"354 125 LINE",
"354 125 OFFCURVE",
"331 126 OFFCURVE",
"331 182 CURVE",
"331 538 LINE",
"391 538 LINE",
"453 538 OFFCURVE",
"481 489 OFFCURVE",
"481 443 CURVE SMOOTH",
"481 397 OFFCURVE",
"450 349 OFFCURVE",
"391 349 CURVE"
);
},
{
closed = 1;
nodes = (
"43 344 CURVE SMOOTH",
"43 147 OFFCURVE",
"203 -12 OFFCURVE",
"400 -12 CURVE SMOOTH",
"597 -12 OFFCURVE",
"757 147 OFFCURVE",
"757 344 CURVE SMOOTH",
"757 541 OFFCURVE",
"597 700 OFFCURVE",
"400 700 CURVE SMOOTH",
"203 700 OFFCURVE",
"43 541 OFFCURVE"
);
},
{
closed = 1;
nodes = (
"75 344 CURVE SMOOTH",
"75 525 OFFCURVE",
"221 672 OFFCURVE",
"400 672 CURVE SMOOTH",
"579 672 OFFCURVE",
"725 525 OFFCURVE",
"725 344 CURVE SMOOTH",
"725 163 OFFCURVE",
"579 16 OFFCURVE",
"400 16 CURVE SMOOTH",
"221 16 OFFCURVE",
"75 163 OFFCURVE"
);
}
);
width = 800;
}
);
unicode = 00AE;
userData = {
com.adobe.type.autohint = "ICA8aGludFNldExpc3Q+CiAgICA8aGludHNldCBw\012b2ludFRhZz0iaHIwMCI+CiAgICAgIDxoc3RlbSBw\012b3M9Ii0xMCIgd2lkdGg9IjMzIiAvPgogICAgICA8\012aHN0ZW0gcG9zPSI4OSIgd2lkdGg9IjE3NCIgLz4K\012ICAgICAgPGhzdGVtIHBvcz0iMTI0IiB3aWR0aD0i\012MTciIC8+CiAgICAgIDxoc3RlbSBwb3M9IjM4NiIg\012d2lkdGg9IjQwIiAvPgogICAgICA8aHN0ZW0gcG9z\012PSI0ODMiIHdpZHRoPSIzNCIgLz4KICAgICAgPGhz\012dGVtIHBvcz0iNTM3IiB3aWR0aD0iMjkiIC8+CiAg\012ICAgIDx2c3RlbSBwb3M9IjQ5IiB3aWR0aD0iNDUi\012IC8+CiAgICAgIDx2c3RlbSBwb3M9IjIyMCIgd2lk\012dGg9IjYwIiAvPgogICAgICA8dnN0ZW0gcG9zPSIy\012ODMiIHdpZHRoPSI1NSIgLz4KICAgICAgPHZzdGVt\012IHBvcz0iMzY0IiB3aWR0aD0iNjMiIC8+CiAgICAg\012IDx2c3RlbSBwb3M9IjQ3OCIgd2lkdGg9IjU2IiAv\012PgogICAgICA8dnN0ZW0gcG9zPSI1MzAiIHdpZHRo\012PSI0NSIgLz4KICAgIDwvaGludHNldD4KICA8L2hp\012bnRTZXRMaXN0Pgo=";
};
},
{
glyphname = copyright;
layers = (
{
hints = (
{
horizontal = 1;
origin = "{0, 0}";
type = Tag;
name = hr00;
}
);
layerId = "9E0117ED-02C0-4C46-91DE-7DE1029A8F9A";
name = Regular;
paths = (
{
closed = 1;
nodes = (
"559 199 LINE",
"520 164 OFFCURVE",
"473 145 OFFCURVE",
"416 145 CURVE SMOOTH",
"318 145 OFFCURVE",
"237 221 OFFCURVE",
"237 351 CURVE SMOOTH",
"237 462 OFFCURVE",
"304 548 OFFCURVE",
"412 548 CURVE SMOOTH",
"469 548 OFFCURVE",
"526 512 OFFCURVE",
"559 455 CURVE",
"559 544 LINE",
"537 556 OFFCURVE",
"488 579 OFFCURVE",
"417 579 CURVE SMOOTH",
"269 579 OFFCURVE",
"175 480 OFFCURVE",
"175 345 CURVE SMOOTH",
"175 196 OFFCURVE",
"287 110 OFFCURVE",
"409 110 CURVE SMOOTH",
"466 110 OFFCURVE",
"525 133 OFFCURVE",
"559 160 CURVE"
);
},
{
closed = 1;
nodes = (
"43 344 CURVE SMOOTH",
"43 147 OFFCURVE",
"203 -12 OFFCURVE",
"400 -12 CURVE SMOOTH",
"597 -12 OFFCURVE",
"757 147 OFFCURVE",
"757 344 CURVE SMOOTH",
"757 541 OFFCURVE",
"597 700 OFFCURVE",
"400 700 CURVE SMOOTH",
"203 700 OFFCURVE",
"43 541 OFFCURVE"
);
},
{
closed = 1;
nodes = (
"75 344 CURVE SMOOTH",
"75 525 OFFCURVE",
"221 672 OFFCURVE",
"400 672 CURVE SMOOTH",
"579 672 OFFCURVE",
"725 525 OFFCURVE",
"725 344 CURVE SMOOTH",
"725 163 OFFCURVE",
"579 16 OFFCURVE",
"400 16 CURVE SMOOTH",
"221 16 OFFCURVE",
"75 163 OFFCURVE"
);
}
);
width = 800;
}
);
unicode = 00A9;
userData = {
com.adobe.type.autohint = "ICA8aGludFNldExpc3Q+CiAgICA8aGludHNldCBw\012b2ludFRhZz0iaHIwMCI+CiAgICAgIDxoc3RlbSBw\012b3M9Ii0xMCIgd2lkdGg9IjMzIiAvPgogICAgICA8\012aHN0ZW0gcG9zPSI3OCIgd2lkdGg9IjUyIiAvPgog\012ICAgICA8aHN0ZW0gcG9zPSIzODIiIHdpZHRoPSI0\012NyIgLz4KICAgICAgPGhzdGVtIHBvcz0iNDgzIiB3\012aWR0aD0iMzQiIC8+CiAgICAgIDx2c3RlbSBwb3M9\012IjQ5IiB3aWR0aD0iNDUiIC8+CiAgICAgIDx2c3Rl\012bSBwb3M9IjE1MSIgd2lkdGg9IjY5IiAvPgogICAg\012ICA8dnN0ZW0gcG9zPSI1MzAiIHdpZHRoPSI0NSIg\012Lz4KICAgIDwvaGludHNldD4KICA8L2hpbnRTZXRM\012aXN0Pgo=";
};
},
{
glyphname = trademark;
layers = (
{
hints = (
{
horizontal = 1;
origin = "{0, 0}";
type = Tag;
name = hr00;
}
);
layerId = "9E0117ED-02C0-4C46-91DE-7DE1029A8F9A";
name = Regular;
paths = (
{
closed = 1;
nodes = (
"586 476 CURVE",
"586 644 LINE SMOOTH",
"586 674 OFFCURVE",
"598 684 OFFCURVE",
"607 688 CURVE",
"524 688 LINE",
"460 529 LINE",
"394 688 LINE",
"305 688 LINE",
"313 684 OFFCURVE",
"327 673 OFFCURVE",
"327 646 CURVE SMOOTH",
"327 481 LINE SMOOTH",
"327 439 OFFCURVE",
"306 433 OFFCURVE",
"304 433 CURVE SMOOTH",
"381 433 LINE",
"376 434 OFFCURVE",
"359 441 OFFCURVE",
"359 479 CURVE SMOOTH",
"359 650 LINE",
"450 427 LINE",
"540 651 LINE",
"540 477 LINE SMOOTH",
"540 439 OFFCURVE",
"523 433 OFFCURVE",
"521 433 CURVE SMOOTH",
"607 433 LINE",
"603 434 OFFCURVE",
"586 442 OFFCURVE"
);
},
{
closed = 1;
nodes = (
"39 688 LINE",
"30 622 LINE",
"36 641 OFFCURVE",
"56 659 OFFCURVE",
"84 659 CURVE SMOOTH",
"123 659 LINE",
"123 477 LINE SMOOTH",
"123 439 OFFCURVE",
"106 433 OFFCURVE",
"103 433 CURVE SMOOTH",
"188 433 LINE",
"184 434 OFFCURVE",
"169 441 OFFCURVE",
"169 477 CURVE SMOOTH",
"169 659 LINE",
"207 659 LINE SMOOTH",
"238 659 OFFCURVE",
"258 635 OFFCURVE",
"261 622 CURVE",
"252 688 LINE"
);
}
);
width = 640;
}
);
unicode = 2122;
userData = {
com.adobe.type.autohint = "ICA8aGludFNldExpc3Q+CiAgICA8aGludHNldCBw\012b2ludFRhZz0iaHIwMCI+CiAgICAgIDxoc3RlbSBw\012b3M9IjUwOSIgd2lkdGg9Ii0yMSIgLz4KICAgICAg\012PGhzdGVtIHBvcz0iNDk2IiB3aWR0aD0iMTk2IiAv\012PgogICAgICA8aHN0ZW0gcG9zPSI2NjQiIHdpZHRo\012PSIyOCIgLz4KICAgICAgPHZzdGVtIHBvcz0iMTE2\012IiB3aWR0aD0iNDMiIC8+CiAgICAgIDx2c3RlbSBw\012b3M9IjI2NSIgd2lkdGg9IjMwIiAvPgogICAgICA8\012dnN0ZW0gcG9zPSI0MjMiIHdpZHRoPSI0MSIgLz4K\012ICAgIDwvaGludHNldD4KICA8L2hpbnRTZXRMaXN0\012Pgo=";
};
},
{
color = (153,251,255,1);
glyphname = acute;
layers = (
{
hints = (
{
horizontal = 1;
origin = "{0, 0}";
type = Tag;
name = hr00;
}
);
layerId = "9E0117ED-02C0-4C46-91DE-7DE1029A8F9A";
name = Regular;
paths = (
{
closed = 1;
nodes = (
"283 637 LINE",
"194 637 LINE",
"121 447 LINE"
);
}
);
width = 304;
}
);
unicode = 00B4;
userData = {
com.adobe.type.autohint = "ICA8aGludFNldExpc3Q+CiAgICA8aGludHNldCBw\012b2ludFRhZz0iaHIwMCI+CiAgICAgIDxoc3RlbSBw\012b3M9IjQzMCIgd2lkdGg9Ii0yMSIgLz4KICAgICAg\012PGhzdGVtIHBvcz0iNTMzIiB3aWR0aD0iLTIwIiAv\012PgogICAgPC9oaW50c2V0PgogIDwvaGludFNldExp\012c3Q+Cg==";
com.typemytype.robofont.mark = (
0.6,
0.986,
1,
1
);
};
},
{
color = (153,251,255,1);
glyphname = dieresis;
layers = (
{
hints = (
{
horizontal = 1;
origin = "{0, 0}";
type = Tag;
name = hr00;
}
);
layerId = "9E0117ED-02C0-4C46-91DE-7DE1029A8F9A";
name = Regular;
paths = (
{
closed = 1;
nodes = (
"113 528 CURVE SMOOTH",
"113 548 OFFCURVE",
"100 568 OFFCURVE",
"74 568 CURVE SMOOTH",
"49 568 OFFCURVE",
"35 548 OFFCURVE",
"35 528 CURVE SMOOTH",
"35 508 OFFCURVE",
"49 488 OFFCURVE",
"74 488 CURVE SMOOTH",
"100 488 OFFCURVE",
"113 508 OFFCURVE"
);
},
{
closed = 1;
nodes = (
"269 528 CURVE SMOOTH",
"269 548 OFFCURVE",
"256 568 OFFCURVE",
"230 568 CURVE SMOOTH",
"205 568 OFFCURVE",
"191 548 OFFCURVE",
"191 528 CURVE SMOOTH",
"191 508 OFFCURVE",
"205 488 OFFCURVE",
"230 488 CURVE SMOOTH",
"256 488 OFFCURVE",
"269 508 OFFCURVE"
);
}
);
width = 304;
}
);
unicode = 00A8;
userData = {
com.adobe.type.autohint = "ICA8aGludFNldExpc3Q+CiAgICA8aGludHNldCBw\012b2ludFRhZz0iaHIwMCI+CiAgICAgIDxoc3RlbSBw\012b3M9Ijk0IiB3aWR0aD0iLTE3IiAvPgogICAgICA8\012aHN0ZW0gcG9zPSIzODciIHdpZHRoPSItMTciIC8+\012CiAgICAgIDxoc3RlbSBwb3M9IjQzOSIgd2lkdGg9\012IjcyIiAvPgogICAgICA8aHN0ZW0gcG9zPSI0Mzki\012IHdpZHRoPSI2NSIgLz4KICAgICAgPHZzdGVtIHBv\012cz0iNDQiIHdpZHRoPSI2MyIgLz4KICAgICAgPHZz\012dGVtIHBvcz0iNDgiIHdpZHRoPSI1MyIgLz4KICAg\012IDwvaGludHNldD4KICA8L2hpbnRTZXRMaXN0Pgo=";
com.typemytype.robofont.mark = (
0.6,
0.986,
1,
1
);
};
},
{
color = (153,155,255,1);
glyphname = notequal;
layers = (
{
hints = (
{
horizontal = 1;
origin = "{0, 0}";
type = Tag;
name = hr00;
}
);
layerId = "9E0117ED-02C0-4C46-91DE-7DE1029A8F9A";
name = Regular;
paths = (
{
closed = 1;
nodes = (
"488 101 LINE",
"488 155 LINE",
"267 155 LINE",
"353 280 LINE",
"488 280 LINE",
"488 334 LINE",
"390 334 LINE",
"460 435 LINE",
"401 435 LINE",
"331 334 LINE",
"72 334 LINE",
"72 280 LINE",
"294 280 LINE",
"207 155 LINE",
"72 155 LINE",
"72 101 LINE",
"170 101 LINE",
"100 0 LINE",
"161 0 LINE",
"230 101 LINE"
);
}
);
width = 560;
}
);
unicode = 2260;
userData = {
com.adobe.type.autohint = "ICA8aGludFNldExpc3Q+CiAgICA8aGludHNldCBw\012b2ludFRhZz0iaHIwMCI+CiAgICAgIDxoc3RlbSBw\012b3M9IjIxIiB3aWR0aD0iLTIxIiAvPgogICAgICA8\012aHN0ZW0gcG9zPSIxNTYiIHdpZHRoPSI1MyIgLz4K\012ICAgICAgPGhzdGVtIHBvcz0iMzYwIiB3aWR0aD0i\012NTQiIC8+CiAgICAgIDxoc3RlbSBwb3M9IjU2MCIg\012d2lkdGg9Ii0yMCIgLz4KICAgIDwvaGludHNldD4K\012ICA8L2hpbnRTZXRMaXN0Pgo=";
com.typemytype.robofont.mark = (
0.6,
0.609,
1,
1
);
};
},
{
glyphname = AE;
layers = (
{
hints = (
{
horizontal = 1;
origin = "{0, 0}";
type = Tag;
name = hr00;
}
);
layerId = "9E0117ED-02C0-4C46-91DE-7DE1029A8F9A";
name = Regular;
paths = (
{
closed = 1;
nodes = (
"441 688 LINE",
"455 679 OFFCURVE",
"460 665 OFFCURVE",
"460 651 CURVE SMOOTH",
"460 634 OFFCURVE",
"453 616 OFFCURVE",
"444 602 CURVE SMOOTH",
"103 90 LINE SMOOTH",
"56 19 OFFCURVE",
"22 2 OFFCURVE",
"1 0 CURVE",
"176 0 LINE",
"176 0 OFFCURVE",
"143 1 OFFCURVE",
"143 34 CURVE SMOOTH",
"143 49 OFFCURVE",
"150 70 OFFCURVE",
"169 100 CURVE SMOOTH",
"316 324 LINE",
"535 324 LINE",
"535 100 LINE SMOOTH",
"535 3 OFFCURVE",
"492 0 OFFCURVE",
"492 0 CURVE",
"869 0 LINE",
"887 106 LINE",
"869 69 OFFCURVE",
"825 40 OFFCURVE",
"763 40 CURVE SMOOTH",
"607 40 LINE",
"607 324 LINE",
"780 324 LINE SMOOTH",
"824 324 OFFCURVE",
"842 296 OFFCURVE",
"842 296 CURVE",
"842 393 LINE",
"842 393 OFFCURVE",
"824 364 OFFCURVE",
"779 364 CURVE SMOOTH",
"607 364 LINE",
"607 648 LINE",
"746 648 LINE SMOOTH",
"826 648 OFFCURVE",
"847 611 OFFCURVE",
"854 588 CURVE",
"854 688 LINE"
);
},
{
closed = 1;
nodes = (
"535 364 LINE",
"342 364 LINE",
"535 658 LINE"
);
}
);
width = 935;
}
);
rightKerningGroup = E;
unicode = 00C6;
userData = {
com.adobe.type.autohint = "ICA8aGludFNldExpc3Q+CiAgICA8aGludHNldCBw\012b2ludFRhZz0iaHIwMCI+CiAgICAgIDxoc3RlbSBw\012b3M9IjAiIHdpZHRoPSIzOSIgLz4KICAgICAgPGhz\012dGVtIHBvcz0iMzMyIiB3aWR0aD0iNDIiIC8+CiAg\012ICAgIDxoc3RlbSBwb3M9IjY1NCIgd2lkdGg9IjM4\012IiAvPgogICAgICA8dnN0ZW0gcG9zPSI1MzUiIHdp\012ZHRoPSI3NiIgLz4KICAgIDwvaGludHNldD4KICA8\012L2hpbnRTZXRMaXN0Pgo=";
};
},
{
glyphname = Oslash;
layers = (
{
hints = (
{
horizontal = 1;
origin = "{0, 7}";
type = Tag;
name = hr01;
},
{
horizontal = 1;
origin = "{0, 8}";
type = Tag;
name = hr02;
},
{
horizontal = 1;
origin = "{0, 20}";
type = Tag;
name = hr03;
},
{
horizontal = 1;
origin = "{1, 3}";
type = Tag;
name = hr04;
},
{
horizontal = 1;
origin = "{2, 0}";
type = Tag;
name = hr05;
}
);
layerId = "9E0117ED-02C0-4C46-91DE-7DE1029A8F9A";
name = Regular;
paths = (
{
closed = 1;
nodes = (
"406 -12 CURVE SMOOTH",
"625 -12 OFFCURVE",
"770 138 OFFCURVE",
"770 352 CURVE SMOOTH",
"770 459 OFFCURVE",
"734 541 OFFCURVE",
"679 598 CURVE",
"747 672 LINE",
"716 700 LINE",
"648 626 LINE",
"587 675 OFFCURVE",
"508 700 OFFCURVE",
"428 700 CURVE SMOOTH",
"209 700 OFFCURVE",
"64 550 OFFCURVE",
"64 336 CURVE SMOOTH",
"64 229 OFFCURVE",
"99 147 OFFCURVE",
"154 90 CURVE",
"87 17 LINE",
"119 -12 LINE",
"186 61 LINE",
"247 12 OFFCURVE",
"326 -12 OFFCURVE"
);
},
{
closed = 1;
nodes = (
"144 351 CURVE SMOOTH",
"144 537 OFFCURVE",
"251 658 OFFCURVE",
"402 658 CURVE SMOOTH",
"481 658 OFFCURVE",
"550 627 OFFCURVE",
"601 575 CURVE",
"206 146 LINE",
"167 200 OFFCURVE",
"144 271 OFFCURVE"
);
},
{
closed = 1;
nodes = (
"432 30 CURVE SMOOTH",
"353 30 OFFCURVE",
"284 60 OFFCURVE",
"233 112 CURVE",
"628 542 LINE",
"667 488 OFFCURVE",
"690 417 OFFCURVE",
"690 337 CURVE SMOOTH",
"690 151 OFFCURVE",
"583 30 OFFCURVE"
);
}
);
width = 818;
}
);
leftKerningGroup = C;
rightKerningGroup = D;
unicode = 00D8;
userData = {
com.adobe.type.autohint = "ICA8aGludFNldExpc3Q+CiAgICA8aGludHNldCBw\012b2ludFRhZz0iaHIwMSI+CiAgICAgIDxoc3RlbSBw\012b3M9Ii0xMyIgd2lkdGg9Ii0yMSIgLz4KICAgICAg\012PGhzdGVtIHBvcz0iMjEiIHdpZHRoPSItMjEiIC8+\012CiAgICAgIDxoc3RlbSBwb3M9IjY5MiIgd2lkdGg9\012Ii0yMCIgLz4KICAgICAgPGhzdGVtIHBvcz0iNzE4\012IiB3aWR0aD0iLTIwIiAvPgogICAgICA8dnN0ZW0g\012cG9zPSI3MiIgd2lkdGg9Ijg0IiAvPgogICAgICA8\012dnN0ZW0gcG9zPSI2NzgiIHdpZHRoPSI4NSIgLz4K\012ICAgIDwvaGludHNldD4KICAgIDxoaW50c2V0IHBv\012aW50VGFnPSJocjAyIj4KICAgICAgPGhzdGVtIHBv\012cz0iLTEzIiB3aWR0aD0iLTIxIiAvPgogICAgICA8\012aHN0ZW0gcG9zPSIyMSIgd2lkdGg9Ii0yMSIgLz4K\012ICAgICAgPGhzdGVtIHBvcz0iNjU4IiB3aWR0aD0i\012NDIiIC8+CiAgICAgIDx2c3RlbSBwb3M9IjcyIiB3\012aWR0aD0iODQiIC8+CiAgICAgIDx2c3RlbSBwb3M9\012IjY3OCIgd2lkdGg9Ijg1IiAvPgogICAgPC9oaW50\012c2V0PgogICAgPGhpbnRzZXQgcG9pbnRUYWc9Imhy\012MDMiPgogICAgICA8aHN0ZW0gcG9zPSItMTMiIHdp\012ZHRoPSItMjEiIC8+CiAgICAgIDxoc3RlbSBwb3M9\012Ii0xMiIgd2lkdGg9IjQzIiAvPgogICAgICA8aHN0\012ZW0gcG9zPSI2NjIiIHdpZHRoPSI0MiIgLz4KICAg\012ICAgPHZzdGVtIHBvcz0iNzIiIHdpZHRoPSI4NCIg\012Lz4KICAgICAgPHZzdGVtIHBvcz0iNjc4IiB3aWR0\012aD0iODUiIC8+CiAgICA8L2hpbnRzZXQ+CiAgICA8\012aGludHNldCBwb2ludFRhZz0iaHIwNCI+CiAgICAg\012IDxoc3RlbSBwb3M9Ii0xMyIgd2lkdGg9Ii0yMSIg\012Lz4KICAgICAgPGhzdGVtIHBvcz0iMjEiIHdpZHRo\012PSItMjEiIC8+CiAgICAgIDxoc3RlbSBwb3M9IjY1\012OCIgd2lkdGg9IjQyIiAvPgogICAgICA8dnN0ZW0g\012cG9zPSI3MiIgd2lkdGg9Ijg0IiAvPgogICAgICA8\012dnN0ZW0gcG9zPSI2NzgiIHdpZHRoPSI4NSIgLz4K\012ICAgIDwvaGludHNldD4KICAgIDxoaW50c2V0IHBv\012aW50VGFnPSJocjA1Ij4KICAgICAgPGhzdGVtIHBv\012cz0iLTEzIiB3aWR0aD0iLTIxIiAvPgogICAgICA8\012aHN0ZW0gcG9zPSItMTIiIHdpZHRoPSI0MiIgLz4K\012ICAgICAgPGhzdGVtIHBvcz0iNjYyIiB3aWR0aD0i\012NDIiIC8+CiAgICAgIDx2c3RlbSBwb3M9IjcyIiB3\012aWR0aD0iODQiIC8+CiAgICAgIDx2c3RlbSBwb3M9\012IjY3OCIgd2lkdGg9Ijg1IiAvPgogICAgPC9oaW50\012c2V0PgogIDwvaGludFNldExpc3Q+Cg==";
};
},
{
glyphname = infinity;
layers = (
{
hints = (
{
horizontal = 1;
origin = "{0, 0}";
type = Tag;
name = hr00;
}
);
layerId = "9E0117ED-02C0-4C46-91DE-7DE1029A8F9A";
name = Regular;
paths = (
{
closed = 1;
nodes = (
"603 59 CURVE SMOOTH",
"715 59 OFFCURVE",
"765 157 OFFCURVE",
"765 253 CURVE SMOOTH",
"765 348 OFFCURVE",
"717 441 OFFCURVE",
"606 441 CURVE SMOOTH",
"523 441 OFFCURVE",
"469 374 OFFCURVE",
"422 300 CURVE",
"379 373 OFFCURVE",
"328 440 OFFCURVE",
"229 440 CURVE SMOOTH",
"117 440 OFFCURVE",
"66 344 OFFCURVE",
"66 248 CURVE SMOOTH",
"66 153 OFFCURVE",
"116 59 OFFCURVE",
"230 59 CURVE SMOOTH",
"318 59 OFFCURVE",
"370 122 OFFCURVE",
"414 194 CURVE",
"457 122 OFFCURVE",
"509 59 OFFCURVE"
);
},
{
closed = 1;
nodes = (
"230 105 CURVE SMOOTH",
"147 105 OFFCURVE",
"109 182 OFFCURVE",
"109 251 CURVE SMOOTH",
"109 318 OFFCURVE",
"145 390 OFFCURVE",
"220 390 CURVE SMOOTH",
"301 390 OFFCURVE",
"343 319 OFFCURVE",
"386 243 CURVE",
"341 170 OFFCURVE",
"296 105 OFFCURVE"
);
},
{
closed = 1;
nodes = (
"612 390 CURVE SMOOTH",
"687 390 OFFCURVE",
"723 315 OFFCURVE",
"723 246 CURVE SMOOTH",
"723 178 OFFCURVE",
"688 105 OFFCURVE",
"612 105 CURVE SMOOTH",
"531 105 OFFCURVE",
"490 175 OFFCURVE",
"449 251 CURVE",
"492 324 OFFCURVE",
"537 390 OFFCURVE"
);
}
);
width = 832;
}
);
unicode = 221E;
userData = {
com.adobe.type.autohint = "ICA8aGludFNldExpc3Q+CiAgICA8aGludHNldCBw\012b2ludFRhZz0iaHIwMCI+CiAgICAgIDxoc3RlbSBw\012b3M9IjUxIiB3aWR0aD0iNTgiIC8+CiAgICAgIDxo\012c3RlbSBwb3M9IjM5MiIgd2lkdGg9IjU2IiAvPgog\012ICAgICA8aHN0ZW0gcG9zPSI0NDciIHdpZHRoPSIt\012MjAiIC8+CiAgICAgIDx2c3RlbSBwb3M9IjU2IiB3\012aWR0aD0iNjEiIC8+CiAgICAgIDx2c3RlbSBwb3M9\012Ijc2NCIgd2lkdGg9IjU5IiAvPgogICAgPC9oaW50\012c2V0PgogIDwvaGludFNldExpc3Q+Cg==";
};
},
{
color = (153,155,255,1);
glyphname = plusminus;
layers = (
{
hints = (
{
horizontal = 1;
origin = "{0, 0}";
type = Tag;
name = hr00;
}
);
layerId = "9E0117ED-02C0-4C46-91DE-7DE1029A8F9A";
name = Regular;
paths = (
{
closed = 1;
nodes = (
"483 259 LINE",
"483 313 LINE",
"308 313 LINE",
"308 463 LINE",
"252 463 LINE",
"252 313 LINE",
"77 313 LINE",
"77 259 LINE",
"252 259 LINE",
"252 107 LINE",
"308 107 LINE",
"308 259 LINE"
);
},
{
closed = 1;
nodes = (
"483 0 LINE",
"483 54 LINE",
"77 54 LINE",
"77 0 LINE"
);
}
);
width = 560;
}
);
unicode = 00B1;
userData = {
com.adobe.type.autohint = "ICA8aGludFNldExpc3Q+CiAgICA8aGludHNldCBw\012b2ludFRhZz0iaHIwMCI+CiAgICAgIDxoc3RlbSBw\012b3M9IjAiIHdpZHRoPSI1NCIgLz4KICAgICAgPGhz\012dGVtIHBvcz0iMjU5IiB3aWR0aD0iNTQiIC8+CiAg\012ICAgIDxoc3RlbSBwb3M9IjQ2MyIgd2lkdGg9Ii0y\012MCIgLz4KICAgICAgPHZzdGVtIHBvcz0iMjUzIiB3\012aWR0aD0iNTUiIC8+CiAgICA8L2hpbnRzZXQ+CiAg\012PC9oaW50U2V0TGlzdD4K";
com.typemytype.robofont.mark = (
0.6,
0.609,
1,
1
);
};
},
{
glyphname = yen;
layers = (
{
hints = (
{
horizontal = 1;
origin = "{0, 29}";
type = Tag;
name = hr01;
}
);
layerId = "9E0117ED-02C0-4C46-91DE-7DE1029A8F9A";
name = Regular;
paths = (
{
closed = 1;
nodes = (
"413 652 CURVE SMOOTH",
"413 639 OFFCURVE",
"408 619 OFFCURVE",
"394 594 CURVE SMOOTH",
"290 407 LINE",
"179 599 LINE SMOOTH",
"164 625 OFFCURVE",
"159 642 OFFCURVE",
"159 655 CURVE SMOOTH",
"159 681 OFFCURVE",
"182 687 OFFCURVE",
"187 688 CURVE",
"187 688 OFFCURVE",
"193 688 OFFCURVE",
"33 688 CURVE",
"38 686 OFFCURVE",
"66 674 OFFCURVE",
"115 593 CURVE SMOOTH",
"233 397 LINE",
"102 397 LINE",
"102 357 LINE",
"248 357 LINE",
"248 257 LINE",
"102 257 LINE",
"102 217 LINE",
"248 217 LINE",
"248 91 LINE SMOOTH",
"248 30 OFFCURVE",
"222 4 OFFCURVE",
"203 0 CURVE",
"358 0 LINE",
"339 3 OFFCURVE",
"312 34 OFFCURVE",
"312 91 CURVE SMOOTH",
"312 217 LINE",
"458 217 LINE",
"458 257 LINE",
"312 257 LINE",
"312 357 LINE",
"458 357 LINE",
"458 397 LINE",
"327 397 LINE",
"438 592 LINE SMOOTH",
"487 677 OFFCURVE",
"522 687 OFFCURVE",
"527 688 CURVE",
"382 688 LINE",
"389 687 OFFCURVE",
"413 681 OFFCURVE"
);
}
);
width = 560;
}
);
unicode = 00A5;
userData = {
com.adobe.type.autohint = "ICA8aGludFNldExpc3Q+CiAgICA8aGludHNldCBw\012b2ludFRhZz0iaHIwMSI+CiAgICAgIDxoc3RlbSBw\012b3M9IjAiIHdpZHRoPSIxNzQiIC8+CiAgICAgIDxo\012c3RlbSBwb3M9IjI0MSIgd2lkdGg9IjQxIiAvPgog\012ICAgICA8aHN0ZW0gcG9zPSI1MzMiIHdpZHRoPSIt\012MjAiIC8+CiAgICAgIDx2c3RlbSBwb3M9IjI0MCIg\012d2lkdGg9IjcyIiAvPgogICAgPC9oaW50c2V0Pgog\012IDwvaGludFNldExpc3Q+Cg==";
};
},
{
glyphname = mu;
layers = (
{
hints = (
{
horizontal = 1;
origin = "{0, 0}";
type = Tag;
name = hr00;
}
);
layerId = "9E0117ED-02C0-4C46-91DE-7DE1029A8F9A";
name = Regular;
paths = (
{
closed = 1;
nodes = (
"414 35 LINE",
"414 35 OFFCURVE",
"411 34 OFFCURVE",
"405 34 CURVE SMOOTH",
"390 34 OFFCURVE",
"362 43 OFFCURVE",
"362 108 CURVE SMOOTH",
"362 108 OFFCURVE",
"363 282 OFFCURVE",
"363 364 CURVE",
"252 364 LINE",
"252 364 OFFCURVE",
"299 360 OFFCURVE",
"299 273 CURVE SMOOTH",
"299 118 LINE SMOOTH",
"299 67 OFFCURVE",
"260 38 OFFCURVE",
"224 38 CURVE SMOOTH",
"189 38 OFFCURVE",
"156 65 OFFCURVE",
"156 129 CURVE SMOOTH",
"156 364 LINE",
"35 364 LINE",
"35 364 OFFCURVE",
"91 359 OFFCURVE",
"91 266 CURVE SMOOTH",
"91 133 OFFCURVE",
"92 -99 OFFCURVE",
"92 -232 CURVE",
"155 -232 LINE",
"155 11 LINE",
"171 -5 OFFCURVE",
"190 -11 OFFCURVE",
"209 -11 CURVE SMOOTH",
"242 -11 OFFCURVE",
"277 10 OFFCURVE",
"304 47 CURVE",
"306 -19 LINE"
);
}
);
width = 437;
}
);
unicode = 00B5;
userData = {
com.adobe.type.autohint = "ICA8aGludFNldExpc3Q+CiAgICA8aGludHNldCBw\012b2ludFRhZz0iaHIwMCI+CiAgICAgIDxoc3RlbSBw\012b3M9Ii0xMTciIHdpZHRoPSItMjEiIC8+CiAgICAg\012IDxoc3RlbSBwb3M9Ii0xMSIgd2lkdGg9IjQ5IiAv\012PgogICAgICA8aHN0ZW0gcG9zPSIzNTgiIHdpZHRo\012PSItMjAiIC8+CiAgICAgIDx2c3RlbSBwb3M9Ijkx\012IiB3aWR0aD0iNjUiIC8+CiAgICAgIDx2c3RlbSBw\012b3M9IjI5OSIgd2lkdGg9IjY0IiAvPgogICAgPC9o\012aW50c2V0PgogIDwvaGludFNldExpc3Q+Cg==";
};
},
{
glyphname = ordfeminine;
layers = (
{
hints = (
{
horizontal = 1;
origin = "{0, 22}";
type = Tag;
name = hr01;
},
{
horizontal = 1;
origin = "{0, 35}";
type = Tag;
name = hr02;
}
);
layerId = "9E0117ED-02C0-4C46-91DE-7DE1029A8F9A";
name = Regular;
paths = (
{
closed = 1;
nodes = (
"299 464 LINE",
"295 462 OFFCURVE",
"288 460 OFFCURVE",
"285 460 CURVE SMOOTH",
"255 460 OFFCURVE",
"234 482 OFFCURVE",
"234 507 CURVE SMOOTH",
"234 608 LINE SMOOTH",
"234 671 OFFCURVE",
"186 700 OFFCURVE",
"140 700 CURVE SMOOTH",
"95 700 OFFCURVE",
"52 676 OFFCURVE",
"52 627 CURVE SMOOTH",
"52 614 OFFCURVE",
"55 603 OFFCURVE",
"61 595 CURVE",
"61 639 OFFCURVE",
"96 661 OFFCURVE",
"130 661 CURVE SMOOTH",
"160 661 OFFCURVE",
"189 640 OFFCURVE",
"189 591 CURVE SMOOTH",
"189 574 LINE",
"76 574 OFFCURVE",
"40 538 OFFCURVE",
"40 493 CURVE SMOOTH",
"40 444 OFFCURVE",
"80 424 OFFCURVE",
"118 424 CURVE SMOOTH",
"147 424 OFFCURVE",
"180 437 OFFCURVE",
"193 463 CURVE",
"196 444 OFFCURVE",
"217 425 OFFCURVE",
"253 424 CURVE"
);
},
{
closed = 1;
nodes = (
"189 509 LINE SMOOTH",
"189 481 OFFCURVE",
"164 456 OFFCURVE",
"135 456 CURVE SMOOTH",
"109 456 OFFCURVE",
"88 474 OFFCURVE",
"88 498 CURVE SMOOTH",
"88 529 OFFCURVE",
"105 551 OFFCURVE",
"189 551 CURVE"
);
}
);
width = 304;
}
);
unicode = 00AA;
userData = {
com.adobe.type.autohint = "ICA8aGludFNldExpc3Q+CiAgICA8aGludHNldCBw\012b2ludFRhZz0iaHIwMSI+CiAgICAgIDxoc3RlbSBw\012b3M9IjMyMCIgd2lkdGg9IjM0IiAvPgogICAgICA8\012aHN0ZW0gcG9zPSI0NDciIHdpZHRoPSIyMyIgLz4K\012ICAgICAgPGhzdGVtIHBvcz0iNTU3IiB3aWR0aD0i\012MzkiIC8+CiAgICAgIDx2c3RlbSBwb3M9IjQwIiB3\012aWR0aD0iNDgiIC8+CiAgICAgIDx2c3RlbSBwb3M9\012IjE4OSIgd2lkdGg9IjQ1IiAvPgogICAgPC9oaW50\012c2V0PgogICAgPGhpbnRzZXQgcG9pbnRUYWc9Imhy\012MDIiPgogICAgICA8aHN0ZW0gcG9zPSIzMzkiIHdp\012ZHRoPSItMjEiIC8+CiAgICAgIDxoc3RlbSBwb3M9\012IjQ0NyIgd2lkdGg9IjIzIiAvPgogICAgICA8aHN0\012ZW0gcG9zPSI1NTciIHdpZHRoPSIzOSIgLz4KICAg\012ICAgPHZzdGVtIHBvcz0iNDAiIHdpZHRoPSI0OCIg\012Lz4KICAgICAgPHZzdGVtIHBvcz0iMTg5IiB3aWR0\012aD0iNDUiIC8+CiAgICA8L2hpbnRzZXQ+CiAgPC9o\012aW50U2V0TGlzdD4K";
};
},
{
glyphname = ordmasculine;
layers = (
{
hints = (
{
horizontal = 1;
origin = "{0, 0}";
type = Tag;
name = hr00;
}
);
layerId = "9E0117ED-02C0-4C46-91DE-7DE1029A8F9A";
name = Regular;
paths = (
{
closed = 1;
nodes = (
"187 449 CURVE",
"142 449 OFFCURVE",
"92 492 OFFCURVE",
"92 575 CURVE SMOOTH",
"92 641 OFFCURVE",
"133 675 OFFCURVE",
"173 675 CURVE SMOOTH",
"218 675 OFFCURVE",
"268 633 OFFCURVE",
"268 550 CURVE SMOOTH",
"268 484 OFFCURVE",
"227 449 OFFCURVE"
);
},
{
closed = 1;
nodes = (
"174 424 CURVE SMOOTH",
"245 424 OFFCURVE",
"320 474 OFFCURVE",
"320 568 CURVE SMOOTH",
"320 657 OFFCURVE",
"253 700 OFFCURVE",
"186 700 CURVE",
"115 700 OFFCURVE",
"40 651 OFFCURVE",
"40 557 CURVE SMOOTH",
"40 468 OFFCURVE",
"107 424 OFFCURVE"
);
}
);
width = 360;
}
);
unicode = 00BA;
userData = {
com.adobe.type.autohint = "ICA8aGludFNldExpc3Q+CiAgICA8aGludHNldCBw\012b2ludFRhZz0iaHIwMCI+CiAgICAgIDxoc3RlbSBw\012b3M9IjMyMCIgd2lkdGg9IjI3IiAvPgogICAgICA8\012aHN0ZW0gcG9zPSI1NzIiIHdpZHRoPSIyMyIgLz4K\012ICAgICAgPHZzdGVtIHBvcz0iNjIiIHdpZHRoPSI1\012MiIgLz4KICAgICAgPHZzdGVtIHBvcz0iMjg1IiB3\012aWR0aD0iNTIiIC8+CiAgICA8L2hpbnRzZXQ+CiAg\012PC9oaW50U2V0TGlzdD4K";
};
},
{
glyphname = ae;
layers = (
{
hints = (
{
horizontal = 1;
origin = "{0, 3}";
type = Tag;
name = hr01;
},
{
horizontal = 1;
origin = "{0, 27}";
type = Tag;
name = hr02;
},
{
horizontal = 1;
origin = "{0, 30}";
type = Tag;
name = hr03;
},
{
horizontal = 1;
origin = "{0, 42}";
type = Tag;
name = hr04;
},
{
horizontal = 1;
origin = "{1, 6}";
type = Tag;
name = hr05;
},
{
horizontal = 1;
origin = "{2, 4}";
type = Tag;
name = hr06;
}
);
layerId = "9E0117ED-02C0-4C46-91DE-7DE1029A8F9A";
name = Regular;
paths = (
{
closed = 1;
nodes = (
"559 215 CURVE",
"553 321 OFFCURVE",
"488 372 OFFCURVE",
"418 372 CURVE SMOOTH",
"373 372 OFFCURVE",
"327 350 OFFCURVE",
"302 302 CURVE",
"287 342 OFFCURVE",
"246 372 OFFCURVE",
"184 372 CURVE SMOOTH",
"116 372 OFFCURVE",
"67 335 OFFCURVE",
"67 278 CURVE SMOOTH",
"67 264 OFFCURVE",
"73 246 OFFCURVE",
"78 240 CURVE",
"78 281 OFFCURVE",
"104 323 OFFCURVE",
"172 323 CURVE SMOOTH",
"224 323 OFFCURVE",
"257 288 OFFCURVE",
"257 204 CURVE",
"207 196 OFFCURVE",
"170 188 OFFCURVE",
"143 181 CURVE SMOOTH",
"62 159 OFFCURVE",
"48 120 OFFCURVE",
"48 83 CURVE SMOOTH",
"48 30 OFFCURVE",
"88 -12 OFFCURVE",
"160 -12 CURVE SMOOTH",
"226 -12 OFFCURVE",
"268 26 OFFCURVE",
"282 74 CURVE",
"311 18 OFFCURVE",
"372 -12 OFFCURVE",
"427 -12 CURVE SMOOTH",
"487 -12 OFFCURVE",
"545 25 OFFCURVE",
"560 108 CURVE",
"532 67 OFFCURVE",
"491 47 OFFCURVE",
"451 47 CURVE SMOOTH",
"389 47 OFFCURVE",
"329 93 OFFCURVE",
"319 182 CURVE",
"380 191 OFFCURVE",
"458 202 OFFCURVE"
);
},
{
closed = 1;
nodes = (
"257 138 LINE SMOOTH",
"257 89 OFFCURVE",
"247 67 OFFCURVE",
"226 49 CURVE SMOOTH",
"215 39 OFFCURVE",
"197 31 OFFCURVE",
"173 31 CURVE SMOOTH",
"138 31 OFFCURVE",
"116 53 OFFCURVE",
"116 86 CURVE SMOOTH",
"116 111 OFFCURVE",
"124 140 OFFCURVE",
"164 153 CURVE SMOOTH",
"182 159 OFFCURVE",
"210 165 OFFCURVE",
"257 173 CURVE"
);
},
{
closed = 1;
nodes = (
"407 338 CURVE SMOOTH",
"450 338 OFFCURVE",
"482 304 OFFCURVE",
"483 237 CURVE",
"318 214 LINE",
"319 296 OFFCURVE",
"363 338 OFFCURVE"
);
}
);
width = 600;
}
);
leftKerningGroup = a;
rightKerningGroup = e;
unicode = 00E6;
userData = {
com.adobe.type.autohint = "ICA8aGludFNldExpc3Q+CiAgICA8aGludHNldCBw\012b2ludFRhZz0iaHIwMSI+CiAgICAgIDxoc3RlbSBw\012b3M9Ii0xMSIgd2lkdGg9IjQzIiAvPgogICAgICA8\012aHN0ZW0gcG9zPSIxNjYiIHdpZHRoPSIzMCIgLz4K\012ICAgICAgPGhzdGVtIHBvcz0iMjA2IiB3aWR0aD0i\012MzUiIC8+CiAgICAgIDxoc3RlbSBwb3M9IjM3MiIg\012d2lkdGg9Ii0yMCIgLz4KICAgICAgPHZzdGVtIHBv\012cz0iNjMiIHdpZHRoPSIyOSIgLz4KICAgICAgPHZz\012dGVtIHBvcz0iMjcwIiB3aWR0aD0iNTkiIC8+CiAg\012ICAgIDx2c3RlbSBwb3M9IjUwMiIgd2lkdGg9Ijc4\012IiAvPgogICAgPC9oaW50c2V0PgogICAgPGhpbnRz\012ZXQgcG9pbnRUYWc9ImhyMDIiPgogICAgICA8aHN0\012ZW0gcG9zPSItMTEiIHdpZHRoPSI0MyIgLz4KICAg\012ICAgPGhzdGVtIHBvcz0iMTY2IiB3aWR0aD0iMzAi\012IC8+CiAgICAgIDxoc3RlbSBwb3M9IjIwNiIgd2lk\012dGg9IjM1IiAvPgogICAgICA8aHN0ZW0gcG9zPSIz\012MTgiIHdpZHRoPSI1MSIgLz4KICAgICAgPHZzdGVt\012IHBvcz0iNDgiIHdpZHRoPSI3MiIgLz4KICAgICAg\012PHZzdGVtIHBvcz0iMjcwIiB3aWR0aD0iNTkiIC8+\012CiAgICAgIDx2c3RlbSBwb3M9IjUwMiIgd2lkdGg9\012Ijc4IiAvPgogICAgPC9oaW50c2V0PgogICAgPGhp\012bnRzZXQgcG9pbnRUYWc9ImhyMDMiPgogICAgICA8\012aHN0ZW0gcG9zPSItMTIiIHdpZHRoPSI0MyIgLz4K\012ICAgICAgPGhzdGVtIHBvcz0iMTY2IiB3aWR0aD0i\012MzAiIC8+CiAgICAgIDxoc3RlbSBwb3M9IjIwNiIg\012d2lkdGg9IjM1IiAvPgogICAgICA8aHN0ZW0gcG9z\012PSIzMTgiIHdpZHRoPSI1MSIgLz4KICAgICAgPHZz\012dGVtIHBvcz0iNjMiIHdpZHRoPSIyOSIgLz4KICAg\012ICAgPHZzdGVtIHBvcz0iMjcwIiB3aWR0aD0iNTki\012IC8+CiAgICAgIDx2c3RlbSBwb3M9IjUwMiIgd2lk\012dGg9Ijc4IiAvPgogICAgPC9oaW50c2V0PgogICAg\012PGhpbnRzZXQgcG9pbnRUYWc9ImhyMDQiPgogICAg\012ICA8aHN0ZW0gcG9zPSItMTEiIHdpZHRoPSI1OCIg\012Lz4KICAgICAgPGhzdGVtIHBvcz0iMTY2IiB3aWR0\012aD0iMzAiIC8+CiAgICAgIDxoc3RlbSBwb3M9IjIw\012NiIgd2lkdGg9IjM1IiAvPgogICAgICA8aHN0ZW0g\012cG9zPSIzMTgiIHdpZHRoPSI1MSIgLz4KICAgICAg\012PHZzdGVtIHBvcz0iNjMiIHdpZHRoPSIyOSIgLz4K\012ICAgICAgPHZzdGVtIHBvcz0iMjcwIiB3aWR0aD0i\012NTkiIC8+CiAgICAgIDx2c3RlbSBwb3M9IjUwMiIg\012d2lkdGg9Ijc4IiAvPgogICAgPC9oaW50c2V0Pgog\012ICAgPGhpbnRzZXQgcG9pbnRUYWc9ImhyMDUiPgog\012ICAgICA8aHN0ZW0gcG9zPSItMTIiIHdpZHRoPSI0\012MyIgLz4KICAgICAgPGhzdGVtIHBvcz0iMTY2IiB3\012aWR0aD0iMzAiIC8+CiAgICAgIDxoc3RlbSBwb3M9\012IjIwNiIgd2lkdGg9IjM1IiAvPgogICAgICA8aHN0\012ZW0gcG9zPSIzMTgiIHdpZHRoPSI1MSIgLz4KICAg\012ICAgPHZzdGVtIHBvcz0iNjMiIHdpZHRoPSIyOSIg\012Lz4KICAgICAgPHZzdGVtIHBvcz0iMjcwIiB3aWR0\012aD0iNTkiIC8+CiAgICAgIDx2c3RlbSBwb3M9IjUw\012MiIgd2lkdGg9Ijc4IiAvPgogICAgPC9oaW50c2V0\012PgogICAgPGhpbnRzZXQgcG9pbnRUYWc9ImhyMDYi\012PgogICAgICA8aHN0ZW0gcG9zPSItMTEiIHdpZHRo\012PSI0MyIgLz4KICAgICAgPGhzdGVtIHBvcz0iMTY2\012IiB3aWR0aD0iMzAiIC8+CiAgICAgIDxoc3RlbSBw\012b3M9IjIwNiIgd2lkdGg9IjM1IiAvPgogICAgICA8\012aHN0ZW0gcG9zPSIzMTgiIHdpZHRoPSI1MSIgLz4K\012ICAgICAgPHZzdGVtIHBvcz0iNjMiIHdpZHRoPSIy\012OSIgLz4KICAgICAgPHZzdGVtIHBvcz0iMjU4IiB3\012aWR0aD0iNjAiIC8+CiAgICAgIDx2c3RlbSBwb3M9\012IjUwMiIgd2lkdGg9Ijc4IiAvPgogICAgPC9oaW50\012c2V0PgogIDwvaGludFNldExpc3Q+Cg==";
};
},
{
glyphname = oslash;
layers = (
{
hints = (
{
horizontal = 1;
origin = "{0, 3}";
type = Tag;
name = hr01;
},
{
horizontal = 1;
origin = "{0, 8}";
type = Tag;
name = hr02;
},
{
horizontal = 1;
origin = "{0, 15}";
type = Tag;
name = hr03;
},
{
horizontal = 1;
origin = "{0, 20}";
type = Tag;
name = hr04;
},
{
horizontal = 1;
origin = "{1, 7}";
type = Tag;
name = hr05;
},
{
horizontal = 1;
origin = "{2, 0}";
type = Tag;
name = hr07;
},
{
horizontal = 1;
origin = "{2, 3}";
type = Tag;
name = hr08;
}
);
layerId = "9E0117ED-02C0-4C46-91DE-7DE1029A8F9A";
name = Regular;
paths = (
{
closed = 1;
nodes = (
"228 -12 CURVE SMOOTH",
"341 -12 OFFCURVE",
"424 84 OFFCURVE",
"424 189 CURVE SMOOTH",
"424 236 OFFCURVE",
"407 279 OFFCURVE",
"377 312 CURVE",
"411 349 LINE",
"385 372 LINE",
"351 335 LINE",
"320 358 OFFCURVE",
"280 372 OFFCURVE",
"236 372 CURVE SMOOTH",
"123 372 OFFCURVE",
"40 276 OFFCURVE",
"40 171 CURVE SMOOTH",
"40 124 OFFCURVE",
"57 81 OFFCURVE",
"86 48 CURVE",
"53 12 LINE",
"80 -12 LINE",
"113 24 LINE",
"144 1 OFFCURVE",
"184 -12 OFFCURVE"
);
},
{
closed = 1;
nodes = (
"240 24 CURVE SMOOTH",
"205 24 OFFCURVE",
"176 42 OFFCURVE",
"154 69 CURVE",
"329 259 LINE",
"344 229 OFFCURVE",
"352 193 OFFCURVE",
"352 160 CURVE SMOOTH",
"352 91 OFFCURVE",
"314 24 OFFCURVE"
);
},
{
closed = 1;
nodes = (
"112 200 CURVE SMOOTH",
"112 269 OFFCURVE",
"150 336 OFFCURVE",
"224 336 CURVE SMOOTH",
"259 336 OFFCURVE",
"288 318 OFFCURVE",
"309 290 CURVE",
"135 101 LINE",
"120 131 OFFCURVE",
"112 166 OFFCURVE"
);
}
);
width = 464;
}
);
leftKerningGroup = c;
rightKerningGroup = b;
unicode = 00F8;
userData = {
com.adobe.type.autohint = "ICA8aGludFNldExpc3Q+CiAgICA8aGludHNldCBw\012b2ludFRhZz0iaHIwMSI+CiAgICAgIDxoc3RlbSBw\012b3M9Ii0xMSIgd2lkdGg9IjQwIiAvPgogICAgICA8\012aHN0ZW0gcG9zPSIzMzMiIHdpZHRoPSIzNiIgLz4K\012ICAgICAgPHZzdGVtIHBvcz0iNzEiIHdpZHRoPSI3\012MiIgLz4KICAgICAgPHZzdGVtIHBvcz0iMzUyIiB3\012aWR0aD0iNzIiIC8+CiAgICA8L2hpbnRzZXQ+CiAg\012ICA8aGludHNldCBwb2ludFRhZz0iaHIwMiI+CiAg\012ICAgIDxoc3RlbSBwb3M9Ii0xMSIgd2lkdGg9IjQw\012IiAvPgogICAgICA8aHN0ZW0gcG9zPSIzMzYiIHdp\012ZHRoPSIzNiIgLz4KICAgICAgPHZzdGVtIHBvcz0i\012NzEiIHdpZHRoPSI3MiIgLz4KICAgICAgPHZzdGVt\012IHBvcz0iMzcwIiB3aWR0aD0iNzIiIC8+CiAgICA8\012L2hpbnRzZXQ+CiAgICA8aGludHNldCBwb2ludFRh\012Zz0iaHIwMyI+CiAgICAgIDxoc3RlbSBwb3M9Ii0x\012MSIgd2lkdGg9IjQwIiAvPgogICAgICA8aHN0ZW0g\012cG9zPSIzMzMiIHdpZHRoPSIzNiIgLz4KICAgICAg\012PHZzdGVtIHBvcz0iNDAiIHdpZHRoPSI3MiIgLz4K\012ICAgICAgPHZzdGVtIHBvcz0iMzcwIiB3aWR0aD0i\012NzIiIC8+CiAgICA8L2hpbnRzZXQ+CiAgICA8aGlu\012dHNldCBwb2ludFRhZz0iaHIwNCI+CiAgICAgIDxo\012c3RlbSBwb3M9Ii0xMiIgd2lkdGg9IjM2IiAvPgog\012ICAgICA8aHN0ZW0gcG9zPSIzMzMiIHdpZHRoPSIz\012NiIgLz4KICAgICAgPHZzdGVtIHBvcz0iNzEiIHdp\012ZHRoPSI3MiIgLz4KICAgICAgPHZzdGVtIHBvcz0i\012MzcwIiB3aWR0aD0iNzIiIC8+CiAgICA8L2hpbnRz\012ZXQ+CiAgICA8aGludHNldCBwb2ludFRhZz0iaHIw\012NSI+CiAgICAgIDxoc3RlbSBwb3M9Ii0xMSIgd2lk\012dGg9IjQwIiAvPgogICAgICA8aHN0ZW0gcG9zPSIz\012MzMiIHdpZHRoPSIzNiIgLz4KICAgICAgPHZzdGVt\012IHBvcz0iNzEiIHdpZHRoPSI3MiIgLz4KICAgICAg\012PHZzdGVtIHBvcz0iMzUyIiB3aWR0aD0iNzIiIC8+\012CiAgICA8L2hpbnRzZXQ+CiAgICA8aGludHNldCBw\012b2ludFRhZz0iaHIwNiI+CiAgICAgIDxoc3RlbSBw\012b3M9Ii0xMiIgd2lkdGg9IjM2IiAvPgogICAgICA8\012aHN0ZW0gcG9zPSIzMzMiIHdpZHRoPSIzNiIgLz4K\012ICAgICAgPHZzdGVtIHBvcz0iNzEiIHdpZHRoPSI3\012MiIgLz4KICAgICAgPHZzdGVtIHBvcz0iMzcwIiB3\012aWR0aD0iNzIiIC8+CiAgICA8L2hpbnRzZXQ+CiAg\012ICA8aGludHNldCBwb2ludFRhZz0iaHIwNyI+CiAg\012ICAgIDxoc3RlbSBwb3M9Ii0xMSIgd2lkdGg9IjQw\012IiAvPgogICAgICA8aHN0ZW0gcG9zPSIzMzMiIHdp\012ZHRoPSIzNiIgLz4KICAgICAgPHZzdGVtIHBvcz0i\012NDAiIHdpZHRoPSI3MiIgLz4KICAgICAgPHZzdGVt\012IHBvcz0iMzcwIiB3aWR0aD0iNzIiIC8+CiAgICA8\012L2hpbnRzZXQ+CiAgICA8aGludHNldCBwb2ludFRh\012Zz0iaHIwOCI+CiAgICAgIDxoc3RlbSBwb3M9Ii0x\012MSIgd2lkdGg9IjQwIiAvPgogICAgICA8aHN0ZW0g\012cG9zPSIzMzYiIHdpZHRoPSIzNiIgLz4KICAgICAg\012PHZzdGVtIHBvcz0iNzEiIHdpZHRoPSI3MiIgLz4K\012ICAgICAgPHZzdGVtIHBvcz0iMzcwIiB3aWR0aD0i\012NzIiIC8+CiAgICA8L2hpbnRzZXQ+CiAgICA8aGlu\012dHNldCBwb2ludFRhZz0iaHIwOSI+CiAgICAgIDxo\012c3RlbSBwb3M9Ii0xMSIgd2lkdGg9IjQwIiAvPgog\012ICAgICA8aHN0ZW0gcG9zPSIzMzMiIHdpZHRoPSIz\012NiIgLz4KICAgICAgPHZzdGVtIHBvcz0iNDAiIHdp\012ZHRoPSI3MiIgLz4KICAgICAgPHZzdGVtIHBvcz0i\012MzcwIiB3aWR0aD0iNzIiIC8+CiAgICA8L2hpbnRz\012ZXQ+CiAgPC9oaW50U2V0TGlzdD4K";
};
},
{
glyphname = questiondown;
layers = (
{
guideLines = (
{
position = "{0, 465}";
},
{
angle = 90;
position = "{57, 0}";
}
);
hints = (
{
horizontal = 1;
origin = "{0, 16}";
type = Tag;
name = hr01;
},
{
horizontal = 1;
origin = "{1, 3}";
type = Tag;
name = hr03;
}
);
layerId = "9E0117ED-02C0-4C46-91DE-7DE1029A8F9A";
name = Regular;
paths = (
{
closed = 1;
nodes = (
"27 -95 CURVE SMOOTH",
"27 -183 OFFCURVE",
"94 -244 OFFCURVE",
"209 -244 CURVE SMOOTH",
"263 -244 OFFCURVE",
"313 -232 OFFCURVE",
"354 -212 CURVE",
"354 -127 LINE",
"325 -170 OFFCURVE",
"272 -205 OFFCURVE",
"217 -205 CURVE SMOOTH",
"160 -205 OFFCURVE",
"106 -170 OFFCURVE",
"106 -95 CURVE SMOOTH",
"106 36 OFFCURVE",
"271 77 OFFCURVE",
"271 204 CURVE SMOOTH",
"271 236 OFFCURVE",
"254 271 OFFCURVE",
"218 300 CURVE",
"223 276 OFFCURVE",
"227 256 OFFCURVE",
"227 239 CURVE SMOOTH",
"227 107 OFFCURVE",
"27 56 OFFCURVE"
);
},
{
closed = 1;
nodes = (
"182 414 CURVE SMOOTH",
"182 389 OFFCURVE",
"198 364 OFFCURVE",
"231 364 CURVE SMOOTH",
"264 364 OFFCURVE",
"279 389 OFFCURVE",
"279 414 CURVE SMOOTH",
"279 439 OFFCURVE",
"264 465 OFFCURVE",
"231 465 CURVE SMOOTH",
"198 465 OFFCURVE",
"182 439 OFFCURVE"
);
}
);
width = 400;
}
);
unicode = 00BF;
userData = {
com.adobe.type.autohint = "ICA8aGludFNldExpc3Q+CiAgICA8aGludHNldCBw\012b2ludFRhZz0iaHIwMSI+CiAgICAgIDxoc3RlbSBw\012b3M9Ii0zMjIiIHdpZHRoPSIzOSIgLz4KICAgICAg\012PGhzdGVtIHBvcz0iLTIwNSIgd2lkdGg9Ii0zOSIg\012Lz4KICAgICAgPGhzdGVtIHBvcz0iMjg2IiB3aWR0\012aD0iMTAxIiAvPgogICAgICA8dnN0ZW0gcG9zPSIt\012MTAiIHdpZHRoPSI4MiIgLz4KICAgICAgPHZzdGVt\012IHBvcz0iMjcxIiB3aWR0aD0iLTQ0IiAvPgogICAg\012PC9oaW50c2V0PgogICAgPGhpbnRzZXQgcG9pbnRU\012YWc9ImhyMDIiPgogICAgICA8aHN0ZW0gcG9zPSIt\012MzIyIiB3aWR0aD0iMzkiIC8+CiAgICAgIDxoc3Rl\012bSBwb3M9Ii0yMDUiIHdpZHRoPSItMzkiIC8+CiAg\012ICAgIDxoc3RlbSBwb3M9IjI4NiIgd2lkdGg9IjEw\012MSIgLz4KICAgICAgPHZzdGVtIHBvcz0iMTA5IiB3\012aWR0aD0iLTgyIiAvPgogICAgICA8dnN0ZW0gcG9z\012PSIxNDMiIHdpZHRoPSI5MCIgLz4KICAgIDwvaGlu\012dHNldD4KICAgIDxoaW50c2V0IHBvaW50VGFnPSJo\012cjAzIj4KICAgICAgPGhzdGVtIHBvcz0iLTMyMiIg\012d2lkdGg9IjM5IiAvPgogICAgICA8aHN0ZW0gcG9z\012PSItMjA1IiB3aWR0aD0iLTM5IiAvPgogICAgICA8\012aHN0ZW0gcG9zPSI0NjUiIHdpZHRoPSItMTAxIiAv\012PgogICAgICA8dnN0ZW0gcG9zPSItMTAiIHdpZHRo\012PSI4MiIgLz4KICAgICAgPHZzdGVtIHBvcz0iMTQz\012IiB3aWR0aD0iOTAiIC8+CiAgICA8L2hpbnRzZXQ+\012CiAgPC9oaW50U2V0TGlzdD4K";
com.typemytype.robofont.guides = (
{
angle = 0;
isGlobal = 0;
magnetic = 5;
x = 0;
y = 465;
},
{
angle = 90;
isGlobal = 0;
magnetic = 5;
x = 57;
y = 0;
}
);
};
},
{
glyphname = exclamdown;
layers = (
{
guideLines = (
{
angle = 90;
position = "{146, 0}";
}
);
hints = (
{
horizontal = 1;
origin = "{0, 0}";
type = Tag;
name = hr00;
}
);
layerId = "9E0117ED-02C0-4C46-91DE-7DE1029A8F9A";
name = Regular;
paths = (
{
closed = 1;
nodes = (
"211 -232 LINE",
"211 -232 OFFCURVE",
"192 -232 OFFCURVE",
"192 -136 CURVE SMOOTH",
"192 101 LINE SMOOTH",
"192 162 OFFCURVE",
"189 185 OFFCURVE",
"184 208 CURVE SMOOTH",
"175 256 OFFCURVE",
"160 303 OFFCURVE",
"160 303 CURVE",
"160 303 OFFCURVE",
"144 256 OFFCURVE",
"135 207 CURVE SMOOTH",
"131 185 OFFCURVE",
"128 163 OFFCURVE",
"128 102 CURVE SMOOTH",
"128 -136 LINE SMOOTH",
"128 -233 OFFCURVE",
"111 -232 OFFCURVE",
"111 -232 CURVE"
);
},
{
closed = 1;
nodes = (
"110 414 CURVE",
"110 389 OFFCURVE",
"126 364 OFFCURVE",
"159 364 CURVE SMOOTH",
"192 364 OFFCURVE",
"207 389 OFFCURVE",
"207 414 CURVE SMOOTH",
"207 439 OFFCURVE",
"192 465 OFFCURVE",
"159 465 CURVE SMOOTH",
"126 465 OFFCURVE",
"110 439 OFFCURVE"
);
}
);
width = 304;
}
);
unicode = 00A1;
userData = {
com.adobe.type.autohint = "ICA8aGludFNldExpc3Q+CiAgICA8aGludHNldCBw\012b2ludFRhZz0iaHIwMCI+CiAgICAgIDxoc3RlbSBw\012b3M9Ii0xMSIgd2lkdGg9IjEwMSIgLz4KICAgICAg\012PGhzdGVtIHBvcz0iLTExIiB3aWR0aD0iMTAxIiAv\012PgogICAgICA8aHN0ZW0gcG9zPSI2OTIiIHdpZHRo\012PSItMjAiIC8+CiAgICAgIDxoc3RlbSBwb3M9IjY5\012MiIgd2lkdGg9Ii0yMCIgLz4KICAgICAgPHZzdGVt\012IHBvcz0iOTciIHdpZHRoPSI3MCIgLz4KICAgICAg\012PHZzdGVtIHBvcz0iOTciIHdpZHRoPSI4NiIgLz4K\012ICAgICAgPHZzdGVtIHBvcz0iMTM0IiB3aWR0aD0i\012NzAiIC8+CiAgICAgIDx2c3RlbSBwb3M9IjEzNCIg\012d2lkdGg9Ijg2IiAvPgogICAgPC9oaW50c2V0Pgog\012IDwvaGludFNldExpc3Q+Cg==";
com.typemytype.robofont.guides = (
{
angle = 90;
isGlobal = 0;
magnetic = 5;
x = 146;
y = 0;
}
);
};
},
{
glyphname = logicalnot;
layers = (
{
hints = (
{
horizontal = 1;
origin = "{0, 0}";
type = Tag;
name = hr00;
}
);
layerId = "9E0117ED-02C0-4C46-91DE-7DE1029A8F9A";
name = Regular;
paths = (
{
closed = 1;
nodes = (
"494 106 LINE",
"494 311 LINE",
"78 311 LINE",
"78 257 LINE",
"440 257 LINE",
"440 106 LINE"
);
}
);
width = 560;
}
);
unicode = 00AC;
userData = {
com.adobe.type.autohint = "ICA8aGludFNldExpc3Q+CiAgICA8aGludHNldCBw\012b2ludFRhZz0iaHIwMCI+CiAgICAgIDxoc3RlbSBw\012b3M9IjEyNyIgd2lkdGg9Ii0yMSIgLz4KICAgICAg\012PGhzdGVtIHBvcz0iMjU3IiB3aWR0aD0iNTQiIC8+\012CiAgICAgIDx2c3RlbSBwb3M9IjQ0MCIgd2lkdGg9\012IjU0IiAvPgogICAgPC9oaW50c2V0PgogIDwvaGlu\012dFNldExpc3Q+Cg==";
};
},
{
glyphname = florin;
layers = (
{
hints = (
{
horizontal = 1;
origin = "{0, 0}";
type = Tag;
name = hr00;
}
);
layerId = "9E0117ED-02C0-4C46-91DE-7DE1029A8F9A";
name = Regular;
paths = (
{
closed = 1;
nodes = (
"349 686 LINE",
"329 696 OFFCURVE",
"307 700 OFFCURVE",
"287 700 CURVE SMOOTH",
"180 700 OFFCURVE",
"152 574 OFFCURVE",
"144 492 CURVE SMOOTH",
"124 295 LINE",
"81 295 LINE",
"72 261 LINE",
"123 261 LINE",
"103 47 LINE SMOOTH",
"92 -72 OFFCURVE",
"72 -103 OFFCURVE",
"39 -103 CURVE SMOOTH",
"16 -103 OFFCURVE",
"-10 -82 OFFCURVE",
"-10 -82 CURVE",
"-38 -124 LINE",
"-17 -135 OFFCURVE",
"7 -141 OFFCURVE",
"29 -141 CURVE SMOOTH",
"133 -141 OFFCURVE",
"162 -10 OFFCURVE",
"169 69 CURVE SMOOTH",
"185 261 LINE",
"232 261 LINE",
"241 295 LINE",
"187 295 LINE",
"209 515 LINE SMOOTH",
"221 640 OFFCURVE",
"237 662 OFFCURVE",
"266 662 CURVE SMOOTH",
"289 662 OFFCURVE",
"316 641 OFFCURVE",
"316 641 CURVE"
);
}
);
width = 345;
}
);
unicode = 0192;
userData = {
com.adobe.type.autohint = "ICA8aGludFNldExpc3Q+CiAgICA8aGludHNldCBw\012b2ludFRhZz0iaHIwMCI+CiAgICAgIDxoc3RlbSBw\012b3M9Ii0xNDIiIHdpZHRoPSIzNyIgLz4KICAgICAg\012PGhzdGVtIHBvcz0iMjUwIiB3aWR0aD0iMzQiIC8+\012CiAgICAgIDxoc3RlbSBwb3M9IjQ3NCIgd2lkdGg9\012IjM5IiAvPgogICAgPC9oaW50c2V0PgogIDwvaGlu\012dFNldExpc3Q+Cg==";
};
},
{
glyphname = OE;
layers = (
{
hints = (
{
horizontal = 1;
origin = "{0, 3}";
type = Tag;
name = hr01;
},
{
horizontal = 1;
origin = "{0, 4}";
type = Tag;
name = hr02;
},
{
horizontal = 1;
origin = "{0, 15}";
type = Tag;
name = hr03;
},
{
horizontal = 1;
origin = "{0, 24}";
type = Tag;
name = hr04;
},
{
horizontal = 1;
origin = "{0, 27}";
type = Tag;
name = hr05;
},
{
horizontal = 1;
origin = "{0, 30}";
type = Tag;
name = hr06;
},
{
horizontal = 1;
origin = "{0, 33}";
type = Tag;
name = hr07;
},
{
horizontal = 1;
origin = "{1, 0}";
type = Tag;
name = hr08;
},
{
horizontal = 1;
origin = "{1, 3}";
type = Tag;
name = hr09;
}
);
layerId = "9E0117ED-02C0-4C46-91DE-7DE1029A8F9A";
name = Regular;
paths = (
{
closed = 1;
nodes = (
"883 106 LINE",
"865 69 OFFCURVE",
"821 40 OFFCURVE",
"759 40 CURVE SMOOTH",
"603 40 LINE",
"603 324 LINE",
"776 324 LINE SMOOTH",
"820 324 OFFCURVE",
"838 296 OFFCURVE",
"838 296 CURVE",
"838 393 LINE",
"838 393 OFFCURVE",
"820 364 OFFCURVE",
"775 364 CURVE SMOOTH",
"603 364 LINE",
"603 648 LINE",
"742 648 LINE SMOOTH",
"822 648 OFFCURVE",
"843 611 OFFCURVE",
"850 588 CURVE",
"850 688 LINE",
"524 688 LINE",
"493 696 OFFCURVE",
"461 700 OFFCURVE",
"428 700 CURVE SMOOTH",
"209 700 OFFCURVE",
"64 550 OFFCURVE",
"64 336 CURVE SMOOTH",
"64 104 OFFCURVE",
"231 -12 OFFCURVE",
"406 -12 CURVE SMOOTH",
"442 -12 OFFCURVE",
"477 -8 OFFCURVE",
"509 0 CURVE",
"865 0 LINE"
);
},
{
closed = 1;
nodes = (
"432 30 CURVE SMOOTH",
"266 30 OFFCURVE",
"144 166 OFFCURVE",
"144 351 CURVE SMOOTH",
"144 537 OFFCURVE",
"251 657 OFFCURVE",
"402 657 CURVE SMOOTH",
"448 657 OFFCURVE",
"490 648 OFFCURVE",
"528 628 CURVE",
"530 618 OFFCURVE",
"531 605 OFFCURVE",
"531 591 CURVE SMOOTH",
"531 100 LINE SMOOTH",
"531 77 OFFCURVE",
"529 60 OFFCURVE",
"525 47 CURVE",
"497 35 OFFCURVE",
"466 30 OFFCURVE"
);
}
);
width = 931;
}
);
leftKerningGroup = C;
rightKerningGroup = E;
unicode = 0152;
userData = {
com.adobe.type.autohint = "ICA8aGludFNldExpc3Q+CiAgICA8aGludHNldCBw\012b2ludFRhZz0iaHIwMSI+CiAgICAgIDxoc3RlbSBw\012b3M9IjAiIHdpZHRoPSI0MCIgLz4KICAgICAgPGhz\012dGVtIHBvcz0iMzMyIiB3aWR0aD0iNDIiIC8+CiAg\012ICAgIDxoc3RlbSBwb3M9IjY5MiIgd2lkdGg9Ii0y\012MCIgLz4KICAgICAgPHZzdGVtIHBvcz0iNjYiIHdp\012ZHRoPSI4NSIgLz4KICAgICAgPHZzdGVtIHBvcz0i\012NTE2IiB3aWR0aD0iNzIiIC8+CiAgICAgIDx2c3Rl\012bSBwb3M9IjY5MCIgd2lkdGg9IjgwIiAvPgogICAg\012PC9oaW50c2V0PgogICAgPGhpbnRzZXQgcG9pbnRU\012YWc9ImhyMDIiPgogICAgICA8aHN0ZW0gcG9zPSIw\012IiB3aWR0aD0iNDAiIC8+CiAgICAgIDxoc3RlbSBw\012b3M9IjMzMiIgd2lkdGg9IjQyIiAvPgogICAgICA8\012aHN0ZW0gcG9zPSI2OTIiIHdpZHRoPSItMjAiIC8+\012CiAgICAgIDx2c3RlbSBwb3M9IjY2IiB3aWR0aD0i\012ODUiIC8+CiAgICAgIDx2c3RlbSBwb3M9IjUyNyIg\012d2lkdGg9Ijc2IiAvPgogICAgICA8dnN0ZW0gcG9z\012PSI2OTAiIHdpZHRoPSI4MCIgLz4KICAgIDwvaGlu\012dHNldD4KICAgIDxoaW50c2V0IHBvaW50VGFnPSJo\012cjAzIj4KICAgICAgPGhzdGVtIHBvcz0iLTYiIHdp\012ZHRoPSI0NSIgLz4KICAgICAgPGhzdGVtIHBvcz0i\012MzMyIiB3aWR0aD0iNDIiIC8+CiAgICAgIDxoc3Rl\012bSBwb3M9IjY0OCIgd2lkdGg9IjQwIiAvPgogICAg\012ICA8dnN0ZW0gcG9zPSI2NiIgd2lkdGg9Ijg1IiAv\012PgogICAgICA8dnN0ZW0gcG9zPSI1MjciIHdpZHRo\012PSI3NiIgLz4KICAgICAgPHZzdGVtIHBvcz0iNjkw\012IiB3aWR0aD0iODAiIC8+CiAgICA8L2hpbnRzZXQ+\012CiAgICA8aGludHNldCBwb2ludFRhZz0iaHIwNCI+\012CiAgICAgIDxoc3RlbSBwb3M9Ii02IiB3aWR0aD0i\012NDUiIC8+CiAgICAgIDxoc3RlbSBwb3M9IjMzMiIg\012d2lkdGg9IjQyIiAvPgogICAgICA8aHN0ZW0gcG9z\012PSI2NjIiIHdpZHRoPSIzOCIgLz4KICAgICAgPHZz\012dGVtIHBvcz0iNjYiIHdpZHRoPSI4NSIgLz4KICAg\012ICAgPHZzdGVtIHBvcz0iNTE2IiB3aWR0aD0iNzIi\012IC8+CiAgICAgIDx2c3RlbSBwb3M9IjY5MCIgd2lk\012dGg9IjgwIiAvPgogICAgPC9oaW50c2V0PgogICAg\012PGhpbnRzZXQgcG9pbnRUYWc9ImhyMDUiPgogICAg\012ICA8aHN0ZW0gcG9zPSItNiIgd2lkdGg9IjQ1IiAv\012PgogICAgICA8aHN0ZW0gcG9zPSIzMzIiIHdpZHRo\012PSI0MiIgLz4KICAgICAgPGhzdGVtIHBvcz0iNjky\012IiB3aWR0aD0iLTIwIiAvPgogICAgICA8dnN0ZW0g\012cG9zPSI2NCIgd2lkdGg9IjgwIiAvPgogICAgICA8\012dnN0ZW0gcG9zPSI1MTYiIHdpZHRoPSI3MiIgLz4K\012ICAgICAgPHZzdGVtIHBvcz0iNjkwIiB3aWR0aD0i\012ODAiIC8+CiAgICA8L2hpbnRzZXQ+CiAgICA8aGlu\012dHNldCBwb2ludFRhZz0iaHIwNiI+CiAgICAgIDxo\012c3RlbSBwb3M9Ii0xMiIgd2lkdGg9IjQyIiAvPgog\012ICAgICA8aHN0ZW0gcG9zPSIzMzIiIHdpZHRoPSI0\012MiIgLz4KICAgICAgPGhzdGVtIHBvcz0iNjkyIiB3\012aWR0aD0iLTIwIiAvPgogICAgICA8dnN0ZW0gcG9z\012PSI2NiIgd2lkdGg9Ijg1IiAvPgogICAgICA8dnN0\012ZW0gcG9zPSI1MTYiIHdpZHRoPSI3MiIgLz4KICAg\012ICAgPHZzdGVtIHBvcz0iNjkwIiB3aWR0aD0iODAi\012IC8+CiAgICA8L2hpbnRzZXQ+CiAgICA8aGludHNl\012dCBwb2ludFRhZz0iaHIwNyI+CiAgICAgIDxoc3Rl\012bSBwb3M9IjIxIiB3aWR0aD0iLTIxIiAvPgogICAg\012ICA8aHN0ZW0gcG9zPSIzMzIiIHdpZHRoPSI0MiIg\012Lz4KICAgICAgPGhzdGVtIHBvcz0iNjkyIiB3aWR0\012aD0iLTIwIiAvPgogICAgICA8dnN0ZW0gcG9zPSI2\012NiIgd2lkdGg9Ijg1IiAvPgogICAgICA8dnN0ZW0g\012cG9zPSI1MTYiIHdpZHRoPSI3MiIgLz4KICAgICAg\012PHZzdGVtIHBvcz0iNjkwIiB3aWR0aD0iODAiIC8+\012CiAgICA8L2hpbnRzZXQ+CiAgICA8aGludHNldCBw\012b2ludFRhZz0iaHIwOCI+CiAgICAgIDxoc3RlbSBw\012b3M9Ii0xMiIgd2lkdGg9IjQyIiAvPgogICAgICA8\012aHN0ZW0gcG9zPSIzMzIiIHdpZHRoPSI0MiIgLz4K\012ICAgICAgPGhzdGVtIHBvcz0iNjkyIiB3aWR0aD0i\012LTIwIiAvPgogICAgICA8dnN0ZW0gcG9zPSI2NiIg\012d2lkdGg9Ijg1IiAvPgogICAgICA8dnN0ZW0gcG9z\012PSI1MTYiIHdpZHRoPSI3MiIgLz4KICAgICAgPHZz\012dGVtIHBvcz0iNjkwIiB3aWR0aD0iODAiIC8+CiAg\012ICA8L2hpbnRzZXQ+CiAgICA8aGludHNldCBwb2lu\012dFRhZz0iaHIwOSI+CiAgICAgIDxoc3RlbSBwb3M9\012Ii02IiB3aWR0aD0iNDUiIC8+CiAgICAgIDxoc3Rl\012bSBwb3M9IjMzMiIgd2lkdGg9IjQyIiAvPgogICAg\012ICA8aHN0ZW0gcG9zPSI2OTIiIHdpZHRoPSItMjAi\012IC8+CiAgICAgIDx2c3RlbSBwb3M9IjY0IiB3aWR0\012aD0iODAiIC8+CiAgICAgIDx2c3RlbSBwb3M9IjUx\012NiIgd2lkdGg9IjcyIiAvPgogICAgICA8dnN0ZW0g\012cG9zPSI2OTAiIHdpZHRoPSI4MCIgLz4KICAgIDwv\012aGludHNldD4KICAgIDxoaW50c2V0IHBvaW50VGFn\012PSJocjEwIj4KICAgICAgPGhzdGVtIHBvcz0iLTEy\012IiB3aWR0aD0iNDIiIC8+CiAgICAgIDxoc3RlbSBw\012b3M9IjMzMiIgd2lkdGg9IjQyIiAvPgogICAgICA8\012aHN0ZW0gcG9zPSI2OTIiIHdpZHRoPSItMjAiIC8+\012CiAgICAgIDx2c3RlbSBwb3M9IjY2IiB3aWR0aD0i\012ODUiIC8+CiAgICAgIDx2c3RlbSBwb3M9IjUxNiIg\012d2lkdGg9IjcyIiAvPgogICAgICA8dnN0ZW0gcG9z\012PSI2OTAiIHdpZHRoPSI4MCIgLz4KICAgIDwvaGlu\012dHNldD4KICA8L2hpbnRTZXRMaXN0Pgo=";
};
},
